<ttFont>
    <TTGlyph name=".notdef" xMin="-49" yMin="0" xMax="1061" yMax="1305">
      <contour>
        <pt x="784" y="0" on="1"/>
        <pt x="-49" y="0" on="1"/>
        <pt x="227" y="1305" on="1"/>
        <pt x="1061" y="1305" on="1"/>
      </contour>
      <contour>
        <pt x="113" y="117" on="1"/>
        <pt x="672" y="117" on="1"/>
        <pt x="899" y="1188" on="1"/>
        <pt x="340" y="1188" on="1"/>
      </contour>
    </TTGlyph>
    <TTGlyph name="A" xMin="-158" yMin="0" xMax="897" yMax="1305">
      <contour>
        <pt x="897" y="0" on="1"/>
        <pt x="750" y="0" on="1"/>
        <pt x="705" y="373" on="1"/>
        <pt x="188" y="373" on="1"/>
        <pt x="-10" y="0" on="1"/>
        <pt x="-158" y="0" on="1"/>
        <pt x="553" y="1305" on="1"/>
        <pt x="739" y="1305" on="1"/>
      </contour>
      <contour>
        <pt x="692" y="494" on="1"/>
        <pt x="616" y="1167" on="1"/>
        <pt x="254" y="494" on="1"/>
      </contour>
    </TTGlyph>
    <TTGlyph name="AE" xMin="-162" yMin="0" xMax="1110" yMax="1305">
      <contour>
        <pt x="834" y="0" on="1"/>
        <pt x="328" y="0" on="1"/>
        <pt x="406" y="373" on="1"/>
        <pt x="172" y="373" on="1"/>
        <pt x="-16" y="0" on="1"/>
        <pt x="-162" y="0" on="1"/>
        <pt x="510" y="1305" on="1"/>
        <pt x="1110" y="1305" on="1"/>
        <pt x="1083" y="1184" on="1"/>
        <pt x="717" y="1184" on="1"/>
        <pt x="621" y="727" on="1"/>
        <pt x="897" y="727" on="1"/>
        <pt x="870" y="606" on="1"/>
        <pt x="594" y="606" on="1"/>
        <pt x="492" y="123" on="1"/>
        <pt x="858" y="123" on="1"/>
      </contour>
      <contour>
        <pt x="432" y="494" on="1"/>
        <pt x="571" y="1153" on="1"/>
        <pt x="236" y="494" on="1"/>
      </contour>
    </TTGlyph>
    <TTGlyph name="AEacute" xMin="-162" yMin="0" xMax="1110" yMax="1739">
      <component glyphName="AE" x="0" y="0" flags="0x204"/>
      <component glyphName="acute" x="80" y="375" flags="0x4"/>
    </TTGlyph>
    <TTGlyph name="Aacute" xMin="-158" yMin="0" xMax="959" yMax="1735">
      <component glyphName="A" x="0" y="0" flags="0x204"/>
      <component glyphName="acute" x="80" y="371" flags="0x4"/>
    </TTGlyph>
    <TTGlyph name="Abreve" xMin="-158" yMin="0" xMax="989" yMax="1657">
      <component glyphName="A" x="0" y="0" flags="0x204"/>
      <component glyphName="breve" x="80" y="371" flags="0x4"/>
    </TTGlyph>
    <TTGlyph name="Acircumflex" xMin="-158" yMin="0" xMax="975" yMax="1739">
      <component glyphName="A" x="0" y="0" flags="0x204"/>
      <component glyphName="circumflex" x="80" y="371" flags="0x4"/>
    </TTGlyph>
    <TTGlyph name="Adieresis" xMin="-158" yMin="0" xMax="1004" yMax="1676">
      <component glyphName="A" x="0" y="0" flags="0x204"/>
      <component glyphName="dieresis" x="80" y="371" flags="0x4"/>
    </TTGlyph>
    <TTGlyph name="Agrave" xMin="-158" yMin="0" xMax="909" yMax="1737">
      <component glyphName="A" x="0" y="0" flags="0x204"/>
      <component glyphName="grave" x="80" y="373" flags="0x4"/>
    </TTGlyph>
    <TTGlyph name="Alpha" xMin="-158" yMin="0" xMax="897" yMax="1305">
      <contour>
        <pt x="897" y="0" on="1"/>
        <pt x="750" y="0" on="1"/>
        <pt x="705" y="373" on="1"/>
        <pt x="188" y="373" on="1"/>
        <pt x="-10" y="0" on="1"/>
        <pt x="-158" y="0" on="1"/>
        <pt x="553" y="1305" on="1"/>
        <pt x="739" y="1305" on="1"/>
      </contour>
      <contour>
        <pt x="692" y="494" on="1"/>
        <pt x="616" y="1167" on="1"/>
        <pt x="254" y="494" on="1"/>
      </contour>
    </TTGlyph>
    <TTGlyph name="Alphatonos" xMin="-158" yMin="0" xMax="897" yMax="1583">
      <component glyphName="Alpha" x="0" y="0" flags="0x200"/>
      <component glyphName="tonos" x="-372" y="0" flags="0x0"/>
    </TTGlyph>
    <TTGlyph name="Amacron" xMin="-158" yMin="0" xMax="985" yMax="1590">
      <component glyphName="A" x="0" y="0" flags="0x204"/>
      <component glyphName="macron" x="80" y="371" flags="0x4"/>
    </TTGlyph>
    <TTGlyph name="Aogonek" xMin="-158" yMin="-379" xMax="975" yMax="1305">
      <contour>
        <pt x="954" y="-379" on="1"/>
        <pt x="829" y="-379" on="0"/>
        <pt x="713" y="-254" on="0"/>
        <pt x="735" y="-152" on="1"/>
        <pt x="745" y="-104" on="0"/>
        <pt x="793" y="-29" on="0"/>
        <pt x="821" y="0" on="1"/>
        <pt x="750" y="0" on="1"/>
        <pt x="705" y="373" on="1"/>
        <pt x="188" y="373" on="1"/>
        <pt x="-10" y="0" on="1"/>
        <pt x="-158" y="0" on="1"/>
        <pt x="553" y="1305" on="1"/>
        <pt x="739" y="1305" on="1"/>
        <pt x="897" y="0" on="1"/>
        <pt x="838" y="-45" on="0"/>
        <pt x="821" y="-121" on="1"/>
        <pt x="807" y="-193" on="0"/>
        <pt x="895" y="-289" on="0"/>
        <pt x="975" y="-289" on="1"/>
      </contour>
      <contour>
        <pt x="692" y="494" on="1"/>
        <pt x="616" y="1167" on="1"/>
        <pt x="254" y="494" on="1"/>
      </contour>
    </TTGlyph>
    <TTGlyph name="Aring" xMin="-158" yMin="0" xMax="911" yMax="1675">
      <contour>
        <pt x="451" y="1450" on="1"/>
        <pt x="461" y="1497" on="0"/>
        <pt x="512" y="1579" on="0"/>
        <pt x="588" y="1640" on="0"/>
        <pt x="676" y="1675" on="0"/>
        <pt x="723" y="1675" on="1"/>
        <pt x="770" y="1675" on="0"/>
        <pt x="846" y="1640" on="0"/>
        <pt x="893" y="1579" on="0"/>
        <pt x="911" y="1497" on="0"/>
        <pt x="901" y="1450" on="1"/>
        <pt x="887" y="1384" on="0"/>
        <pt x="803" y="1282" on="0"/>
        <pt x="745" y="1253" on="1"/>
        <pt x="897" y="0" on="1"/>
        <pt x="750" y="0" on="1"/>
        <pt x="705" y="373" on="1"/>
        <pt x="188" y="373" on="1"/>
        <pt x="-10" y="0" on="1"/>
        <pt x="-158" y="0" on="1"/>
        <pt x="522" y="1251" on="1"/>
        <pt x="477" y="1280" on="0"/>
        <pt x="436" y="1384" on="0"/>
      </contour>
      <contour>
        <pt x="692" y="494" on="1"/>
        <pt x="616" y="1167" on="1"/>
        <pt x="254" y="494" on="1"/>
      </contour>
      <contour>
        <pt x="541" y="1450" on="1"/>
        <pt x="528" y="1395" on="0"/>
        <pt x="592" y="1315" on="0"/>
        <pt x="647" y="1315" on="1"/>
        <pt x="702" y="1315" on="0"/>
        <pt x="799" y="1395" on="0"/>
        <pt x="811" y="1450" on="1"/>
        <pt x="823" y="1505" on="0"/>
        <pt x="760" y="1585" on="0"/>
        <pt x="705" y="1585" on="1"/>
        <pt x="649" y="1585" on="0"/>
        <pt x="553" y="1505" on="0"/>
      </contour>
    </TTGlyph>
    <TTGlyph name="Atilde" xMin="-158" yMin="0" xMax="1088" yMax="1651">
      <component glyphName="A" x="0" y="0" flags="0x204"/>
      <component glyphName="tilde" x="80" y="371" flags="0x4"/>
    </TTGlyph>
    <TTGlyph name="B" xMin="-49" yMin="0" xMax="1014" yMax="1305">
      <contour>
        <pt x="909" y="373" on="1"/>
        <pt x="870" y="186" on="0"/>
        <pt x="590" y="0" on="0"/>
        <pt x="367" y="0" on="1"/>
        <pt x="-49" y="0" on="1"/>
        <pt x="227" y="1305" on="1"/>
        <pt x="621" y="1305" on="1"/>
        <pt x="702" y="1305" on="0"/>
        <pt x="854" y="1278" on="0"/>
        <pt x="963" y="1204" on="0"/>
        <pt x="1014" y="1073" on="0"/>
        <pt x="991" y="967" on="1"/>
        <pt x="948" y="764" on="0"/>
        <pt x="729" y="690" on="1"/>
        <pt x="961" y="614" on="0"/>
      </contour>
      <contour>
        <pt x="854" y="967" on="1"/>
        <pt x="868" y="1036" on="0"/>
        <pt x="829" y="1124" on="0"/>
        <pt x="750" y="1171" on="0"/>
        <pt x="645" y="1188" on="0"/>
        <pt x="596" y="1188" on="1"/>
        <pt x="340" y="1188" on="1"/>
        <pt x="246" y="745" on="1"/>
        <pt x="502" y="745" on="1"/>
        <pt x="557" y="745" on="0"/>
        <pt x="670" y="762" on="0"/>
        <pt x="766" y="811" on="0"/>
        <pt x="840" y="897" on="0"/>
      </contour>
      <contour>
        <pt x="772" y="373" on="1"/>
        <pt x="801" y="508" on="0"/>
        <pt x="653" y="631" on="0"/>
        <pt x="500" y="631" on="1"/>
        <pt x="221" y="631" on="1"/>
        <pt x="113" y="117" on="1"/>
        <pt x="391" y="117" on="1"/>
        <pt x="545" y="117" on="0"/>
        <pt x="745" y="246" on="0"/>
      </contour>
    </TTGlyph>
    <TTGlyph name="Beta" xMin="-49" yMin="0" xMax="1014" yMax="1305">
      <contour>
        <pt x="909" y="373" on="1"/>
        <pt x="870" y="186" on="0"/>
        <pt x="590" y="0" on="0"/>
        <pt x="367" y="0" on="1"/>
        <pt x="-49" y="0" on="1"/>
        <pt x="227" y="1305" on="1"/>
        <pt x="621" y="1305" on="1"/>
        <pt x="702" y="1305" on="0"/>
        <pt x="854" y="1278" on="0"/>
        <pt x="963" y="1204" on="0"/>
        <pt x="1014" y="1073" on="0"/>
        <pt x="991" y="967" on="1"/>
        <pt x="948" y="764" on="0"/>
        <pt x="729" y="690" on="1"/>
        <pt x="961" y="614" on="0"/>
      </contour>
      <contour>
        <pt x="854" y="967" on="1"/>
        <pt x="868" y="1036" on="0"/>
        <pt x="829" y="1124" on="0"/>
        <pt x="750" y="1171" on="0"/>
        <pt x="645" y="1188" on="0"/>
        <pt x="596" y="1188" on="1"/>
        <pt x="340" y="1188" on="1"/>
        <pt x="246" y="745" on="1"/>
        <pt x="502" y="745" on="1"/>
        <pt x="557" y="745" on="0"/>
        <pt x="670" y="762" on="0"/>
        <pt x="766" y="811" on="0"/>
        <pt x="840" y="897" on="0"/>
      </contour>
      <contour>
        <pt x="772" y="373" on="1"/>
        <pt x="801" y="508" on="0"/>
        <pt x="653" y="631" on="0"/>
        <pt x="500" y="631" on="1"/>
        <pt x="221" y="631" on="1"/>
        <pt x="113" y="117" on="1"/>
        <pt x="391" y="117" on="1"/>
        <pt x="545" y="117" on="0"/>
        <pt x="745" y="246" on="0"/>
      </contour>
    </TTGlyph>
    <TTGlyph name="C" xMin="-10" yMin="-23" xMax="1110" yMax="1327">
      <contour>
        <pt x="913" y="342" on="1"/>
        <pt x="827" y="174" on="0"/>
        <pt x="553" y="-23" on="0"/>
        <pt x="377" y="-23" on="1"/>
        <pt x="240" y="-23" on="0"/>
        <pt x="74" y="90" on="0"/>
        <pt x="-8" y="276" on="0"/>
        <pt x="-10" y="520" on="0"/>
        <pt x="18" y="651" on="1"/>
        <pt x="47" y="782" on="0"/>
        <pt x="152" y="1026" on="0"/>
        <pt x="313" y="1214" on="0"/>
        <pt x="526" y="1327" on="0"/>
        <pt x="664" y="1327" on="1"/>
        <pt x="784" y="1327" on="0"/>
        <pt x="938" y="1241" on="0"/>
        <pt x="961" y="1153" on="1"/>
        <pt x="993" y="1305" on="1"/>
        <pt x="1110" y="1305" on="1"/>
        <pt x="1018" y="877" on="1"/>
        <pt x="901" y="877" on="1"/>
        <pt x="918" y="946" on="0"/>
        <pt x="889" y="1069" on="0"/>
        <pt x="819" y="1159" on="0"/>
        <pt x="707" y="1210" on="0"/>
        <pt x="639" y="1210" on="1"/>
        <pt x="532" y="1210" on="0"/>
        <pt x="373" y="1110" on="0"/>
        <pt x="254" y="948" on="0"/>
        <pt x="176" y="750" on="0"/>
        <pt x="156" y="651" on="1"/>
        <pt x="135" y="553" on="0"/>
        <pt x="127" y="354" on="0"/>
        <pt x="178" y="195" on="0"/>
        <pt x="295" y="94" on="0"/>
        <pt x="401" y="94" on="1"/>
        <pt x="645" y="94" on="0"/>
        <pt x="805" y="389" on="1"/>
      </contour>
    </TTGlyph>
    <TTGlyph name="Cacute" xMin="-10" yMin="-23" xMax="1110" yMax="1735">
      <component glyphName="C" x="0" y="0" flags="0x204"/>
      <component glyphName="acute" x="80" y="371" flags="0x4"/>
    </TTGlyph>
    <TTGlyph name="Ccaron" xMin="-10" yMin="-23" xMax="1110" yMax="1739">
      <component glyphName="C" x="0" y="0" flags="0x204"/>
      <component glyphName="caron" x="80" y="371" flags="0x4"/>
    </TTGlyph>
    <TTGlyph name="Ccedilla" xMin="-10" yMin="-371" xMax="1110" yMax="1327">
      <contour>
        <pt x="913" y="342" on="1"/>
        <pt x="836" y="193" on="0"/>
        <pt x="604" y="4" on="0"/>
        <pt x="457" y="-16" on="1"/>
        <pt x="451" y="-41" on="1"/>
        <pt x="420" y="-188" on="0"/>
        <pt x="319" y="-276" on="1"/>
        <pt x="211" y="-371" on="0"/>
        <pt x="63" y="-371" on="1"/>
        <pt x="88" y="-254" on="1"/>
        <pt x="291" y="-254" on="0"/>
        <pt x="336" y="-41" on="1"/>
        <pt x="340" y="-20" on="1"/>
        <pt x="215" y="-12" on="0"/>
        <pt x="61" y="104" on="0"/>
        <pt x="-10" y="289" on="0"/>
        <pt x="-8" y="524" on="0"/>
        <pt x="18" y="651" on="1"/>
        <pt x="47" y="782" on="0"/>
        <pt x="152" y="1026" on="0"/>
        <pt x="313" y="1214" on="0"/>
        <pt x="526" y="1327" on="0"/>
        <pt x="664" y="1327" on="1"/>
        <pt x="784" y="1327" on="0"/>
        <pt x="938" y="1241" on="0"/>
        <pt x="961" y="1153" on="1"/>
        <pt x="993" y="1305" on="1"/>
        <pt x="1110" y="1305" on="1"/>
        <pt x="1018" y="877" on="1"/>
        <pt x="901" y="877" on="1"/>
        <pt x="918" y="946" on="0"/>
        <pt x="889" y="1069" on="0"/>
        <pt x="819" y="1159" on="0"/>
        <pt x="707" y="1210" on="0"/>
        <pt x="639" y="1210" on="1"/>
        <pt x="532" y="1210" on="0"/>
        <pt x="373" y="1110" on="0"/>
        <pt x="254" y="948" on="0"/>
        <pt x="176" y="750" on="0"/>
        <pt x="156" y="651" on="1"/>
        <pt x="135" y="553" on="0"/>
        <pt x="127" y="354" on="0"/>
        <pt x="178" y="195" on="0"/>
        <pt x="295" y="94" on="0"/>
        <pt x="401" y="94" on="1"/>
        <pt x="645" y="94" on="0"/>
        <pt x="805" y="389" on="1"/>
      </contour>
    </TTGlyph>
    <TTGlyph name="Ccircumflex" xMin="-10" yMin="-23" xMax="1110" yMax="1739">
      <component glyphName="C" x="0" y="0" flags="0x204"/>
      <component glyphName="circumflex" x="80" y="371" flags="0x4"/>
    </TTGlyph>
    <TTGlyph name="Cdotaccent" xMin="-10" yMin="-23" xMax="1110" yMax="1676">
      <component glyphName="C" x="0" y="0" flags="0x204"/>
      <component glyphName="dotaccent" x="80" y="371" flags="0x4"/>
    </TTGlyph>
    <TTGlyph name="Chi" xMin="-121" yMin="0" xMax="1110" yMax="1305">
      <contour>
        <pt x="856" y="0" on="1"/>
        <pt x="485" y="0" on="1"/>
        <pt x="510" y="117" on="1"/>
        <pt x="598" y="117" on="1"/>
        <pt x="483" y="545" on="1"/>
        <pt x="186" y="117" on="1"/>
        <pt x="274" y="117" on="1"/>
        <pt x="250" y="0" on="1"/>
        <pt x="-121" y="0" on="1"/>
        <pt x="-96" y="117" on="1"/>
        <pt x="31" y="117" on="1"/>
        <pt x="428" y="657" on="1"/>
        <pt x="262" y="1188" on="1"/>
        <pt x="154" y="1188" on="1"/>
        <pt x="178" y="1305" on="1"/>
        <pt x="551" y="1305" on="1"/>
        <pt x="526" y="1188" on="1"/>
        <pt x="418" y="1188" on="1"/>
        <pt x="530" y="770" on="1"/>
        <pt x="817" y="1188" on="1"/>
        <pt x="713" y="1188" on="1"/>
        <pt x="737" y="1305" on="1"/>
        <pt x="1110" y="1305" on="1"/>
        <pt x="1085" y="1188" on="1"/>
        <pt x="973" y="1188" on="1"/>
        <pt x="588" y="657" on="1"/>
        <pt x="754" y="117" on="1"/>
        <pt x="881" y="117" on="1"/>
      </contour>
    </TTGlyph>
    <TTGlyph name="D" xMin="-49" yMin="0" xMax="1042" yMax="1305">
      <contour>
        <pt x="1014" y="651" on="1"/>
        <pt x="985" y="520" on="0"/>
        <pt x="881" y="283" on="0"/>
        <pt x="721" y="104" on="0"/>
        <pt x="510" y="0" on="0"/>
        <pt x="375" y="0" on="1"/>
        <pt x="-49" y="0" on="1"/>
        <pt x="227" y="1305" on="1"/>
        <pt x="651" y="1305" on="1"/>
        <pt x="784" y="1305" on="0"/>
        <pt x="952" y="1198" on="0"/>
        <pt x="1034" y="1018" on="0"/>
        <pt x="1042" y="782" on="0"/>
      </contour>
      <contour>
        <pt x="877" y="651" on="1"/>
        <pt x="932" y="907" on="0"/>
        <pt x="799" y="1188" on="0"/>
        <pt x="627" y="1188" on="1"/>
        <pt x="340" y="1188" on="1"/>
        <pt x="113" y="117" on="1"/>
        <pt x="399" y="117" on="1"/>
        <pt x="571" y="117" on="0"/>
        <pt x="823" y="395" on="0"/>
      </contour>
    </TTGlyph>
    <TTGlyph name="Dcaron" xMin="-49" yMin="0" xMax="1042" yMax="1743">
      <component glyphName="D" x="0" y="0" flags="0x204"/>
      <component glyphName="caron" x="80" y="375" flags="0x4"/>
    </TTGlyph>
    <TTGlyph name="Dcroat" xMin="-88" yMin="0" xMax="1042" yMax="1305">
      <component glyphName="Eth" x="0" y="0" flags="0x204"/>
    </TTGlyph>
    <TTGlyph name="Delta" xMin="-158" yMin="0" xMax="897" yMax="1305">
      <contour>
        <pt x="897" y="0" on="1"/>
        <pt x="-158" y="0" on="1"/>
        <pt x="553" y="1305" on="1"/>
        <pt x="739" y="1305" on="1"/>
      </contour>
      <contour>
        <pt x="735" y="117" on="1"/>
        <pt x="614" y="1165" on="1"/>
        <pt x="51" y="117" on="1"/>
      </contour>
    </TTGlyph>
    <TTGlyph name="E" xMin="-49" yMin="0" xMax="1061" yMax="1305">
      <contour>
        <pt x="784" y="0" on="1"/>
        <pt x="-49" y="0" on="1"/>
        <pt x="227" y="1305" on="1"/>
        <pt x="1061" y="1305" on="1"/>
        <pt x="1036" y="1188" on="1"/>
        <pt x="340" y="1188" on="1"/>
        <pt x="240" y="721" on="1"/>
        <pt x="754" y="721" on="1"/>
        <pt x="729" y="604" on="1"/>
        <pt x="215" y="604" on="1"/>
        <pt x="113" y="117" on="1"/>
        <pt x="809" y="117" on="1"/>
      </contour>
    </TTGlyph>
    <TTGlyph name="Eacute" xMin="-49" yMin="0" xMax="1061" yMax="1735">
      <component glyphName="E" x="0" y="0" flags="0x204"/>
      <component glyphName="acute" x="80" y="371" flags="0x4"/>
    </TTGlyph>
    <TTGlyph name="Ebreve" xMin="-49" yMin="0" xMax="1061" yMax="1657">
      <component glyphName="E" x="0" y="0" flags="0x204"/>
      <component glyphName="breve" x="80" y="371" flags="0x4"/>
    </TTGlyph>
    <TTGlyph name="Ecaron" xMin="-49" yMin="0" xMax="1061" yMax="1739">
      <component glyphName="E" x="0" y="0" flags="0x204"/>
      <component glyphName="caron" x="80" y="371" flags="0x4"/>
    </TTGlyph>
    <TTGlyph name="Ecircumflex" xMin="-49" yMin="0" xMax="1061" yMax="1739">
      <component glyphName="E" x="0" y="0" flags="0x204"/>
      <component glyphName="circumflex" x="80" y="371" flags="0x4"/>
    </TTGlyph>
    <TTGlyph name="Edieresis" xMin="-49" yMin="0" xMax="1061" yMax="1676">
      <component glyphName="E" x="0" y="0" flags="0x204"/>
      <component glyphName="dieresis" x="80" y="371" flags="0x4"/>
    </TTGlyph>
    <TTGlyph name="Edotaccent" xMin="-49" yMin="0" xMax="1061" yMax="1676">
      <component glyphName="E" x="0" y="0" flags="0x204"/>
      <component glyphName="dotaccent" x="80" y="371" flags="0x4"/>
    </TTGlyph>
    <TTGlyph name="Egrave" xMin="-49" yMin="0" xMax="1061" yMax="1737">
      <component glyphName="E" x="0" y="0" flags="0x204"/>
      <component glyphName="grave" x="80" y="373" flags="0x4"/>
    </TTGlyph>
    <TTGlyph name="Emacron" xMin="-49" yMin="0" xMax="1061" yMax="1590">
      <component glyphName="E" x="0" y="0" flags="0x204"/>
      <component glyphName="macron" x="80" y="371" flags="0x4"/>
    </TTGlyph>
    <TTGlyph name="Eng" xMin="-49" yMin="-395" xMax="1061" yMax="1305">
      <contour>
        <pt x="809" y="125" on="1"/>
        <pt x="758" y="-123" on="0"/>
        <pt x="487" y="-395" on="0"/>
        <pt x="270" y="-395" on="1"/>
        <pt x="59" y="-395" on="0"/>
        <pt x="-35" y="-266" on="1"/>
        <pt x="72" y="-170" on="1"/>
        <pt x="109" y="-227" on="0"/>
        <pt x="225" y="-279" on="0"/>
        <pt x="297" y="-279" on="1"/>
        <pt x="362" y="-279" on="0"/>
        <pt x="465" y="-240" on="0"/>
        <pt x="543" y="-174" on="0"/>
        <pt x="604" y="-86" on="0"/>
        <pt x="625" y="-37" on="1"/>
        <pt x="322" y="1104" on="1"/>
        <pt x="88" y="0" on="1"/>
        <pt x="-49" y="0" on="1"/>
        <pt x="227" y="1305" on="1"/>
        <pt x="420" y="1305" on="1"/>
        <pt x="700" y="252" on="1"/>
        <pt x="924" y="1305" on="1"/>
        <pt x="1061" y="1305" on="1"/>
      </contour>
    </TTGlyph>
    <TTGlyph name="Eogonek" xMin="-49" yMin="-379" xMax="1061" yMax="1305">
      <contour>
        <pt x="844" y="-379" on="1"/>
        <pt x="719" y="-379" on="0"/>
        <pt x="602" y="-254" on="0"/>
        <pt x="625" y="-152" on="1"/>
        <pt x="635" y="-104" on="0"/>
        <pt x="682" y="-29" on="0"/>
        <pt x="711" y="0" on="1"/>
        <pt x="-49" y="0" on="1"/>
        <pt x="227" y="1305" on="1"/>
        <pt x="1061" y="1305" on="1"/>
        <pt x="1036" y="1188" on="1"/>
        <pt x="340" y="1188" on="1"/>
        <pt x="240" y="721" on="1"/>
        <pt x="754" y="721" on="1"/>
        <pt x="729" y="604" on="1"/>
        <pt x="215" y="604" on="1"/>
        <pt x="113" y="117" on="1"/>
        <pt x="809" y="117" on="1"/>
        <pt x="784" y="2" on="1"/>
        <pt x="786" y="0" on="1"/>
        <pt x="727" y="-45" on="0"/>
        <pt x="711" y="-121" on="1"/>
        <pt x="696" y="-193" on="0"/>
        <pt x="784" y="-289" on="0"/>
        <pt x="864" y="-289" on="1"/>
      </contour>
    </TTGlyph>
    <TTGlyph name="Epsilon" xMin="-49" yMin="0" xMax="1061" yMax="1305">
      <contour>
        <pt x="784" y="0" on="1"/>
        <pt x="-49" y="0" on="1"/>
        <pt x="227" y="1305" on="1"/>
        <pt x="1061" y="1305" on="1"/>
        <pt x="1036" y="1188" on="1"/>
        <pt x="340" y="1188" on="1"/>
        <pt x="240" y="721" on="1"/>
        <pt x="754" y="721" on="1"/>
        <pt x="729" y="604" on="1"/>
        <pt x="215" y="604" on="1"/>
        <pt x="113" y="117" on="1"/>
        <pt x="809" y="117" on="1"/>
      </contour>
    </TTGlyph>
    <TTGlyph name="Epsilontonos" xMin="-49" yMin="0" xMax="1061" yMax="1583">
      <component glyphName="Epsilon" x="0" y="0" flags="0x200"/>
      <component glyphName="tonos" x="-558" y="0" flags="0x0"/>
    </TTGlyph>
    <TTGlyph name="Eta" xMin="-49" yMin="0" xMax="1061" yMax="1305">
      <contour>
        <pt x="784" y="0" on="1"/>
        <pt x="647" y="0" on="1"/>
        <pt x="774" y="604" on="1"/>
        <pt x="215" y="604" on="1"/>
        <pt x="88" y="0" on="1"/>
        <pt x="-49" y="0" on="1"/>
        <pt x="227" y="1305" on="1"/>
        <pt x="365" y="1305" on="1"/>
        <pt x="240" y="721" on="1"/>
        <pt x="799" y="721" on="1"/>
        <pt x="924" y="1305" on="1"/>
        <pt x="1061" y="1305" on="1"/>
      </contour>
    </TTGlyph>
    <TTGlyph name="Etatonos" xMin="-49" yMin="0" xMax="1061" yMax="1583">
      <component glyphName="tonos" x="-558" y="0" flags="0x200"/>
      <component glyphName="Eta" x="0" y="0" flags="0x0"/>
    </TTGlyph>
    <TTGlyph name="Eth" xMin="-88" yMin="0" xMax="1042" yMax="1305">
      <contour>
        <pt x="1014" y="653" on="1"/>
        <pt x="985" y="518" on="0"/>
        <pt x="877" y="281" on="0"/>
        <pt x="715" y="102" on="0"/>
        <pt x="504" y="0" on="0"/>
        <pt x="375" y="0" on="1"/>
        <pt x="-49" y="0" on="1"/>
        <pt x="78" y="606" on="1"/>
        <pt x="-88" y="606" on="1"/>
        <pt x="-61" y="723" on="1"/>
        <pt x="104" y="723" on="1"/>
        <pt x="227" y="1305" on="1"/>
        <pt x="651" y="1305" on="1"/>
        <pt x="788" y="1305" on="0"/>
        <pt x="956" y="1198" on="0"/>
        <pt x="1038" y="1018" on="0"/>
        <pt x="1042" y="782" on="0"/>
      </contour>
      <contour>
        <pt x="877" y="653" on="1"/>
        <pt x="932" y="909" on="0"/>
        <pt x="799" y="1188" on="0"/>
        <pt x="627" y="1188" on="1"/>
        <pt x="340" y="1188" on="1"/>
        <pt x="242" y="723" on="1"/>
        <pt x="496" y="723" on="1"/>
        <pt x="469" y="606" on="1"/>
        <pt x="215" y="606" on="1"/>
        <pt x="113" y="117" on="1"/>
        <pt x="399" y="117" on="1"/>
        <pt x="571" y="117" on="0"/>
        <pt x="823" y="397" on="0"/>
      </contour>
    </TTGlyph>
    <TTGlyph name="Euro" xMin="-4" yMin="-23" xMax="1044" yMax="1327">
      <contour>
        <pt x="84" y="858" on="1"/>
        <pt x="250" y="858" on="1"/>
        <pt x="285" y="956" on="0"/>
        <pt x="379" y="1126" on="0"/>
        <pt x="504" y="1253" on="0"/>
        <pt x="655" y="1327" on="0"/>
        <pt x="745" y="1327" on="1"/>
        <pt x="885" y="1327" on="0"/>
        <pt x="1034" y="1151" on="0"/>
        <pt x="1044" y="963" on="1"/>
        <pt x="918" y="932" on="1"/>
        <pt x="915" y="1055" on="0"/>
        <pt x="817" y="1210" on="0"/>
        <pt x="725" y="1210" on="1"/>
        <pt x="625" y="1210" on="0"/>
        <pt x="451" y="1034" on="0"/>
        <pt x="387" y="858" on="1"/>
        <pt x="643" y="858" on="1"/>
        <pt x="618" y="745" on="1"/>
        <pt x="350" y="745" on="1"/>
        <pt x="344" y="723" on="0"/>
        <pt x="334" y="676" on="0"/>
        <pt x="328" y="651" on="1"/>
        <pt x="324" y="627" on="0"/>
        <pt x="313" y="582" on="0"/>
        <pt x="311" y="559" on="1"/>
        <pt x="580" y="559" on="1"/>
        <pt x="555" y="446" on="1"/>
        <pt x="299" y="446" on="1"/>
        <pt x="285" y="268" on="0"/>
        <pt x="387" y="94" on="0"/>
        <pt x="487" y="94" on="1"/>
        <pt x="580" y="94" on="0"/>
        <pt x="745" y="252" on="0"/>
        <pt x="799" y="375" on="1"/>
        <pt x="913" y="342" on="1"/>
        <pt x="821" y="154" on="0"/>
        <pt x="598" y="-23" on="0"/>
        <pt x="459" y="-23" on="1"/>
        <pt x="369" y="-23" on="0"/>
        <pt x="248" y="51" on="0"/>
        <pt x="178" y="176" on="0"/>
        <pt x="154" y="348" on="0"/>
        <pt x="160" y="446" on="1"/>
        <pt x="-4" y="446" on="1"/>
        <pt x="20" y="559" on="1"/>
        <pt x="174" y="559" on="1"/>
        <pt x="176" y="582" on="0"/>
        <pt x="186" y="629" on="0"/>
        <pt x="190" y="651" on="1"/>
        <pt x="195" y="674" on="0"/>
        <pt x="207" y="723" on="0"/>
        <pt x="213" y="745" on="1"/>
        <pt x="59" y="745" on="1"/>
      </contour>
    </TTGlyph>
    <TTGlyph name="F" xMin="-49" yMin="0" xMax="1061" yMax="1305">
      <contour>
        <pt x="1036" y="1188" on="1"/>
        <pt x="340" y="1188" on="1"/>
        <pt x="240" y="721" on="1"/>
        <pt x="754" y="721" on="1"/>
        <pt x="729" y="604" on="1"/>
        <pt x="215" y="604" on="1"/>
        <pt x="88" y="0" on="1"/>
        <pt x="-49" y="0" on="1"/>
        <pt x="227" y="1305" on="1"/>
        <pt x="1061" y="1305" on="1"/>
      </contour>
    </TTGlyph>
    <TTGlyph name="G" xMin="-10" yMin="-23" xMax="1110" yMax="1327">
      <contour>
        <pt x="1022" y="649" on="1"/>
        <pt x="993" y="516" on="0"/>
        <pt x="887" y="274" on="0"/>
        <pt x="727" y="88" on="0"/>
        <pt x="512" y="-23" on="0"/>
        <pt x="377" y="-23" on="1"/>
        <pt x="240" y="-23" on="0"/>
        <pt x="74" y="90" on="0"/>
        <pt x="-8" y="276" on="0"/>
        <pt x="-10" y="520" on="0"/>
        <pt x="18" y="651" on="1"/>
        <pt x="47" y="782" on="0"/>
        <pt x="152" y="1026" on="0"/>
        <pt x="313" y="1214" on="0"/>
        <pt x="526" y="1327" on="0"/>
        <pt x="664" y="1327" on="1"/>
        <pt x="784" y="1327" on="0"/>
        <pt x="938" y="1241" on="0"/>
        <pt x="961" y="1153" on="1"/>
        <pt x="993" y="1305" on="1"/>
        <pt x="1110" y="1305" on="1"/>
        <pt x="1018" y="877" on="1"/>
        <pt x="901" y="877" on="1"/>
        <pt x="918" y="948" on="0"/>
        <pt x="891" y="1071" on="0"/>
        <pt x="819" y="1159" on="0"/>
        <pt x="707" y="1210" on="0"/>
        <pt x="639" y="1210" on="1"/>
        <pt x="532" y="1210" on="0"/>
        <pt x="373" y="1110" on="0"/>
        <pt x="254" y="948" on="0"/>
        <pt x="176" y="750" on="0"/>
        <pt x="156" y="651" on="1"/>
        <pt x="135" y="553" on="0"/>
        <pt x="127" y="354" on="0"/>
        <pt x="178" y="195" on="0"/>
        <pt x="295" y="94" on="0"/>
        <pt x="401" y="94" on="1"/>
        <pt x="559" y="94" on="0"/>
        <pt x="795" y="338" on="0"/>
        <pt x="858" y="559" on="1"/>
        <pt x="569" y="559" on="1"/>
        <pt x="594" y="676" on="1"/>
        <pt x="1028" y="676" on="1"/>
      </contour>
    </TTGlyph>
    <TTGlyph name="Gamma" xMin="-49" yMin="0" xMax="1110" yMax="1305">
      <contour>
        <pt x="227" y="1305" on="1"/>
        <pt x="1110" y="1305" on="1"/>
        <pt x="1085" y="1188" on="1"/>
        <pt x="340" y="1188" on="1"/>
        <pt x="88" y="0" on="1"/>
        <pt x="-49" y="0" on="1"/>
      </contour>
    </TTGlyph>
    <TTGlyph name="Gbreve" xMin="-10" yMin="-23" xMax="1110" yMax="1657">
      <component glyphName="G" x="0" y="0" flags="0x204"/>
      <component glyphName="breve" x="80" y="371" flags="0x4"/>
    </TTGlyph>
    <TTGlyph name="Gcircumflex" xMin="-10" yMin="-23" xMax="1110" yMax="1739">
      <component glyphName="G" x="0" y="0" flags="0x204"/>
      <component glyphName="circumflex" x="80" y="371" flags="0x4"/>
    </TTGlyph>
    <TTGlyph name="Gcommaaccent" xMin="-10" yMin="-373" xMax="1110" yMax="1327">
      <component glyphName="G" x="0" y="0" flags="0x204"/>
      <component glyphName="commaaccent" x="0" y="0" flags="0x4"/>
    </TTGlyph>
    <TTGlyph name="Gdotaccent" xMin="-10" yMin="-23" xMax="1110" yMax="1676">
      <component glyphName="G" x="0" y="0" flags="0x204"/>
      <component glyphName="dotaccent" x="80" y="371" flags="0x4"/>
    </TTGlyph>
    <TTGlyph name="H" xMin="-49" yMin="0" xMax="1061" yMax="1305">
      <contour>
        <pt x="784" y="0" on="1"/>
        <pt x="647" y="0" on="1"/>
        <pt x="774" y="604" on="1"/>
        <pt x="215" y="604" on="1"/>
        <pt x="88" y="0" on="1"/>
        <pt x="-49" y="0" on="1"/>
        <pt x="227" y="1305" on="1"/>
        <pt x="365" y="1305" on="1"/>
        <pt x="240" y="721" on="1"/>
        <pt x="799" y="721" on="1"/>
        <pt x="924" y="1305" on="1"/>
        <pt x="1061" y="1305" on="1"/>
      </contour>
    </TTGlyph>
    <TTGlyph name="Hbar" xMin="-49" yMin="0" xMax="1204" yMax="1305">
      <contour>
        <pt x="1016" y="1096" on="1"/>
        <pt x="1204" y="1096" on="1"/>
        <pt x="1182" y="983" on="1"/>
        <pt x="993" y="983" on="1"/>
        <pt x="784" y="0" on="1"/>
        <pt x="647" y="0" on="1"/>
        <pt x="774" y="604" on="1"/>
        <pt x="215" y="604" on="1"/>
        <pt x="88" y="0" on="1"/>
        <pt x="-49" y="0" on="1"/>
        <pt x="160" y="983" on="1"/>
        <pt x="-27" y="983" on="1"/>
        <pt x="-4" y="1096" on="1"/>
        <pt x="182" y="1096" on="1"/>
        <pt x="227" y="1305" on="1"/>
        <pt x="365" y="1305" on="1"/>
        <pt x="319" y="1096" on="1"/>
        <pt x="879" y="1096" on="1"/>
        <pt x="924" y="1305" on="1"/>
        <pt x="1061" y="1305" on="1"/>
      </contour>
      <contour>
        <pt x="799" y="721" on="1"/>
        <pt x="856" y="983" on="1"/>
        <pt x="297" y="983" on="1"/>
        <pt x="240" y="721" on="1"/>
      </contour>
    </TTGlyph>
    <TTGlyph name="Hcircumflex" xMin="-49" yMin="0" xMax="1061" yMax="1739">
      <component glyphName="H" x="0" y="0" flags="0x204"/>
      <component glyphName="circumflex" x="80" y="371" flags="0x4"/>
    </TTGlyph>
    <TTGlyph name="I" xMin="88" yMin="0" xMax="924" yMax="1305">
      <contour>
        <pt x="647" y="0" on="1"/>
        <pt x="88" y="0" on="1"/>
        <pt x="113" y="117" on="1"/>
        <pt x="324" y="117" on="1"/>
        <pt x="551" y="1188" on="1"/>
        <pt x="340" y="1188" on="1"/>
        <pt x="365" y="1305" on="1"/>
        <pt x="924" y="1305" on="1"/>
        <pt x="899" y="1188" on="1"/>
        <pt x="688" y="1188" on="1"/>
        <pt x="461" y="117" on="1"/>
        <pt x="672" y="117" on="1"/>
      </contour>
    </TTGlyph>
    <TTGlyph name="IJ" xMin="-98" yMin="-395" xMax="1110" yMax="1305">
      <contour>
        <pt x="121" y="-170" on="1"/>
        <pt x="158" y="-227" on="0"/>
        <pt x="274" y="-279" on="0"/>
        <pt x="346" y="-279" on="1"/>
        <pt x="438" y="-279" on="0"/>
        <pt x="567" y="-205" on="0"/>
        <pt x="653" y="-90" on="0"/>
        <pt x="707" y="53" on="0"/>
        <pt x="721" y="125" on="1"/>
        <pt x="973" y="1305" on="1"/>
        <pt x="1110" y="1305" on="1"/>
        <pt x="858" y="125" on="1"/>
        <pt x="807" y="-123" on="0"/>
        <pt x="537" y="-395" on="0"/>
        <pt x="319" y="-395" on="1"/>
        <pt x="109" y="-395" on="0"/>
        <pt x="14" y="-266" on="1"/>
      </contour>
      <contour>
        <pt x="461" y="0" on="1"/>
        <pt x="-98" y="0" on="1"/>
        <pt x="-73" y="117" on="1"/>
        <pt x="138" y="117" on="1"/>
        <pt x="365" y="1188" on="1"/>
        <pt x="154" y="1188" on="1"/>
        <pt x="179" y="1305" on="1"/>
        <pt x="738" y="1305" on="1"/>
        <pt x="713" y="1188" on="1"/>
        <pt x="502" y="1188" on="1"/>
        <pt x="275" y="117" on="1"/>
        <pt x="486" y="117" on="1"/>
      </contour>
    </TTGlyph>
    <TTGlyph name="Iacute" xMin="88" yMin="0" xMax="959" yMax="1735">
      <component glyphName="I" x="0" y="0" flags="0x204"/>
      <component glyphName="acute" x="80" y="371" flags="0x4"/>
    </TTGlyph>
    <TTGlyph name="Ibreve" xMin="88" yMin="0" xMax="989" yMax="1657">
      <component glyphName="I" x="0" y="0" flags="0x204"/>
      <component glyphName="breve" x="80" y="371" flags="0x4"/>
    </TTGlyph>
    <TTGlyph name="Icircumflex" xMin="88" yMin="0" xMax="975" yMax="1739">
      <component glyphName="I" x="0" y="0" flags="0x204"/>
      <component glyphName="circumflex" x="80" y="371" flags="0x4"/>
    </TTGlyph>
    <TTGlyph name="Idieresis" xMin="88" yMin="0" xMax="1004" yMax="1676">
      <component glyphName="I" x="0" y="0" flags="0x204"/>
      <component glyphName="dieresis" x="80" y="371" flags="0x4"/>
    </TTGlyph>
    <TTGlyph name="Idotaccent" xMin="88" yMin="0" xMax="924" yMax="1676">
      <component glyphName="I" x="0" y="0" flags="0x204"/>
      <component glyphName="dotaccent" x="80" y="371" flags="0x4"/>
    </TTGlyph>
    <TTGlyph name="Igrave" xMin="88" yMin="0" xMax="924" yMax="1737">
      <component glyphName="I" x="0" y="0" flags="0x204"/>
      <component glyphName="grave" x="80" y="373" flags="0x4"/>
    </TTGlyph>
    <TTGlyph name="Imacron" xMin="88" yMin="0" xMax="985" yMax="1590">
      <component glyphName="I" x="0" y="0" flags="0x204"/>
      <component glyphName="macron" x="80" y="371" flags="0x4"/>
    </TTGlyph>
    <TTGlyph name="Iogonek" xMin="88" yMin="-379" xMax="924" yMax="1305">
      <contour>
        <pt x="705" y="-379" on="1"/>
        <pt x="580" y="-379" on="0"/>
        <pt x="463" y="-254" on="0"/>
        <pt x="485" y="-152" on="1"/>
        <pt x="496" y="-104" on="0"/>
        <pt x="543" y="-29" on="0"/>
        <pt x="571" y="0" on="1"/>
        <pt x="88" y="0" on="1"/>
        <pt x="113" y="117" on="1"/>
        <pt x="324" y="117" on="1"/>
        <pt x="551" y="1188" on="1"/>
        <pt x="340" y="1188" on="1"/>
        <pt x="365" y="1305" on="1"/>
        <pt x="924" y="1305" on="1"/>
        <pt x="899" y="1188" on="1"/>
        <pt x="688" y="1188" on="1"/>
        <pt x="461" y="117" on="1"/>
        <pt x="672" y="117" on="1"/>
        <pt x="647" y="0" on="1"/>
        <pt x="588" y="-45" on="0"/>
        <pt x="571" y="-121" on="1"/>
        <pt x="557" y="-193" on="0"/>
        <pt x="645" y="-289" on="0"/>
        <pt x="725" y="-289" on="1"/>
      </contour>
    </TTGlyph>
    <TTGlyph name="Iota" xMin="88" yMin="0" xMax="924" yMax="1305">
      <contour>
        <pt x="647" y="0" on="1"/>
        <pt x="88" y="0" on="1"/>
        <pt x="113" y="117" on="1"/>
        <pt x="324" y="117" on="1"/>
        <pt x="551" y="1188" on="1"/>
        <pt x="340" y="1188" on="1"/>
        <pt x="365" y="1305" on="1"/>
        <pt x="924" y="1305" on="1"/>
        <pt x="899" y="1188" on="1"/>
        <pt x="688" y="1188" on="1"/>
        <pt x="461" y="117" on="1"/>
        <pt x="672" y="117" on="1"/>
      </contour>
    </TTGlyph>
    <TTGlyph name="Iotadieresis" xMin="88" yMin="0" xMax="1004" yMax="1678">
      <component glyphName="Iota" x="0" y="0" flags="0x200"/>
      <component glyphName="dieresis" x="80" y="373" flags="0x0"/>
    </TTGlyph>
    <TTGlyph name="Iotatonos" xMin="88" yMin="0" xMax="924" yMax="1583">
      <component glyphName="tonos" x="-374" y="0" flags="0x200"/>
      <component glyphName="Iota" x="0" y="0" flags="0x0"/>
    </TTGlyph>
    <TTGlyph name="Itilde" xMin="88" yMin="0" xMax="1088" yMax="1651">
      <component glyphName="I" x="0" y="0" flags="0x204"/>
      <component glyphName="tilde" x="80" y="371" flags="0x4"/>
    </TTGlyph>
    <TTGlyph name="J" xMin="-29" yMin="-23" xMax="1061" yMax="1305">
      <contour>
        <pt x="889" y="498" on="1"/>
        <pt x="836" y="250" on="0"/>
        <pt x="567" y="-23" on="0"/>
        <pt x="350" y="-23" on="1"/>
        <pt x="176" y="-23" on="0"/>
        <pt x="-20" y="160" on="0"/>
        <pt x="-29" y="342" on="1"/>
        <pt x="100" y="387" on="1"/>
        <pt x="109" y="225" on="0"/>
        <pt x="250" y="94" on="0"/>
        <pt x="375" y="94" on="1"/>
        <pt x="467" y="94" on="0"/>
        <pt x="598" y="168" on="0"/>
        <pt x="684" y="283" on="0"/>
        <pt x="737" y="426" on="0"/>
        <pt x="752" y="498" on="1"/>
        <pt x="924" y="1305" on="1"/>
        <pt x="1061" y="1305" on="1"/>
      </contour>
    </TTGlyph>
    <TTGlyph name="Jcircumflex" xMin="-29" yMin="-23" xMax="1061" yMax="1739">
      <component glyphName="J" x="0" y="0" flags="0x204"/>
      <component glyphName="circumflex" x="80" y="371" flags="0x4"/>
    </TTGlyph>
    <TTGlyph name="K" xMin="-49" yMin="0" xMax="1104" yMax="1305">
      <contour>
        <pt x="827" y="0" on="1"/>
        <pt x="659" y="0" on="1"/>
        <pt x="360" y="639" on="1"/>
        <pt x="190" y="485" on="1"/>
        <pt x="88" y="0" on="1"/>
        <pt x="-49" y="0" on="1"/>
        <pt x="227" y="1305" on="1"/>
        <pt x="365" y="1305" on="1"/>
        <pt x="229" y="670" on="1"/>
        <pt x="924" y="1305" on="1"/>
        <pt x="1104" y="1305" on="1"/>
        <pt x="471" y="735" on="1"/>
      </contour>
    </TTGlyph>
    <TTGlyph name="Kappa" xMin="-49" yMin="0" xMax="1104" yMax="1305">
      <contour>
        <pt x="827" y="0" on="1"/>
        <pt x="659" y="0" on="1"/>
        <pt x="360" y="639" on="1"/>
        <pt x="190" y="485" on="1"/>
        <pt x="88" y="0" on="1"/>
        <pt x="-49" y="0" on="1"/>
        <pt x="227" y="1305" on="1"/>
        <pt x="365" y="1305" on="1"/>
        <pt x="229" y="670" on="1"/>
        <pt x="924" y="1305" on="1"/>
        <pt x="1104" y="1305" on="1"/>
        <pt x="471" y="735" on="1"/>
      </contour>
    </TTGlyph>
    <TTGlyph name="Kcommaaccent" xMin="-49" yMin="-373" xMax="1104" yMax="1305">
      <component glyphName="K" x="0" y="0" flags="0x204"/>
      <component glyphName="commaaccent" x="0" y="0" flags="0x4"/>
    </TTGlyph>
    <TTGlyph name="L" xMin="-49" yMin="0" xMax="809" yMax="1305">
      <contour>
        <pt x="784" y="0" on="1"/>
        <pt x="-49" y="0" on="1"/>
        <pt x="227" y="1305" on="1"/>
        <pt x="365" y="1305" on="1"/>
        <pt x="113" y="117" on="1"/>
        <pt x="809" y="117" on="1"/>
      </contour>
    </TTGlyph>
    <TTGlyph name="Lacute" xMin="-49" yMin="0" xMax="959" yMax="1735">
      <component glyphName="L" x="0" y="0" flags="0x204"/>
      <component glyphName="acute" x="80" y="371" flags="0x4"/>
    </TTGlyph>
    <TTGlyph name="Lambda" xMin="-158" yMin="0" xMax="897" yMax="1305">
      <contour>
        <pt x="750" y="0" on="1"/>
        <pt x="614" y="1165" on="1"/>
        <pt x="-10" y="0" on="1"/>
        <pt x="-158" y="0" on="1"/>
        <pt x="553" y="1305" on="1"/>
        <pt x="739" y="1305" on="1"/>
        <pt x="897" y="0" on="1"/>
      </contour>
    </TTGlyph>
    <TTGlyph name="Lcaron" xMin="-49" yMin="0" xMax="981" yMax="1305">
      <component glyphName="L" x="0" y="0" flags="0x204"/>
      <component glyphName="tonos" x="162" y="-278" flags="0x4"/>
    </TTGlyph>
    <TTGlyph name="Lcommaaccent" xMin="-49" yMin="-373" xMax="809" yMax="1305">
      <component glyphName="L" x="0" y="0" flags="0x204"/>
      <component glyphName="commaaccent" x="0" y="0" flags="0x4"/>
    </TTGlyph>
    <TTGlyph name="Ldot" xMin="-49" yMin="0" xMax="809" yMax="1305">
      <component glyphName="L" x="0" y="0" flags="0x204"/>
      <component glyphName="periodcentered" x="227" y="186" flags="0x4"/>
    </TTGlyph>
    <TTGlyph name="Lslash" xMin="-154" yMin="0" xMax="809" yMax="1305">
      <contour>
        <pt x="784" y="0" on="1"/>
        <pt x="-49" y="0" on="1"/>
        <pt x="70" y="563" on="1"/>
        <pt x="-154" y="494" on="1"/>
        <pt x="-127" y="621" on="1"/>
        <pt x="96" y="690" on="1"/>
        <pt x="227" y="1305" on="1"/>
        <pt x="365" y="1305" on="1"/>
        <pt x="244" y="737" on="1"/>
        <pt x="469" y="807" on="1"/>
        <pt x="442" y="680" on="1"/>
        <pt x="217" y="610" on="1"/>
        <pt x="113" y="119" on="1"/>
        <pt x="809" y="119" on="1"/>
      </contour>
    </TTGlyph>
    <TTGlyph name="M" xMin="-49" yMin="0" xMax="1061" yMax="1305">
      <contour>
        <pt x="784" y="0" on="1"/>
        <pt x="647" y="0" on="1"/>
        <pt x="877" y="1087" on="1"/>
        <pt x="502" y="414" on="1"/>
        <pt x="403" y="414" on="1"/>
        <pt x="317" y="1087" on="1"/>
        <pt x="88" y="0" on="1"/>
        <pt x="-49" y="0" on="1"/>
        <pt x="227" y="1305" on="1"/>
        <pt x="406" y="1305" on="1"/>
        <pt x="498" y="623" on="1"/>
        <pt x="883" y="1305" on="1"/>
        <pt x="1061" y="1305" on="1"/>
      </contour>
    </TTGlyph>
    <TTGlyph name="Mu" xMin="-49" yMin="0" xMax="1061" yMax="1305">
      <contour>
        <pt x="784" y="0" on="1"/>
        <pt x="647" y="0" on="1"/>
        <pt x="877" y="1087" on="1"/>
        <pt x="502" y="414" on="1"/>
        <pt x="403" y="414" on="1"/>
        <pt x="317" y="1087" on="1"/>
        <pt x="88" y="0" on="1"/>
        <pt x="-49" y="0" on="1"/>
        <pt x="227" y="1305" on="1"/>
        <pt x="406" y="1305" on="1"/>
        <pt x="498" y="623" on="1"/>
        <pt x="883" y="1305" on="1"/>
        <pt x="1061" y="1305" on="1"/>
      </contour>
    </TTGlyph>
    <TTGlyph name="N" xMin="-49" yMin="0" xMax="1061" yMax="1305">
      <contour>
        <pt x="784" y="0" on="1"/>
        <pt x="614" y="0" on="1"/>
        <pt x="322" y="1104" on="1"/>
        <pt x="88" y="0" on="1"/>
        <pt x="-49" y="0" on="1"/>
        <pt x="227" y="1305" on="1"/>
        <pt x="420" y="1305" on="1"/>
        <pt x="700" y="252" on="1"/>
        <pt x="924" y="1305" on="1"/>
        <pt x="1061" y="1305" on="1"/>
      </contour>
    </TTGlyph>
    <TTGlyph name="Nacute" xMin="-49" yMin="0" xMax="1061" yMax="1735">
      <component glyphName="N" x="0" y="0" flags="0x204"/>
      <component glyphName="acute" x="80" y="371" flags="0x4"/>
    </TTGlyph>
    <TTGlyph name="Ncaron" xMin="-49" yMin="0" xMax="1061" yMax="1739">
      <component glyphName="N" x="0" y="0" flags="0x204"/>
      <component glyphName="caron" x="80" y="371" flags="0x4"/>
    </TTGlyph>
    <TTGlyph name="Ncommaaccent" xMin="-49" yMin="-373" xMax="1061" yMax="1305">
      <component glyphName="N" x="0" y="0" flags="0x204"/>
      <component glyphName="commaaccent" x="0" y="0" flags="0x4"/>
    </TTGlyph>
    <TTGlyph name="Ntilde" xMin="-49" yMin="0" xMax="1088" yMax="1651">
      <component glyphName="N" x="0" y="0" flags="0x204"/>
      <component glyphName="tilde" x="80" y="371" flags="0x4"/>
    </TTGlyph>
    <TTGlyph name="Nu" xMin="-49" yMin="0" xMax="1061" yMax="1305">
      <contour>
        <pt x="784" y="0" on="1"/>
        <pt x="614" y="0" on="1"/>
        <pt x="322" y="1104" on="1"/>
        <pt x="88" y="0" on="1"/>
        <pt x="-49" y="0" on="1"/>
        <pt x="227" y="1305" on="1"/>
        <pt x="420" y="1305" on="1"/>
        <pt x="700" y="252" on="1"/>
        <pt x="924" y="1305" on="1"/>
        <pt x="1061" y="1305" on="1"/>
      </contour>
    </TTGlyph>
    <TTGlyph name="O" xMin="-23" yMin="-23" xMax="1034" yMax="1327">
      <contour>
        <pt x="1006" y="651" on="1"/>
        <pt x="977" y="520" on="0"/>
        <pt x="872" y="276" on="0"/>
        <pt x="715" y="90" on="0"/>
        <pt x="500" y="-23" on="0"/>
        <pt x="362" y="-23" on="1"/>
        <pt x="225" y="-23" on="0"/>
        <pt x="59" y="90" on="0"/>
        <pt x="-20" y="276" on="0"/>
        <pt x="-23" y="520" on="0"/>
        <pt x="6" y="651" on="1"/>
        <pt x="35" y="782" on="0"/>
        <pt x="139" y="1026" on="0"/>
        <pt x="301" y="1214" on="0"/>
        <pt x="514" y="1327" on="0"/>
        <pt x="649" y="1327" on="1"/>
        <pt x="784" y="1327" on="0"/>
        <pt x="952" y="1214" on="0"/>
        <pt x="1030" y="1026" on="0"/>
        <pt x="1034" y="782" on="0"/>
      </contour>
      <contour>
        <pt x="868" y="651" on="1"/>
        <pt x="895" y="780" on="0"/>
        <pt x="891" y="987" on="0"/>
        <pt x="829" y="1133" on="0"/>
        <pt x="711" y="1210" on="0"/>
        <pt x="625" y="1210" on="1"/>
        <pt x="518" y="1210" on="0"/>
        <pt x="358" y="1110" on="0"/>
        <pt x="240" y="948" on="0"/>
        <pt x="164" y="750" on="0"/>
        <pt x="143" y="651" on="1"/>
        <pt x="123" y="553" on="0"/>
        <pt x="113" y="354" on="0"/>
        <pt x="164" y="195" on="0"/>
        <pt x="281" y="94" on="0"/>
        <pt x="387" y="94" on="1"/>
        <pt x="494" y="94" on="0"/>
        <pt x="655" y="195" on="0"/>
        <pt x="772" y="354" on="0"/>
        <pt x="848" y="553" on="0"/>
      </contour>
    </TTGlyph>
    <TTGlyph name="OE" xMin="-117" yMin="-23" xMax="1110" yMax="1327">
      <contour>
        <pt x="461" y="651" on="1"/>
        <pt x="487" y="774" on="0"/>
        <pt x="520" y="981" on="0"/>
        <pt x="520" y="1128" on="0"/>
        <pt x="479" y="1210" on="0"/>
        <pt x="432" y="1210" on="1"/>
        <pt x="385" y="1210" on="0"/>
        <pt x="309" y="1128" on="0"/>
        <pt x="244" y="981" on="0"/>
        <pt x="188" y="774" on="0"/>
        <pt x="162" y="651" on="1"/>
        <pt x="135" y="528" on="0"/>
        <pt x="104" y="324" on="0"/>
        <pt x="106" y="176" on="0"/>
        <pt x="147" y="94" on="0"/>
        <pt x="195" y="94" on="1"/>
        <pt x="242" y="94" on="0"/>
        <pt x="317" y="176" on="0"/>
        <pt x="381" y="324" on="0"/>
        <pt x="434" y="528" on="0"/>
      </contour>
      <contour>
        <pt x="170" y="-23" on="1"/>
        <pt x="-117" y="-23" on="0"/>
        <pt x="25" y="651" on="1"/>
        <pt x="168" y="1327" on="0"/>
        <pt x="457" y="1327" on="1"/>
        <pt x="530" y="1327" on="0"/>
        <pt x="586" y="1251" on="0"/>
        <pt x="598" y="1171" on="1"/>
        <pt x="627" y="1305" on="1"/>
        <pt x="1110" y="1305" on="1"/>
        <pt x="1085" y="1188" on="1"/>
        <pt x="713" y="1188" on="1"/>
        <pt x="612" y="721" on="1"/>
        <pt x="895" y="721" on="1"/>
        <pt x="870" y="604" on="1"/>
        <pt x="588" y="604" on="1"/>
        <pt x="485" y="117" on="1"/>
        <pt x="858" y="117" on="1"/>
        <pt x="834" y="0" on="1"/>
        <pt x="350" y="0" on="1"/>
        <pt x="377" y="133" on="1"/>
        <pt x="332" y="53" on="0"/>
        <pt x="244" y="-23" on="0"/>
      </contour>
    </TTGlyph>
    <TTGlyph name="Oacute" xMin="-23" yMin="-23" xMax="1034" yMax="1735">
      <component glyphName="O" x="0" y="0" flags="0x204"/>
      <component glyphName="acute" x="80" y="371" flags="0x4"/>
    </TTGlyph>
    <TTGlyph name="Obreve" xMin="-23" yMin="-23" xMax="1034" yMax="1657">
      <component glyphName="O" x="0" y="0" flags="0x204"/>
      <component glyphName="breve" x="80" y="371" flags="0x4"/>
    </TTGlyph>
    <TTGlyph name="Ocircumflex" xMin="-23" yMin="-23" xMax="1034" yMax="1739">
      <component glyphName="O" x="0" y="0" flags="0x204"/>
      <component glyphName="circumflex" x="80" y="371" flags="0x4"/>
    </TTGlyph>
    <TTGlyph name="Odieresis" xMin="-23" yMin="-23" xMax="1034" yMax="1676">
      <component glyphName="O" x="0" y="0" flags="0x204"/>
      <component glyphName="dieresis" x="80" y="371" flags="0x4"/>
    </TTGlyph>
    <TTGlyph name="Ograve" xMin="-23" yMin="-23" xMax="1034" yMax="1737">
      <component glyphName="O" x="0" y="0" flags="0x204"/>
      <component glyphName="grave" x="80" y="373" flags="0x4"/>
    </TTGlyph>
    <TTGlyph name="Ohungarumlaut" xMin="-23" yMin="-23" xMax="1147" yMax="1770">
      <component glyphName="O" x="0" y="0" flags="0x204"/>
      <component glyphName="hungarumlaut" x="80" y="371" flags="0x4"/>
    </TTGlyph>
    <TTGlyph name="Omacron" xMin="-23" yMin="-23" xMax="1034" yMax="1590">
      <component glyphName="O" x="0" y="0" flags="0x204"/>
      <component glyphName="macron" x="80" y="371" flags="0x4"/>
    </TTGlyph>
    <TTGlyph name="Omega" xMin="-98" yMin="0" xMax="1038" yMax="1327">
      <contour>
        <pt x="1014" y="741" on="1"/>
        <pt x="983" y="596" on="0"/>
        <pt x="815" y="324" on="0"/>
        <pt x="672" y="231" on="1"/>
        <pt x="647" y="117" on="1"/>
        <pt x="858" y="117" on="1"/>
        <pt x="834" y="0" on="1"/>
        <pt x="485" y="0" on="1"/>
        <pt x="547" y="291" on="1"/>
        <pt x="618" y="317" on="0"/>
        <pt x="731" y="420" on="0"/>
        <pt x="813" y="543" on="0"/>
        <pt x="864" y="678" on="0"/>
        <pt x="877" y="741" on="1"/>
        <pt x="895" y="823" on="0"/>
        <pt x="891" y="991" on="0"/>
        <pt x="836" y="1128" on="0"/>
        <pt x="721" y="1214" on="0"/>
        <pt x="627" y="1214" on="1"/>
        <pt x="537" y="1214" on="0"/>
        <pt x="385" y="1128" on="0"/>
        <pt x="268" y="991" on="0"/>
        <pt x="193" y="823" on="0"/>
        <pt x="174" y="741" on="1"/>
        <pt x="162" y="678" on="0"/>
        <pt x="156" y="543" on="0"/>
        <pt x="182" y="420" on="0"/>
        <pt x="248" y="317" on="0"/>
        <pt x="311" y="291" on="1"/>
        <pt x="250" y="0" on="1"/>
        <pt x="-98" y="0" on="1"/>
        <pt x="-74" y="117" on="1"/>
        <pt x="137" y="117" on="1"/>
        <pt x="162" y="231" on="1"/>
        <pt x="57" y="317" on="0"/>
        <pt x="6" y="592" on="0"/>
        <pt x="37" y="741" on="1"/>
        <pt x="61" y="854" on="0"/>
        <pt x="170" y="1067" on="0"/>
        <pt x="328" y="1229" on="0"/>
        <pt x="530" y="1327" on="0"/>
        <pt x="649" y="1327" on="1"/>
        <pt x="768" y="1327" on="0"/>
        <pt x="930" y="1229" on="0"/>
        <pt x="1020" y="1067" on="0"/>
        <pt x="1038" y="854" on="0"/>
      </contour>
    </TTGlyph>
    <TTGlyph name="Omegatonos" xMin="-98" yMin="0" xMax="1038" yMax="1583">
      <component glyphName="Omega" x="0" y="0" flags="0x200"/>
      <component glyphName="tonos" x="-562" y="0" flags="0x0"/>
    </TTGlyph>
    <TTGlyph name="Omicron" xMin="-23" yMin="-23" xMax="1034" yMax="1327">
      <contour>
        <pt x="1006" y="651" on="1"/>
        <pt x="977" y="520" on="0"/>
        <pt x="872" y="276" on="0"/>
        <pt x="715" y="90" on="0"/>
        <pt x="500" y="-23" on="0"/>
        <pt x="362" y="-23" on="1"/>
        <pt x="225" y="-23" on="0"/>
        <pt x="59" y="90" on="0"/>
        <pt x="-20" y="276" on="0"/>
        <pt x="-23" y="520" on="0"/>
        <pt x="6" y="651" on="1"/>
        <pt x="35" y="782" on="0"/>
        <pt x="139" y="1026" on="0"/>
        <pt x="301" y="1214" on="0"/>
        <pt x="514" y="1327" on="0"/>
        <pt x="649" y="1327" on="1"/>
        <pt x="784" y="1327" on="0"/>
        <pt x="952" y="1214" on="0"/>
        <pt x="1030" y="1026" on="0"/>
        <pt x="1034" y="782" on="0"/>
      </contour>
      <contour>
        <pt x="868" y="651" on="1"/>
        <pt x="895" y="780" on="0"/>
        <pt x="891" y="987" on="0"/>
        <pt x="829" y="1133" on="0"/>
        <pt x="711" y="1210" on="0"/>
        <pt x="625" y="1210" on="1"/>
        <pt x="518" y="1210" on="0"/>
        <pt x="358" y="1110" on="0"/>
        <pt x="240" y="948" on="0"/>
        <pt x="164" y="750" on="0"/>
        <pt x="143" y="651" on="1"/>
        <pt x="123" y="553" on="0"/>
        <pt x="113" y="354" on="0"/>
        <pt x="164" y="195" on="0"/>
        <pt x="281" y="94" on="0"/>
        <pt x="387" y="94" on="1"/>
        <pt x="494" y="94" on="0"/>
        <pt x="655" y="195" on="0"/>
        <pt x="772" y="354" on="0"/>
        <pt x="848" y="553" on="0"/>
      </contour>
    </TTGlyph>
    <TTGlyph name="Omicrontonos" xMin="-25" yMin="-23" xMax="1034" yMax="1583">
      <component glyphName="Omicron" x="0" y="0" flags="0x200"/>
      <component glyphName="tonos" x="-562" y="0" flags="0x0"/>
    </TTGlyph>
    <TTGlyph name="Oslash" xMin="-137" yMin="-23" xMax="1151" yMax="1327">
      <contour>
        <pt x="-102" y="188" on="1"/>
        <pt x="-8" y="272" on="1"/>
        <pt x="-27" y="356" on="0"/>
        <pt x="-16" y="547" on="0"/>
        <pt x="6" y="651" on="1"/>
        <pt x="35" y="782" on="0"/>
        <pt x="139" y="1026" on="0"/>
        <pt x="301" y="1214" on="0"/>
        <pt x="514" y="1327" on="0"/>
        <pt x="649" y="1327" on="1"/>
        <pt x="780" y="1327" on="0"/>
        <pt x="944" y="1221" on="0"/>
        <pt x="985" y="1130" on="1"/>
        <pt x="1151" y="1276" on="1"/>
        <pt x="1116" y="1116" on="1"/>
        <pt x="1016" y="1030" on="1"/>
        <pt x="1034" y="946" on="0"/>
        <pt x="1028" y="756" on="0"/>
        <pt x="1006" y="651" on="1"/>
        <pt x="977" y="520" on="0"/>
        <pt x="872" y="276" on="0"/>
        <pt x="715" y="90" on="0"/>
        <pt x="500" y="-23" on="0"/>
        <pt x="362" y="-23" on="1"/>
        <pt x="227" y="-23" on="0"/>
        <pt x="66" y="80" on="0"/>
        <pt x="25" y="170" on="1"/>
        <pt x="-137" y="29" on="1"/>
      </contour>
      <contour>
        <pt x="868" y="651" on="1"/>
        <pt x="901" y="801" on="0"/>
        <pt x="891" y="922" on="1"/>
        <pt x="137" y="268" on="1"/>
        <pt x="162" y="190" on="0"/>
        <pt x="281" y="94" on="0"/>
        <pt x="387" y="94" on="1"/>
        <pt x="494" y="94" on="0"/>
        <pt x="655" y="195" on="0"/>
        <pt x="772" y="354" on="0"/>
        <pt x="848" y="553" on="0"/>
      </contour>
      <contour>
        <pt x="143" y="651" on="1"/>
        <pt x="129" y="582" on="0"/>
        <pt x="115" y="444" on="0"/>
        <pt x="119" y="381" on="1"/>
        <pt x="870" y="1032" on="1"/>
        <pt x="842" y="1118" on="0"/>
        <pt x="719" y="1210" on="0"/>
        <pt x="625" y="1210" on="1"/>
        <pt x="518" y="1210" on="0"/>
        <pt x="358" y="1110" on="0"/>
        <pt x="240" y="948" on="0"/>
        <pt x="164" y="750" on="0"/>
      </contour>
    </TTGlyph>
    <TTGlyph name="Oslashacute" xMin="-137" yMin="-23" xMax="1151" yMax="1739">
      <component glyphName="Oslash" x="0" y="0" flags="0x204"/>
      <component glyphName="acute" x="80" y="375" flags="0x4"/>
    </TTGlyph>
    <TTGlyph name="Otilde" xMin="-23" yMin="-23" xMax="1088" yMax="1651">
      <component glyphName="O" x="0" y="0" flags="0x204"/>
      <component glyphName="tilde" x="80" y="371" flags="0x4"/>
    </TTGlyph>
    <TTGlyph name="P" xMin="-49" yMin="0" xMax="1069" yMax="1305">
      <contour>
        <pt x="1028" y="932" on="1"/>
        <pt x="989" y="743" on="0"/>
        <pt x="715" y="559" on="0"/>
        <pt x="502" y="559" on="1"/>
        <pt x="207" y="559" on="1"/>
        <pt x="88" y="0" on="1"/>
        <pt x="-49" y="0" on="1"/>
        <pt x="227" y="1305" on="1"/>
        <pt x="657" y="1305" on="1"/>
        <pt x="872" y="1305" on="0"/>
        <pt x="1069" y="1118" on="0"/>
      </contour>
      <contour>
        <pt x="891" y="932" on="1"/>
        <pt x="920" y="1067" on="0"/>
        <pt x="776" y="1188" on="0"/>
        <pt x="635" y="1188" on="1"/>
        <pt x="340" y="1188" on="1"/>
        <pt x="231" y="676" on="1"/>
        <pt x="526" y="676" on="1"/>
        <pt x="668" y="676" on="0"/>
        <pt x="862" y="797" on="0"/>
      </contour>
    </TTGlyph>
    <TTGlyph name="Phi" xMin="-2" yMin="0" xMax="1018" yMax="1305">
      <contour>
        <pt x="997" y="655" on="1"/>
        <pt x="975" y="557" on="0"/>
        <pt x="879" y="389" on="0"/>
        <pt x="741" y="262" on="0"/>
        <pt x="567" y="182" on="0"/>
        <pt x="471" y="172" on="1"/>
        <pt x="436" y="0" on="1"/>
        <pt x="299" y="0" on="1"/>
        <pt x="336" y="174" on="1"/>
        <pt x="244" y="184" on="0"/>
        <pt x="106" y="264" on="0"/>
        <pt x="23" y="389" on="0"/>
        <pt x="-2" y="557" on="0"/>
        <pt x="20" y="655" on="1"/>
        <pt x="41" y="754" on="0"/>
        <pt x="135" y="922" on="0"/>
        <pt x="274" y="1051" on="0"/>
        <pt x="444" y="1130" on="0"/>
        <pt x="541" y="1143" on="1"/>
        <pt x="575" y="1305" on="1"/>
        <pt x="713" y="1305" on="1"/>
        <pt x="678" y="1143" on="1"/>
        <pt x="770" y="1133" on="0"/>
        <pt x="909" y="1051" on="0"/>
        <pt x="991" y="924" on="0"/>
        <pt x="1018" y="754" on="0"/>
      </contour>
      <contour>
        <pt x="860" y="655" on="1"/>
        <pt x="874" y="725" on="0"/>
        <pt x="862" y="850" on="0"/>
        <pt x="811" y="948" on="0"/>
        <pt x="719" y="1012" on="0"/>
        <pt x="653" y="1024" on="1"/>
        <pt x="498" y="293" on="1"/>
        <pt x="637" y="315" on="0"/>
        <pt x="829" y="514" on="0"/>
      </contour>
      <contour>
        <pt x="158" y="655" on="1"/>
        <pt x="127" y="514" on="0"/>
        <pt x="229" y="315" on="0"/>
        <pt x="360" y="293" on="1"/>
        <pt x="516" y="1024" on="1"/>
        <pt x="446" y="1012" on="0"/>
        <pt x="328" y="946" on="0"/>
        <pt x="236" y="850" on="0"/>
        <pt x="172" y="725" on="0"/>
      </contour>
    </TTGlyph>
    <TTGlyph name="Pi" xMin="-49" yMin="0" xMax="1061" yMax="1305">
      <contour>
        <pt x="784" y="0" on="1"/>
        <pt x="647" y="0" on="1"/>
        <pt x="899" y="1188" on="1"/>
        <pt x="340" y="1188" on="1"/>
        <pt x="88" y="0" on="1"/>
        <pt x="-49" y="0" on="1"/>
        <pt x="227" y="1305" on="1"/>
        <pt x="1061" y="1305" on="1"/>
      </contour>
    </TTGlyph>
    <TTGlyph name="Psi" xMin="78" yMin="0" xMax="1061" yMax="1305">
      <contour>
        <pt x="954" y="807" on="1"/>
        <pt x="911" y="602" on="0"/>
        <pt x="688" y="346" on="0"/>
        <pt x="504" y="324" on="1"/>
        <pt x="436" y="0" on="1"/>
        <pt x="299" y="0" on="1"/>
        <pt x="367" y="324" on="1"/>
        <pt x="188" y="346" on="0"/>
        <pt x="78" y="604" on="0"/>
        <pt x="121" y="809" on="1"/>
        <pt x="227" y="1305" on="1"/>
        <pt x="365" y="1305" on="1"/>
        <pt x="258" y="807" on="1"/>
        <pt x="248" y="754" on="0"/>
        <pt x="240" y="637" on="0"/>
        <pt x="262" y="535" on="0"/>
        <pt x="328" y="457" on="0"/>
        <pt x="391" y="442" on="1"/>
        <pt x="575" y="1305" on="1"/>
        <pt x="713" y="1305" on="1"/>
        <pt x="528" y="442" on="1"/>
        <pt x="598" y="457" on="0"/>
        <pt x="696" y="535" on="0"/>
        <pt x="766" y="637" on="0"/>
        <pt x="807" y="754" on="0"/>
        <pt x="817" y="807" on="1"/>
        <pt x="924" y="1305" on="1"/>
        <pt x="1061" y="1305" on="1"/>
      </contour>
    </TTGlyph>
    <TTGlyph name="Q" xMin="-20" yMin="-371" xMax="1034" yMax="1327">
      <contour>
        <pt x="1006" y="651" on="1"/>
        <pt x="979" y="526" on="0"/>
        <pt x="883" y="295" on="0"/>
        <pt x="739" y="113" on="0"/>
        <pt x="547" y="-6" on="0"/>
        <pt x="426" y="-18" on="1"/>
        <pt x="420" y="-152" on="0"/>
        <pt x="537" y="-254" on="0"/>
        <pt x="672" y="-254" on="1"/>
        <pt x="707" y="-254" on="0"/>
        <pt x="756" y="-252" on="0"/>
        <pt x="780" y="-250" on="1"/>
        <pt x="754" y="-367" on="1"/>
        <pt x="725" y="-369" on="0"/>
        <pt x="672" y="-371" on="0"/>
        <pt x="647" y="-371" on="1"/>
        <pt x="442" y="-371" on="0"/>
        <pt x="272" y="-197" on="0"/>
        <pt x="289" y="-16" on="1"/>
        <pt x="180" y="-2" on="0"/>
        <pt x="43" y="113" on="0"/>
        <pt x="-20" y="291" on="0"/>
        <pt x="-20" y="522" on="0"/>
        <pt x="6" y="651" on="1"/>
        <pt x="35" y="782" on="0"/>
        <pt x="139" y="1026" on="0"/>
        <pt x="301" y="1214" on="0"/>
        <pt x="514" y="1327" on="0"/>
        <pt x="649" y="1327" on="1"/>
        <pt x="784" y="1327" on="0"/>
        <pt x="952" y="1214" on="0"/>
        <pt x="1030" y="1026" on="0"/>
        <pt x="1034" y="782" on="0"/>
      </contour>
      <contour>
        <pt x="868" y="651" on="1"/>
        <pt x="889" y="750" on="0"/>
        <pt x="897" y="948" on="0"/>
        <pt x="850" y="1110" on="0"/>
        <pt x="729" y="1210" on="0"/>
        <pt x="625" y="1210" on="1"/>
        <pt x="518" y="1210" on="0"/>
        <pt x="358" y="1110" on="0"/>
        <pt x="240" y="948" on="0"/>
        <pt x="164" y="750" on="0"/>
        <pt x="143" y="651" on="1"/>
        <pt x="88" y="391" on="0"/>
        <pt x="213" y="94" on="0"/>
        <pt x="387" y="94" on="1"/>
        <pt x="559" y="94" on="0"/>
        <pt x="813" y="391" on="0"/>
      </contour>
    </TTGlyph>
    <TTGlyph name="R" xMin="-49" yMin="0" xMax="1069" yMax="1305">
      <contour>
        <pt x="846" y="0" on="1"/>
        <pt x="672" y="0" on="1"/>
        <pt x="410" y="559" on="1"/>
        <pt x="207" y="559" on="1"/>
        <pt x="88" y="0" on="1"/>
        <pt x="-49" y="0" on="1"/>
        <pt x="227" y="1305" on="1"/>
        <pt x="657" y="1305" on="1"/>
        <pt x="872" y="1305" on="0"/>
        <pt x="1069" y="1118" on="0"/>
        <pt x="1028" y="932" on="1"/>
        <pt x="1012" y="850" on="0"/>
        <pt x="926" y="719" on="0"/>
        <pt x="807" y="627" on="0"/>
        <pt x="655" y="571" on="0"/>
        <pt x="571" y="565" on="1"/>
      </contour>
      <contour>
        <pt x="887" y="932" on="1"/>
        <pt x="915" y="1065" on="0"/>
        <pt x="776" y="1188" on="0"/>
        <pt x="633" y="1188" on="1"/>
        <pt x="340" y="1188" on="1"/>
        <pt x="231" y="676" on="1"/>
        <pt x="524" y="676" on="1"/>
        <pt x="668" y="676" on="0"/>
        <pt x="858" y="797" on="0"/>
      </contour>
    </TTGlyph>
    <TTGlyph name="Racute" xMin="-49" yMin="0" xMax="1069" yMax="1735">
      <component glyphName="R" x="0" y="0" flags="0x204"/>
      <component glyphName="acute" x="80" y="371" flags="0x4"/>
    </TTGlyph>
    <TTGlyph name="Rcaron" xMin="-49" yMin="0" xMax="1069" yMax="1739">
      <component glyphName="R" x="0" y="0" flags="0x204"/>
      <component glyphName="caron" x="80" y="371" flags="0x4"/>
    </TTGlyph>
    <TTGlyph name="Rcommaaccent" xMin="-49" yMin="-373" xMax="1069" yMax="1305">
      <component glyphName="R" x="0" y="0" flags="0x204"/>
      <component glyphName="commaaccent" x="0" y="0" flags="0x4"/>
    </TTGlyph>
    <TTGlyph name="Rho" xMin="-49" yMin="0" xMax="1069" yMax="1305">
      <contour>
        <pt x="1028" y="932" on="1"/>
        <pt x="989" y="743" on="0"/>
        <pt x="715" y="559" on="0"/>
        <pt x="502" y="559" on="1"/>
        <pt x="207" y="559" on="1"/>
        <pt x="88" y="0" on="1"/>
        <pt x="-49" y="0" on="1"/>
        <pt x="227" y="1305" on="1"/>
        <pt x="657" y="1305" on="1"/>
        <pt x="872" y="1305" on="0"/>
        <pt x="1069" y="1118" on="0"/>
      </contour>
      <contour>
        <pt x="891" y="932" on="1"/>
        <pt x="920" y="1067" on="0"/>
        <pt x="776" y="1188" on="0"/>
        <pt x="635" y="1188" on="1"/>
        <pt x="340" y="1188" on="1"/>
        <pt x="231" y="676" on="1"/>
        <pt x="526" y="676" on="1"/>
        <pt x="668" y="676" on="0"/>
        <pt x="862" y="797" on="0"/>
      </contour>
    </TTGlyph>
    <TTGlyph name="S" xMin="-74" yMin="-23" xMax="1044" yMax="1327">
      <contour>
        <pt x="872" y="340" on="1"/>
        <pt x="854" y="258" on="0"/>
        <pt x="758" y="125" on="0"/>
        <pt x="623" y="29" on="0"/>
        <pt x="465" y="-23" on="0"/>
        <pt x="385" y="-23" on="1"/>
        <pt x="274" y="-23" on="0"/>
        <pt x="109" y="59" on="0"/>
        <pt x="72" y="139" on="1"/>
        <pt x="43" y="0" on="1"/>
        <pt x="-74" y="0" on="1"/>
        <pt x="10" y="397" on="1"/>
        <pt x="127" y="397" on="1"/>
        <pt x="113" y="330" on="0"/>
        <pt x="150" y="219" on="0"/>
        <pt x="229" y="139" on="0"/>
        <pt x="344" y="94" on="0"/>
        <pt x="410" y="94" on="1"/>
        <pt x="467" y="94" on="0"/>
        <pt x="573" y="127" on="0"/>
        <pt x="659" y="188" on="0"/>
        <pt x="721" y="276" on="0"/>
        <pt x="733" y="332" on="1"/>
        <pt x="748" y="395" on="0"/>
        <pt x="711" y="485" on="0"/>
        <pt x="631" y="549" on="0"/>
        <pt x="524" y="594" on="0"/>
        <pt x="469" y="616" on="1"/>
        <pt x="403" y="641" on="0"/>
        <pt x="274" y="696" on="0"/>
        <pt x="178" y="780" on="0"/>
        <pt x="135" y="901" on="0"/>
        <pt x="154" y="991" on="1"/>
        <pt x="172" y="1071" on="0"/>
        <pt x="266" y="1196" on="0"/>
        <pt x="395" y="1282" on="0"/>
        <pt x="549" y="1327" on="0"/>
        <pt x="627" y="1327" on="1"/>
        <pt x="721" y="1327" on="0"/>
        <pt x="866" y="1249" on="0"/>
        <pt x="895" y="1169" on="1"/>
        <pt x="924" y="1305" on="1"/>
        <pt x="1044" y="1305" on="1"/>
        <pt x="965" y="932" on="1"/>
        <pt x="844" y="932" on="1"/>
        <pt x="856" y="991" on="0"/>
        <pt x="829" y="1094" on="0"/>
        <pt x="762" y="1167" on="0"/>
        <pt x="662" y="1210" on="0"/>
        <pt x="602" y="1210" on="1"/>
        <pt x="549" y="1210" on="0"/>
        <pt x="449" y="1186" on="0"/>
        <pt x="365" y="1133" on="0"/>
        <pt x="303" y="1049" on="0"/>
        <pt x="291" y="991" on="1"/>
        <pt x="281" y="940" on="0"/>
        <pt x="317" y="868" on="0"/>
        <pt x="391" y="813" on="0"/>
        <pt x="494" y="768" on="0"/>
        <pt x="549" y="745" on="1"/>
        <pt x="616" y="719" on="0"/>
        <pt x="750" y="655" on="0"/>
        <pt x="846" y="565" on="0"/>
        <pt x="893" y="434" on="0"/>
      </contour>
    </TTGlyph>
    <TTGlyph name="SF010000" xMin="397" yMin="-373" xMax="1118" yMax="721">
      <contour>
        <pt x="397" y="721" on="1"/>
        <pt x="1118" y="721" on="1"/>
        <pt x="1118" y="584" on="1"/>
        <pt x="535" y="584" on="1"/>
        <pt x="535" y="-373" on="1"/>
        <pt x="397" y="-373" on="1"/>
      </contour>
    </TTGlyph>
    <TTGlyph name="SF020000" xMin="397" yMin="584" xMax="1118" yMax="1675">
      <contour>
        <pt x="397" y="1675" on="1"/>
        <pt x="535" y="1675" on="1"/>
        <pt x="535" y="721" on="1"/>
        <pt x="1118" y="721" on="1"/>
        <pt x="1118" y="584" on="1"/>
        <pt x="397" y="584" on="1"/>
      </contour>
    </TTGlyph>
    <TTGlyph name="SF030000" xMin="0" yMin="-373" xMax="535" yMax="721">
      <contour>
        <pt x="0" y="584" on="1"/>
        <pt x="0" y="721" on="1"/>
        <pt x="535" y="721" on="1"/>
        <pt x="535" y="-373" on="1"/>
        <pt x="397" y="-373" on="1"/>
        <pt x="397" y="584" on="1"/>
      </contour>
    </TTGlyph>
    <TTGlyph name="SF040000" xMin="0" yMin="584" xMax="535" yMax="1675">
      <contour>
        <pt x="0" y="584" on="1"/>
        <pt x="0" y="721" on="1"/>
        <pt x="397" y="721" on="1"/>
        <pt x="397" y="1675" on="1"/>
        <pt x="535" y="1675" on="1"/>
        <pt x="535" y="584" on="1"/>
      </contour>
    </TTGlyph>
    <TTGlyph name="SF050000" xMin="0" yMin="-373" xMax="1118" yMax="1675">
      <contour>
        <pt x="0" y="584" on="1"/>
        <pt x="0" y="721" on="1"/>
        <pt x="397" y="721" on="1"/>
        <pt x="397" y="1675" on="1"/>
        <pt x="535" y="1675" on="1"/>
        <pt x="535" y="721" on="1"/>
        <pt x="1118" y="721" on="1"/>
        <pt x="1118" y="584" on="1"/>
        <pt x="535" y="584" on="1"/>
        <pt x="535" y="-373" on="1"/>
        <pt x="397" y="-373" on="1"/>
        <pt x="397" y="584" on="1"/>
      </contour>
    </TTGlyph>
    <TTGlyph name="SF060000" xMin="0" yMin="-373" xMax="1118" yMax="721">
      <contour>
        <pt x="0" y="584" on="1"/>
        <pt x="0" y="721" on="1"/>
        <pt x="1118" y="721" on="1"/>
        <pt x="1118" y="584" on="1"/>
        <pt x="535" y="584" on="1"/>
        <pt x="535" y="-373" on="1"/>
        <pt x="397" y="-373" on="1"/>
        <pt x="397" y="584" on="1"/>
      </contour>
    </TTGlyph>
    <TTGlyph name="SF070000" xMin="0" yMin="584" xMax="1118" yMax="1675">
      <contour>
        <pt x="0" y="584" on="1"/>
        <pt x="0" y="721" on="1"/>
        <pt x="397" y="721" on="1"/>
        <pt x="397" y="1675" on="1"/>
        <pt x="535" y="1675" on="1"/>
        <pt x="535" y="721" on="1"/>
        <pt x="1118" y="721" on="1"/>
        <pt x="1118" y="584" on="1"/>
      </contour>
    </TTGlyph>
    <TTGlyph name="SF080000" xMin="397" yMin="-373" xMax="1118" yMax="1675">
      <contour>
        <pt x="397" y="1675" on="1"/>
        <pt x="535" y="1675" on="1"/>
        <pt x="535" y="721" on="1"/>
        <pt x="1118" y="721" on="1"/>
        <pt x="1118" y="584" on="1"/>
        <pt x="535" y="584" on="1"/>
        <pt x="535" y="-373" on="1"/>
        <pt x="397" y="-373" on="1"/>
      </contour>
    </TTGlyph>
    <TTGlyph name="SF090000" xMin="0" yMin="-373" xMax="535" yMax="1675">
      <contour>
        <pt x="535" y="-373" on="1"/>
        <pt x="397" y="-373" on="1"/>
        <pt x="397" y="584" on="1"/>
        <pt x="0" y="584" on="1"/>
        <pt x="0" y="721" on="1"/>
        <pt x="397" y="721" on="1"/>
        <pt x="397" y="1675" on="1"/>
        <pt x="535" y="1675" on="1"/>
      </contour>
    </TTGlyph>
    <TTGlyph name="SF100000" xMin="0" yMin="584" xMax="1118" yMax="721">
      <contour>
        <pt x="0" y="584" on="1"/>
        <pt x="0" y="721" on="1"/>
        <pt x="1118" y="721" on="1"/>
        <pt x="1118" y="584" on="1"/>
      </contour>
    </TTGlyph>
    <TTGlyph name="SF110000" xMin="397" yMin="-373" xMax="535" yMax="1675">
      <contour>
        <pt x="397" y="1675" on="1"/>
        <pt x="535" y="1675" on="1"/>
        <pt x="535" y="-373" on="1"/>
        <pt x="397" y="-373" on="1"/>
      </contour>
    </TTGlyph>
    <TTGlyph name="SF190000" xMin="0" yMin="-373" xMax="535" yMax="1675">
      <contour>
        <pt x="0" y="770" on="1"/>
        <pt x="0" y="907" on="1"/>
        <pt x="397" y="907" on="1"/>
        <pt x="397" y="1675" on="1"/>
        <pt x="535" y="1675" on="1"/>
        <pt x="535" y="770" on="1"/>
      </contour>
      <contour>
        <pt x="535" y="535" on="1"/>
        <pt x="535" y="-373" on="1"/>
        <pt x="397" y="-373" on="1"/>
        <pt x="397" y="397" on="1"/>
        <pt x="0" y="397" on="1"/>
        <pt x="0" y="535" on="1"/>
      </contour>
    </TTGlyph>
    <TTGlyph name="SF200000" xMin="0" yMin="-373" xMax="721" yMax="1675">
      <contour>
        <pt x="348" y="-373" on="1"/>
        <pt x="211" y="-373" on="1"/>
        <pt x="211" y="584" on="1"/>
        <pt x="0" y="584" on="1"/>
        <pt x="0" y="721" on="1"/>
        <pt x="211" y="721" on="1"/>
        <pt x="211" y="1675" on="1"/>
        <pt x="348" y="1675" on="1"/>
      </contour>
      <contour>
        <pt x="584" y="1675" on="1"/>
        <pt x="721" y="1675" on="1"/>
        <pt x="721" y="-373" on="1"/>
        <pt x="584" y="-373" on="1"/>
      </contour>
    </TTGlyph>
    <TTGlyph name="SF210000" xMin="0" yMin="-373" xMax="721" yMax="721">
      <contour>
        <pt x="348" y="721" on="1"/>
        <pt x="348" y="348" on="1"/>
        <pt x="721" y="348" on="1"/>
        <pt x="721" y="-373" on="1"/>
        <pt x="584" y="-373" on="1"/>
        <pt x="584" y="211" on="1"/>
        <pt x="348" y="211" on="1"/>
        <pt x="348" y="-373" on="1"/>
        <pt x="211" y="-373" on="1"/>
        <pt x="211" y="584" on="1"/>
        <pt x="0" y="584" on="1"/>
        <pt x="0" y="721" on="1"/>
      </contour>
    </TTGlyph>
    <TTGlyph name="SF220000" xMin="0" yMin="-373" xMax="535" yMax="907">
      <contour>
        <pt x="0" y="397" on="1"/>
        <pt x="0" y="535" on="1"/>
        <pt x="211" y="535" on="1"/>
        <pt x="211" y="770" on="1"/>
        <pt x="0" y="770" on="1"/>
        <pt x="0" y="907" on="1"/>
        <pt x="348" y="907" on="1"/>
        <pt x="348" y="535" on="1"/>
        <pt x="535" y="535" on="1"/>
        <pt x="535" y="-373" on="1"/>
        <pt x="397" y="-373" on="1"/>
        <pt x="397" y="397" on="1"/>
      </contour>
    </TTGlyph>
    <TTGlyph name="SF230000" xMin="0" yMin="-373" xMax="721" yMax="1675">
      <contour>
        <pt x="0" y="770" on="1"/>
        <pt x="0" y="907" on="1"/>
        <pt x="211" y="907" on="1"/>
        <pt x="211" y="1675" on="1"/>
        <pt x="348" y="1675" on="1"/>
        <pt x="348" y="770" on="1"/>
      </contour>
      <contour>
        <pt x="348" y="535" on="1"/>
        <pt x="348" y="-373" on="1"/>
        <pt x="211" y="-373" on="1"/>
        <pt x="211" y="397" on="1"/>
        <pt x="0" y="397" on="1"/>
        <pt x="0" y="535" on="1"/>
      </contour>
      <contour>
        <pt x="584" y="1675" on="1"/>
        <pt x="721" y="1675" on="1"/>
        <pt x="721" y="-373" on="1"/>
        <pt x="584" y="-373" on="1"/>
      </contour>
    </TTGlyph>
    <TTGlyph name="SF240000" xMin="211" yMin="-373" xMax="721" yMax="1675">
      <contour>
        <pt x="348" y="-373" on="1"/>
        <pt x="211" y="-373" on="1"/>
        <pt x="211" y="1675" on="1"/>
        <pt x="348" y="1675" on="1"/>
      </contour>
      <contour>
        <pt x="584" y="1675" on="1"/>
        <pt x="721" y="1675" on="1"/>
        <pt x="721" y="-373" on="1"/>
        <pt x="584" y="-373" on="1"/>
      </contour>
    </TTGlyph>
    <TTGlyph name="SF250000" xMin="0" yMin="-373" xMax="721" yMax="907">
      <contour>
        <pt x="584" y="770" on="1"/>
        <pt x="0" y="770" on="1"/>
        <pt x="0" y="907" on="1"/>
        <pt x="721" y="907" on="1"/>
        <pt x="721" y="-373" on="1"/>
        <pt x="584" y="-373" on="1"/>
      </contour>
      <contour>
        <pt x="348" y="535" on="1"/>
        <pt x="348" y="-373" on="1"/>
        <pt x="211" y="-373" on="1"/>
        <pt x="211" y="397" on="1"/>
        <pt x="0" y="397" on="1"/>
        <pt x="0" y="535" on="1"/>
      </contour>
    </TTGlyph>
    <TTGlyph name="SF260000" xMin="0" yMin="397" xMax="721" yMax="1675">
      <contour>
        <pt x="0" y="770" on="1"/>
        <pt x="0" y="907" on="1"/>
        <pt x="211" y="907" on="1"/>
        <pt x="211" y="1675" on="1"/>
        <pt x="348" y="1675" on="1"/>
        <pt x="348" y="770" on="1"/>
      </contour>
      <contour>
        <pt x="584" y="535" on="1"/>
        <pt x="584" y="1675" on="1"/>
        <pt x="721" y="1675" on="1"/>
        <pt x="721" y="397" on="1"/>
        <pt x="0" y="397" on="1"/>
        <pt x="0" y="535" on="1"/>
      </contour>
    </TTGlyph>
    <TTGlyph name="SF270000" xMin="0" yMin="584" xMax="721" yMax="1675">
      <contour>
        <pt x="0" y="584" on="1"/>
        <pt x="0" y="721" on="1"/>
        <pt x="211" y="721" on="1"/>
        <pt x="211" y="1675" on="1"/>
        <pt x="348" y="1675" on="1"/>
        <pt x="348" y="1094" on="1"/>
        <pt x="584" y="1094" on="1"/>
        <pt x="584" y="1675" on="1"/>
        <pt x="721" y="1675" on="1"/>
        <pt x="721" y="956" on="1"/>
        <pt x="348" y="956" on="1"/>
        <pt x="348" y="584" on="1"/>
      </contour>
    </TTGlyph>
    <TTGlyph name="SF280000" xMin="0" yMin="397" xMax="535" yMax="1675">
      <contour>
        <pt x="25" y="537" on="1"/>
        <pt x="25" y="770" on="1"/>
        <pt x="0" y="770" on="1"/>
        <pt x="0" y="907" on="1"/>
        <pt x="397" y="907" on="1"/>
        <pt x="397" y="1675" on="1"/>
        <pt x="535" y="1675" on="1"/>
        <pt x="535" y="770" on="1"/>
        <pt x="162" y="770" on="1"/>
        <pt x="162" y="397" on="1"/>
        <pt x="0" y="397" on="1"/>
        <pt x="0" y="537" on="1"/>
      </contour>
    </TTGlyph>
    <TTGlyph name="SF360000" xMin="397" yMin="-373" xMax="1118" yMax="1675">
      <contour>
        <pt x="397" y="770" on="1"/>
        <pt x="397" y="1675" on="1"/>
        <pt x="535" y="1675" on="1"/>
        <pt x="535" y="907" on="1"/>
        <pt x="1118" y="907" on="1"/>
        <pt x="1118" y="770" on="1"/>
      </contour>
      <contour>
        <pt x="1118" y="535" on="1"/>
        <pt x="1118" y="397" on="1"/>
        <pt x="535" y="397" on="1"/>
        <pt x="535" y="-373" on="1"/>
        <pt x="397" y="-373" on="1"/>
        <pt x="397" y="535" on="1"/>
      </contour>
    </TTGlyph>
    <TTGlyph name="SF370000" xMin="211" yMin="-373" xMax="1118" yMax="1675">
      <contour>
        <pt x="348" y="-373" on="1"/>
        <pt x="211" y="-373" on="1"/>
        <pt x="211" y="1675" on="1"/>
        <pt x="348" y="1675" on="1"/>
      </contour>
      <contour>
        <pt x="584" y="1675" on="1"/>
        <pt x="721" y="1675" on="1"/>
        <pt x="721" y="721" on="1"/>
        <pt x="1118" y="721" on="1"/>
        <pt x="1118" y="584" on="1"/>
        <pt x="721" y="584" on="1"/>
        <pt x="721" y="-373" on="1"/>
        <pt x="584" y="-373" on="1"/>
      </contour>
    </TTGlyph>
    <TTGlyph name="SF380000" xMin="211" yMin="397" xMax="1118" yMax="1675">
      <contour>
        <pt x="211" y="397" on="1"/>
        <pt x="211" y="1675" on="1"/>
        <pt x="348" y="1675" on="1"/>
        <pt x="348" y="535" on="1"/>
        <pt x="1118" y="535" on="1"/>
        <pt x="1118" y="397" on="1"/>
      </contour>
      <contour>
        <pt x="584" y="770" on="1"/>
        <pt x="584" y="1675" on="1"/>
        <pt x="721" y="1675" on="1"/>
        <pt x="721" y="907" on="1"/>
        <pt x="1118" y="907" on="1"/>
        <pt x="1118" y="770" on="1"/>
      </contour>
    </TTGlyph>
    <TTGlyph name="SF390000" xMin="211" yMin="-373" xMax="1118" yMax="907">
      <contour>
        <pt x="348" y="770" on="1"/>
        <pt x="348" y="-373" on="1"/>
        <pt x="211" y="-373" on="1"/>
        <pt x="211" y="907" on="1"/>
        <pt x="1118" y="907" on="1"/>
        <pt x="1118" y="770" on="1"/>
      </contour>
      <contour>
        <pt x="1118" y="535" on="1"/>
        <pt x="1118" y="397" on="1"/>
        <pt x="721" y="397" on="1"/>
        <pt x="721" y="-373" on="1"/>
        <pt x="584" y="-373" on="1"/>
        <pt x="584" y="535" on="1"/>
      </contour>
    </TTGlyph>
    <TTGlyph name="SF400000" xMin="0" yMin="397" xMax="1118" yMax="1675">
      <contour>
        <pt x="0" y="770" on="1"/>
        <pt x="0" y="907" on="1"/>
        <pt x="211" y="907" on="1"/>
        <pt x="211" y="1675" on="1"/>
        <pt x="348" y="1675" on="1"/>
        <pt x="348" y="770" on="1"/>
      </contour>
      <contour>
        <pt x="584" y="770" on="1"/>
        <pt x="584" y="1675" on="1"/>
        <pt x="721" y="1675" on="1"/>
        <pt x="721" y="907" on="1"/>
        <pt x="1118" y="907" on="1"/>
        <pt x="1118" y="770" on="1"/>
      </contour>
      <contour>
        <pt x="1118" y="535" on="1"/>
        <pt x="1118" y="397" on="1"/>
        <pt x="0" y="397" on="1"/>
        <pt x="0" y="535" on="1"/>
      </contour>
    </TTGlyph>
    <TTGlyph name="SF410000" xMin="0" yMin="-373" xMax="1118" yMax="907">
      <contour>
        <pt x="348" y="535" on="1"/>
        <pt x="348" y="-373" on="1"/>
        <pt x="211" y="-373" on="1"/>
        <pt x="211" y="397" on="1"/>
        <pt x="0" y="397" on="1"/>
        <pt x="0" y="535" on="1"/>
      </contour>
      <contour>
        <pt x="1118" y="907" on="1"/>
        <pt x="1118" y="770" on="1"/>
        <pt x="0" y="770" on="1"/>
        <pt x="0" y="907" on="1"/>
      </contour>
      <contour>
        <pt x="1118" y="535" on="1"/>
        <pt x="1118" y="397" on="1"/>
        <pt x="721" y="397" on="1"/>
        <pt x="721" y="-373" on="1"/>
        <pt x="584" y="-373" on="1"/>
        <pt x="584" y="535" on="1"/>
      </contour>
    </TTGlyph>
    <TTGlyph name="SF420000" xMin="211" yMin="-373" xMax="1118" yMax="1675">
      <contour>
        <pt x="348" y="-373" on="1"/>
        <pt x="211" y="-373" on="1"/>
        <pt x="211" y="1675" on="1"/>
        <pt x="348" y="1675" on="1"/>
      </contour>
      <contour>
        <pt x="584" y="770" on="1"/>
        <pt x="584" y="1675" on="1"/>
        <pt x="721" y="1675" on="1"/>
        <pt x="721" y="907" on="1"/>
        <pt x="1118" y="907" on="1"/>
        <pt x="1118" y="770" on="1"/>
      </contour>
      <contour>
        <pt x="1118" y="535" on="1"/>
        <pt x="1118" y="397" on="1"/>
        <pt x="721" y="397" on="1"/>
        <pt x="721" y="-373" on="1"/>
        <pt x="584" y="-373" on="1"/>
        <pt x="584" y="535" on="1"/>
      </contour>
    </TTGlyph>
    <TTGlyph name="SF430000" xMin="0" yMin="397" xMax="1118" yMax="907">
      <contour>
        <pt x="1118" y="907" on="1"/>
        <pt x="1118" y="770" on="1"/>
        <pt x="0" y="770" on="1"/>
        <pt x="0" y="907" on="1"/>
      </contour>
      <contour>
        <pt x="1118" y="535" on="1"/>
        <pt x="1118" y="397" on="1"/>
        <pt x="0" y="397" on="1"/>
        <pt x="0" y="535" on="1"/>
      </contour>
    </TTGlyph>
    <TTGlyph name="SF440000" xMin="0" yMin="-373" xMax="1118" yMax="1675">
      <contour>
        <pt x="0" y="770" on="1"/>
        <pt x="0" y="907" on="1"/>
        <pt x="211" y="907" on="1"/>
        <pt x="211" y="1675" on="1"/>
        <pt x="348" y="1675" on="1"/>
        <pt x="348" y="770" on="1"/>
      </contour>
      <contour>
        <pt x="348" y="535" on="1"/>
        <pt x="348" y="-373" on="1"/>
        <pt x="211" y="-373" on="1"/>
        <pt x="211" y="397" on="1"/>
        <pt x="0" y="397" on="1"/>
        <pt x="0" y="535" on="1"/>
      </contour>
      <contour>
        <pt x="582" y="770" on="1"/>
        <pt x="582" y="1675" on="1"/>
        <pt x="719" y="1675" on="1"/>
        <pt x="719" y="907" on="1"/>
        <pt x="1118" y="907" on="1"/>
        <pt x="1118" y="770" on="1"/>
      </contour>
      <contour>
        <pt x="1118" y="535" on="1"/>
        <pt x="1118" y="397" on="1"/>
        <pt x="719" y="397" on="1"/>
        <pt x="719" y="-373" on="1"/>
        <pt x="582" y="-373" on="1"/>
        <pt x="582" y="535" on="1"/>
      </contour>
    </TTGlyph>
    <TTGlyph name="SF450000" xMin="0" yMin="397" xMax="1118" yMax="1675">
      <contour>
        <pt x="0" y="770" on="1"/>
        <pt x="0" y="907" on="1"/>
        <pt x="397" y="907" on="1"/>
        <pt x="397" y="1675" on="1"/>
        <pt x="535" y="1675" on="1"/>
        <pt x="535" y="907" on="1"/>
        <pt x="1118" y="907" on="1"/>
        <pt x="1118" y="770" on="1"/>
      </contour>
      <contour>
        <pt x="1118" y="535" on="1"/>
        <pt x="1118" y="397" on="1"/>
        <pt x="0" y="397" on="1"/>
        <pt x="0" y="535" on="1"/>
      </contour>
    </TTGlyph>
    <TTGlyph name="SF460000" xMin="0" yMin="584" xMax="1118" yMax="1675">
      <contour>
        <pt x="0" y="584" on="1"/>
        <pt x="0" y="721" on="1"/>
        <pt x="211" y="721" on="1"/>
        <pt x="211" y="1675" on="1"/>
        <pt x="348" y="1675" on="1"/>
        <pt x="348" y="584" on="1"/>
      </contour>
      <contour>
        <pt x="584" y="584" on="1"/>
        <pt x="584" y="1675" on="1"/>
        <pt x="721" y="1675" on="1"/>
        <pt x="721" y="721" on="1"/>
        <pt x="1118" y="721" on="1"/>
        <pt x="1118" y="584" on="1"/>
      </contour>
    </TTGlyph>
    <TTGlyph name="SF470000" xMin="0" yMin="-373" xMax="1118" yMax="907">
      <contour>
        <pt x="0" y="397" on="1"/>
        <pt x="0" y="535" on="1"/>
        <pt x="1118" y="535" on="1"/>
        <pt x="1118" y="397" on="1"/>
        <pt x="535" y="397" on="1"/>
        <pt x="535" y="-373" on="1"/>
        <pt x="397" y="-373" on="1"/>
        <pt x="397" y="397" on="1"/>
      </contour>
      <contour>
        <pt x="1118" y="907" on="1"/>
        <pt x="1118" y="770" on="1"/>
        <pt x="0" y="770" on="1"/>
        <pt x="0" y="907" on="1"/>
      </contour>
    </TTGlyph>
    <TTGlyph name="SF480000" xMin="0" yMin="-373" xMax="1118" yMax="721">
      <contour>
        <pt x="348" y="721" on="1"/>
        <pt x="348" y="-373" on="1"/>
        <pt x="211" y="-373" on="1"/>
        <pt x="211" y="584" on="1"/>
        <pt x="0" y="584" on="1"/>
        <pt x="0" y="721" on="1"/>
      </contour>
      <contour>
        <pt x="1118" y="721" on="1"/>
        <pt x="1118" y="584" on="1"/>
        <pt x="721" y="584" on="1"/>
        <pt x="721" y="-373" on="1"/>
        <pt x="584" y="-373" on="1"/>
        <pt x="584" y="721" on="1"/>
      </contour>
    </TTGlyph>
    <TTGlyph name="SF490000" xMin="211" yMin="584" xMax="1118" yMax="1675">
      <contour>
        <pt x="584" y="584" on="1"/>
        <pt x="584" y="956" on="1"/>
        <pt x="211" y="956" on="1"/>
        <pt x="211" y="1675" on="1"/>
        <pt x="348" y="1675" on="1"/>
        <pt x="348" y="1094" on="1"/>
        <pt x="584" y="1094" on="1"/>
        <pt x="584" y="1675" on="1"/>
        <pt x="721" y="1675" on="1"/>
        <pt x="721" y="723" on="1"/>
        <pt x="1118" y="723" on="1"/>
        <pt x="1118" y="584" on="1"/>
      </contour>
    </TTGlyph>
    <TTGlyph name="SF500000" xMin="397" yMin="397" xMax="1118" yMax="1675">
      <contour>
        <pt x="770" y="397" on="1"/>
        <pt x="770" y="770" on="1"/>
        <pt x="397" y="770" on="1"/>
        <pt x="397" y="1675" on="1"/>
        <pt x="535" y="1675" on="1"/>
        <pt x="535" y="907" on="1"/>
        <pt x="1118" y="907" on="1"/>
        <pt x="1118" y="770" on="1"/>
        <pt x="907" y="770" on="1"/>
        <pt x="907" y="537" on="1"/>
        <pt x="1118" y="537" on="1"/>
        <pt x="1118" y="397" on="1"/>
      </contour>
    </TTGlyph>
    <TTGlyph name="SF510000" xMin="397" yMin="-373" xMax="1118" yMax="907">
      <contour>
        <pt x="1118" y="535" on="1"/>
        <pt x="1118" y="397" on="1"/>
        <pt x="535" y="397" on="1"/>
        <pt x="535" y="-373" on="1"/>
        <pt x="397" y="-373" on="1"/>
        <pt x="397" y="535" on="1"/>
        <pt x="770" y="535" on="1"/>
        <pt x="770" y="907" on="1"/>
        <pt x="1118" y="907" on="1"/>
        <pt x="1118" y="770" on="1"/>
        <pt x="907" y="770" on="1"/>
        <pt x="907" y="535" on="1"/>
      </contour>
    </TTGlyph>
    <TTGlyph name="SF520000" xMin="211" yMin="-373" xMax="1118" yMax="721">
      <contour>
        <pt x="1118" y="721" on="1"/>
        <pt x="1118" y="584" on="1"/>
        <pt x="721" y="584" on="1"/>
        <pt x="721" y="-373" on="1"/>
        <pt x="584" y="-373" on="1"/>
        <pt x="584" y="211" on="1"/>
        <pt x="348" y="211" on="1"/>
        <pt x="348" y="-373" on="1"/>
        <pt x="211" y="-373" on="1"/>
        <pt x="211" y="348" on="1"/>
        <pt x="584" y="348" on="1"/>
        <pt x="584" y="721" on="1"/>
      </contour>
    </TTGlyph>
    <TTGlyph name="SF530000" xMin="0" yMin="-373" xMax="1118" yMax="1675">
      <contour>
        <pt x="1118" y="721" on="1"/>
        <pt x="1118" y="584" on="1"/>
        <pt x="721" y="584" on="1"/>
        <pt x="721" y="-373" on="1"/>
        <pt x="584" y="-373" on="1"/>
        <pt x="584" y="1675" on="1"/>
        <pt x="721" y="1675" on="1"/>
        <pt x="721" y="721" on="1"/>
      </contour>
      <contour>
        <pt x="348" y="1675" on="1"/>
        <pt x="348" y="-373" on="1"/>
        <pt x="211" y="-373" on="1"/>
        <pt x="211" y="584" on="1"/>
        <pt x="0" y="584" on="1"/>
        <pt x="0" y="721" on="1"/>
        <pt x="211" y="721" on="1"/>
        <pt x="211" y="1675" on="1"/>
      </contour>
    </TTGlyph>
    <TTGlyph name="SF540000" xMin="0" yMin="-373" xMax="1118" yMax="1675">
      <contour>
        <pt x="0" y="770" on="1"/>
        <pt x="0" y="907" on="1"/>
        <pt x="397" y="907" on="1"/>
        <pt x="397" y="1675" on="1"/>
        <pt x="535" y="1675" on="1"/>
        <pt x="535" y="907" on="1"/>
        <pt x="1118" y="907" on="1"/>
        <pt x="1118" y="770" on="1"/>
      </contour>
      <contour>
        <pt x="1118" y="535" on="1"/>
        <pt x="1118" y="397" on="1"/>
        <pt x="535" y="397" on="1"/>
        <pt x="535" y="-373" on="1"/>
        <pt x="397" y="-373" on="1"/>
        <pt x="397" y="397" on="1"/>
        <pt x="0" y="397" on="1"/>
        <pt x="0" y="535" on="1"/>
      </contour>
    </TTGlyph>
    <TTGlyph name="Sacute" xMin="-74" yMin="-23" xMax="1044" yMax="1735">
      <component glyphName="S" x="0" y="0" flags="0x204"/>
      <component glyphName="acute" x="80" y="371" flags="0x4"/>
    </TTGlyph>
    <TTGlyph name="Scaron" xMin="-74" yMin="-23" xMax="1044" yMax="1739">
      <component glyphName="S" x="0" y="0" flags="0x204"/>
      <component glyphName="caron" x="80" y="371" flags="0x4"/>
    </TTGlyph>
    <TTGlyph name="Scedilla" xMin="-74" yMin="-371" xMax="1044" yMax="1327">
      <contour>
        <pt x="872" y="340" on="1"/>
        <pt x="856" y="266" on="0"/>
        <pt x="776" y="145" on="0"/>
        <pt x="664" y="53" on="0"/>
        <pt x="528" y="-6" on="0"/>
        <pt x="457" y="-16" on="1"/>
        <pt x="451" y="-41" on="1"/>
        <pt x="420" y="-188" on="0"/>
        <pt x="319" y="-276" on="1"/>
        <pt x="211" y="-371" on="0"/>
        <pt x="63" y="-371" on="1"/>
        <pt x="88" y="-254" on="1"/>
        <pt x="291" y="-254" on="0"/>
        <pt x="336" y="-41" on="1"/>
        <pt x="340" y="-20" on="1"/>
        <pt x="246" y="-12" on="0"/>
        <pt x="104" y="68" on="0"/>
        <pt x="72" y="139" on="1"/>
        <pt x="43" y="0" on="1"/>
        <pt x="-74" y="0" on="1"/>
        <pt x="10" y="397" on="1"/>
        <pt x="127" y="397" on="1"/>
        <pt x="113" y="330" on="0"/>
        <pt x="150" y="219" on="0"/>
        <pt x="229" y="139" on="0"/>
        <pt x="344" y="94" on="0"/>
        <pt x="410" y="94" on="1"/>
        <pt x="467" y="94" on="0"/>
        <pt x="573" y="127" on="0"/>
        <pt x="659" y="188" on="0"/>
        <pt x="721" y="276" on="0"/>
        <pt x="733" y="332" on="1"/>
        <pt x="748" y="395" on="0"/>
        <pt x="711" y="485" on="0"/>
        <pt x="631" y="549" on="0"/>
        <pt x="524" y="594" on="0"/>
        <pt x="469" y="616" on="1"/>
        <pt x="403" y="641" on="0"/>
        <pt x="274" y="696" on="0"/>
        <pt x="178" y="780" on="0"/>
        <pt x="135" y="901" on="0"/>
        <pt x="154" y="991" on="1"/>
        <pt x="172" y="1071" on="0"/>
        <pt x="266" y="1196" on="0"/>
        <pt x="395" y="1282" on="0"/>
        <pt x="549" y="1327" on="0"/>
        <pt x="627" y="1327" on="1"/>
        <pt x="721" y="1327" on="0"/>
        <pt x="866" y="1249" on="0"/>
        <pt x="895" y="1169" on="1"/>
        <pt x="924" y="1305" on="1"/>
        <pt x="1044" y="1305" on="1"/>
        <pt x="965" y="932" on="1"/>
        <pt x="844" y="932" on="1"/>
        <pt x="856" y="991" on="0"/>
        <pt x="829" y="1094" on="0"/>
        <pt x="762" y="1167" on="0"/>
        <pt x="662" y="1210" on="0"/>
        <pt x="602" y="1210" on="1"/>
        <pt x="549" y="1210" on="0"/>
        <pt x="449" y="1186" on="0"/>
        <pt x="365" y="1133" on="0"/>
        <pt x="303" y="1049" on="0"/>
        <pt x="291" y="991" on="1"/>
        <pt x="281" y="940" on="0"/>
        <pt x="317" y="868" on="0"/>
        <pt x="391" y="813" on="0"/>
        <pt x="494" y="768" on="0"/>
        <pt x="549" y="745" on="1"/>
        <pt x="616" y="719" on="0"/>
        <pt x="750" y="655" on="0"/>
        <pt x="846" y="565" on="0"/>
        <pt x="893" y="434" on="0"/>
      </contour>
    </TTGlyph>
    <TTGlyph name="Scircumflex" xMin="-74" yMin="-23" xMax="1044" yMax="1739">
      <component glyphName="S" x="0" y="0" flags="0x204"/>
      <component glyphName="circumflex" x="80" y="371" flags="0x4"/>
    </TTGlyph>
    <TTGlyph name="Scommaaccent" xMin="-74" yMin="-373" xMax="1044" yMax="1327">
      <component glyphName="S" x="0" y="0" flags="0x204"/>
      <component glyphName="commaaccent" x="0" y="0" flags="0x4"/>
    </TTGlyph>
    <TTGlyph name="Sigma" xMin="-55" yMin="0" xMax="1061" yMax="1305">
      <contour>
        <pt x="784" y="0" on="1"/>
        <pt x="-55" y="0" on="1"/>
        <pt x="-31" y="117" on="1"/>
        <pt x="410" y="653" on="1"/>
        <pt x="197" y="1188" on="1"/>
        <pt x="221" y="1305" on="1"/>
        <pt x="1061" y="1305" on="1"/>
        <pt x="967" y="864" on="1"/>
        <pt x="846" y="864" on="1"/>
        <pt x="915" y="1188" on="1"/>
        <pt x="360" y="1188" on="1"/>
        <pt x="571" y="653" on="1"/>
        <pt x="133" y="117" on="1"/>
        <pt x="688" y="117" on="1"/>
        <pt x="756" y="442" on="1"/>
        <pt x="877" y="442" on="1"/>
      </contour>
    </TTGlyph>
    <TTGlyph name="T" xMin="84" yMin="0" xMax="1110" yMax="1305">
      <contour>
        <pt x="1016" y="864" on="1"/>
        <pt x="899" y="864" on="1"/>
        <pt x="969" y="1188" on="1"/>
        <pt x="688" y="1188" on="1"/>
        <pt x="461" y="117" on="1"/>
        <pt x="672" y="117" on="1"/>
        <pt x="647" y="0" on="1"/>
        <pt x="88" y="0" on="1"/>
        <pt x="113" y="117" on="1"/>
        <pt x="324" y="117" on="1"/>
        <pt x="551" y="1188" on="1"/>
        <pt x="270" y="1188" on="1"/>
        <pt x="201" y="864" on="1"/>
        <pt x="84" y="864" on="1"/>
        <pt x="178" y="1305" on="1"/>
        <pt x="1110" y="1305" on="1"/>
      </contour>
    </TTGlyph>
    <TTGlyph name="Tau" xMin="84" yMin="0" xMax="1110" yMax="1305">
      <contour>
        <pt x="1016" y="864" on="1"/>
        <pt x="899" y="864" on="1"/>
        <pt x="969" y="1188" on="1"/>
        <pt x="688" y="1188" on="1"/>
        <pt x="461" y="117" on="1"/>
        <pt x="672" y="117" on="1"/>
        <pt x="647" y="0" on="1"/>
        <pt x="88" y="0" on="1"/>
        <pt x="113" y="117" on="1"/>
        <pt x="324" y="117" on="1"/>
        <pt x="551" y="1188" on="1"/>
        <pt x="270" y="1188" on="1"/>
        <pt x="201" y="864" on="1"/>
        <pt x="84" y="864" on="1"/>
        <pt x="178" y="1305" on="1"/>
        <pt x="1110" y="1305" on="1"/>
      </contour>
    </TTGlyph>
    <TTGlyph name="Tbar" xMin="84" yMin="0" xMax="1110" yMax="1305">
      <contour>
        <pt x="776" y="608" on="1"/>
        <pt x="565" y="608" on="1"/>
        <pt x="461" y="117" on="1"/>
        <pt x="672" y="117" on="1"/>
        <pt x="647" y="0" on="1"/>
        <pt x="88" y="0" on="1"/>
        <pt x="113" y="117" on="1"/>
        <pt x="324" y="117" on="1"/>
        <pt x="428" y="608" on="1"/>
        <pt x="217" y="608" on="1"/>
        <pt x="240" y="721" on="1"/>
        <pt x="451" y="721" on="1"/>
        <pt x="551" y="1188" on="1"/>
        <pt x="270" y="1188" on="1"/>
        <pt x="201" y="864" on="1"/>
        <pt x="84" y="864" on="1"/>
        <pt x="178" y="1305" on="1"/>
        <pt x="1110" y="1305" on="1"/>
        <pt x="1016" y="864" on="1"/>
        <pt x="899" y="864" on="1"/>
        <pt x="969" y="1188" on="1"/>
        <pt x="688" y="1188" on="1"/>
        <pt x="588" y="721" on="1"/>
        <pt x="799" y="721" on="1"/>
      </contour>
    </TTGlyph>
    <TTGlyph name="Tcaron" xMin="84" yMin="0" xMax="1110" yMax="1739">
      <component glyphName="T" x="0" y="0" flags="0x204"/>
      <component glyphName="caron" x="80" y="371" flags="0x4"/>
    </TTGlyph>
    <TTGlyph name="Tcommaaccent" xMin="84" yMin="-373" xMax="1110" yMax="1305">
      <component glyphName="T" x="0" y="0" flags="0x204"/>
      <component glyphName="commaaccent" x="0" y="0" flags="0x4"/>
    </TTGlyph>
    <TTGlyph name="Theta" xMin="-23" yMin="-23" xMax="1034" yMax="1327">
      <contour>
        <pt x="281" y="711" on="1"/>
        <pt x="752" y="711" on="1"/>
        <pt x="727" y="594" on="1"/>
        <pt x="256" y="594" on="1"/>
      </contour>
      <contour>
        <pt x="1006" y="651" on="1"/>
        <pt x="977" y="520" on="0"/>
        <pt x="872" y="276" on="0"/>
        <pt x="715" y="90" on="0"/>
        <pt x="500" y="-23" on="0"/>
        <pt x="362" y="-23" on="1"/>
        <pt x="225" y="-23" on="0"/>
        <pt x="59" y="90" on="0"/>
        <pt x="-20" y="276" on="0"/>
        <pt x="-23" y="520" on="0"/>
        <pt x="6" y="651" on="1"/>
        <pt x="35" y="782" on="0"/>
        <pt x="139" y="1026" on="0"/>
        <pt x="301" y="1214" on="0"/>
        <pt x="514" y="1327" on="0"/>
        <pt x="649" y="1327" on="1"/>
        <pt x="784" y="1327" on="0"/>
        <pt x="952" y="1214" on="0"/>
        <pt x="1030" y="1026" on="0"/>
        <pt x="1034" y="782" on="0"/>
      </contour>
      <contour>
        <pt x="868" y="651" on="1"/>
        <pt x="895" y="780" on="0"/>
        <pt x="891" y="987" on="0"/>
        <pt x="829" y="1133" on="0"/>
        <pt x="711" y="1210" on="0"/>
        <pt x="625" y="1210" on="1"/>
        <pt x="518" y="1210" on="0"/>
        <pt x="358" y="1110" on="0"/>
        <pt x="240" y="948" on="0"/>
        <pt x="164" y="750" on="0"/>
        <pt x="143" y="651" on="1"/>
        <pt x="123" y="553" on="0"/>
        <pt x="113" y="354" on="0"/>
        <pt x="164" y="195" on="0"/>
        <pt x="281" y="94" on="0"/>
        <pt x="387" y="94" on="1"/>
        <pt x="494" y="94" on="0"/>
        <pt x="655" y="195" on="0"/>
        <pt x="772" y="354" on="0"/>
        <pt x="848" y="553" on="0"/>
      </contour>
    </TTGlyph>
    <TTGlyph name="Thorn" xMin="-49" yMin="0" xMax="1051" yMax="1305">
      <contour>
        <pt x="971" y="664" on="1"/>
        <pt x="893" y="291" on="0"/>
        <pt x="393" y="291" on="1"/>
        <pt x="150" y="291" on="1"/>
        <pt x="88" y="0" on="1"/>
        <pt x="-49" y="0" on="1"/>
        <pt x="227" y="1305" on="1"/>
        <pt x="365" y="1305" on="1"/>
        <pt x="307" y="1036" on="1"/>
        <pt x="551" y="1036" on="1"/>
        <pt x="1051" y="1036" on="0"/>
      </contour>
      <contour>
        <pt x="831" y="664" on="1"/>
        <pt x="887" y="918" on="0"/>
        <pt x="526" y="918" on="1"/>
        <pt x="283" y="918" on="1"/>
        <pt x="174" y="406" on="1"/>
        <pt x="418" y="406" on="1"/>
        <pt x="598" y="406" on="0"/>
        <pt x="805" y="537" on="0"/>
      </contour>
    </TTGlyph>
    <TTGlyph name="U" xMin="25" yMin="-23" xMax="1061" yMax="1305">
      <contour>
        <pt x="883" y="465" on="1"/>
        <pt x="858" y="354" on="0"/>
        <pt x="772" y="174" on="0"/>
        <pt x="641" y="47" on="0"/>
        <pt x="469" y="-23" on="0"/>
        <pt x="360" y="-23" on="1"/>
        <pt x="252" y="-23" on="0"/>
        <pt x="109" y="47" on="0"/>
        <pt x="37" y="174" on="0"/>
        <pt x="25" y="356" on="0"/>
        <pt x="49" y="467" on="1"/>
        <pt x="227" y="1305" on="1"/>
        <pt x="365" y="1305" on="1"/>
        <pt x="186" y="465" on="1"/>
        <pt x="174" y="406" on="0"/>
        <pt x="166" y="274" on="0"/>
        <pt x="205" y="166" on="0"/>
        <pt x="297" y="94" on="0"/>
        <pt x="385" y="94" on="1"/>
        <pt x="473" y="94" on="0"/>
        <pt x="600" y="166" on="0"/>
        <pt x="684" y="274" on="0"/>
        <pt x="733" y="406" on="0"/>
        <pt x="745" y="465" on="1"/>
        <pt x="924" y="1305" on="1"/>
        <pt x="1061" y="1305" on="1"/>
      </contour>
    </TTGlyph>
    <TTGlyph name="Uacute" xMin="25" yMin="-23" xMax="1061" yMax="1735">
      <component glyphName="U" x="0" y="0" flags="0x204"/>
      <component glyphName="acute" x="80" y="371" flags="0x4"/>
    </TTGlyph>
    <TTGlyph name="Ubreve" xMin="25" yMin="-23" xMax="1061" yMax="1657">
      <component glyphName="U" x="0" y="0" flags="0x204"/>
      <component glyphName="breve" x="80" y="371" flags="0x4"/>
    </TTGlyph>
    <TTGlyph name="Ucircumflex" xMin="25" yMin="-23" xMax="1061" yMax="1739">
      <component glyphName="U" x="0" y="0" flags="0x204"/>
      <component glyphName="circumflex" x="80" y="371" flags="0x4"/>
    </TTGlyph>
    <TTGlyph name="Udieresis" xMin="25" yMin="-23" xMax="1061" yMax="1676">
      <component glyphName="U" x="0" y="0" flags="0x204"/>
      <component glyphName="dieresis" x="80" y="371" flags="0x4"/>
    </TTGlyph>
    <TTGlyph name="Ugrave" xMin="25" yMin="-23" xMax="1061" yMax="1737">
      <component glyphName="U" x="0" y="0" flags="0x204"/>
      <component glyphName="grave" x="80" y="373" flags="0x4"/>
    </TTGlyph>
    <TTGlyph name="Uhungarumlaut" xMin="25" yMin="-23" xMax="1147" yMax="1770">
      <component glyphName="U" x="0" y="0" flags="0x204"/>
      <component glyphName="hungarumlaut" x="80" y="371" flags="0x4"/>
    </TTGlyph>
    <TTGlyph name="Umacron" xMin="25" yMin="-23" xMax="1061" yMax="1590">
      <component glyphName="U" x="0" y="0" flags="0x204"/>
      <component glyphName="macron" x="80" y="371" flags="0x4"/>
    </TTGlyph>
    <TTGlyph name="Uogonek" xMin="25" yMin="-379" xMax="1061" yMax="1305">
      <contour>
        <pt x="580" y="-379" on="1"/>
        <pt x="455" y="-379" on="0"/>
        <pt x="338" y="-254" on="0"/>
        <pt x="360" y="-152" on="1"/>
        <pt x="369" y="-111" on="0"/>
        <pt x="403" y="-47" on="0"/>
        <pt x="428" y="-18" on="1"/>
        <pt x="410" y="-20" on="0"/>
        <pt x="377" y="-23" on="0"/>
        <pt x="360" y="-23" on="1"/>
        <pt x="252" y="-23" on="0"/>
        <pt x="109" y="47" on="0"/>
        <pt x="37" y="174" on="0"/>
        <pt x="25" y="356" on="0"/>
        <pt x="49" y="467" on="1"/>
        <pt x="227" y="1305" on="1"/>
        <pt x="365" y="1305" on="1"/>
        <pt x="186" y="465" on="1"/>
        <pt x="174" y="406" on="0"/>
        <pt x="166" y="274" on="0"/>
        <pt x="205" y="166" on="0"/>
        <pt x="297" y="94" on="0"/>
        <pt x="385" y="94" on="1"/>
        <pt x="473" y="94" on="0"/>
        <pt x="600" y="166" on="0"/>
        <pt x="684" y="274" on="0"/>
        <pt x="733" y="406" on="0"/>
        <pt x="745" y="465" on="1"/>
        <pt x="924" y="1305" on="1"/>
        <pt x="1061" y="1305" on="1"/>
        <pt x="883" y="465" on="1"/>
        <pt x="844" y="285" on="0"/>
        <pt x="666" y="43" on="0"/>
        <pt x="522" y="0" on="1"/>
        <pt x="463" y="-45" on="0"/>
        <pt x="446" y="-121" on="1"/>
        <pt x="432" y="-193" on="0"/>
        <pt x="520" y="-289" on="0"/>
        <pt x="600" y="-289" on="1"/>
      </contour>
    </TTGlyph>
    <TTGlyph name="Upsilon" xMin="88" yMin="0" xMax="1130" yMax="1305">
      <contour>
        <pt x="1106" y="1188" on="1"/>
        <pt x="999" y="1188" on="1"/>
        <pt x="555" y="563" on="1"/>
        <pt x="461" y="117" on="1"/>
        <pt x="672" y="117" on="1"/>
        <pt x="647" y="0" on="1"/>
        <pt x="88" y="0" on="1"/>
        <pt x="113" y="117" on="1"/>
        <pt x="324" y="117" on="1"/>
        <pt x="418" y="563" on="1"/>
        <pt x="240" y="1188" on="1"/>
        <pt x="133" y="1188" on="1"/>
        <pt x="158" y="1305" on="1"/>
        <pt x="526" y="1305" on="1"/>
        <pt x="502" y="1188" on="1"/>
        <pt x="393" y="1188" on="1"/>
        <pt x="516" y="696" on="1"/>
        <pt x="846" y="1188" on="1"/>
        <pt x="737" y="1188" on="1"/>
        <pt x="762" y="1305" on="1"/>
        <pt x="1130" y="1305" on="1"/>
      </contour>
    </TTGlyph>
    <TTGlyph name="Upsilondieresis" xMin="88" yMin="0" xMax="1130" yMax="1678">
      <component glyphName="dieresis" x="80" y="373" flags="0x200"/>
      <component glyphName="Upsilon" x="0" y="0" flags="0x0"/>
    </TTGlyph>
    <TTGlyph name="Upsilontonos" xMin="-25" yMin="0" xMax="1130" yMax="1583">
      <component glyphName="Upsilon" x="0" y="0" flags="0x200"/>
      <component glyphName="tonos" x="-562" y="0" flags="0x0"/>
    </TTGlyph>
    <TTGlyph name="Uring" xMin="25" yMin="-23" xMax="1061" yMax="1854">
      <component glyphName="U" x="0" y="0" flags="0x204"/>
      <component glyphName="ring" x="80" y="371" flags="0x4"/>
    </TTGlyph>
    <TTGlyph name="Utilde" xMin="25" yMin="-23" xMax="1088" yMax="1651">
      <component glyphName="U" x="0" y="0" flags="0x204"/>
      <component glyphName="tilde" x="80" y="371" flags="0x4"/>
    </TTGlyph>
    <TTGlyph name="V" xMin="119" yMin="0" xMax="1174" yMax="1305">
      <contour>
        <pt x="1174" y="1305" on="1"/>
        <pt x="461" y="0" on="1"/>
        <pt x="274" y="0" on="1"/>
        <pt x="119" y="1305" on="1"/>
        <pt x="264" y="1305" on="1"/>
        <pt x="397" y="139" on="1"/>
        <pt x="1024" y="1305" on="1"/>
      </contour>
    </TTGlyph>
    <TTGlyph name="W" xMin="72" yMin="0" xMax="1174" yMax="1305">
      <contour>
        <pt x="1174" y="1305" on="1"/>
        <pt x="662" y="0" on="1"/>
        <pt x="500" y="0" on="1"/>
        <pt x="502" y="637" on="1"/>
        <pt x="231" y="0" on="1"/>
        <pt x="72" y="0" on="1"/>
        <pt x="115" y="1305" on="1"/>
        <pt x="260" y="1305" on="1"/>
        <pt x="217" y="231" on="1"/>
        <pt x="496" y="932" on="1"/>
        <pt x="631" y="932" on="1"/>
        <pt x="614" y="231" on="1"/>
        <pt x="1026" y="1305" on="1"/>
      </contour>
    </TTGlyph>
    <TTGlyph name="Wacute" xMin="72" yMin="0" xMax="1174" yMax="1737">
      <component glyphName="W" x="0" y="0" flags="0x204"/>
      <component glyphName="acute" x="80" y="373" flags="0x4"/>
    </TTGlyph>
    <TTGlyph name="Wcircumflex" xMin="72" yMin="0" xMax="1174" yMax="1739">
      <component glyphName="W" x="0" y="0" flags="0x204"/>
      <component glyphName="circumflex" x="80" y="371" flags="0x4"/>
    </TTGlyph>
    <TTGlyph name="Wdieresis" xMin="72" yMin="0" xMax="1174" yMax="1678">
      <component glyphName="W" x="0" y="0" flags="0x204"/>
      <component glyphName="dieresis" x="80" y="373" flags="0x4"/>
    </TTGlyph>
    <TTGlyph name="Wgrave" xMin="72" yMin="0" xMax="1174" yMax="1741">
      <component glyphName="W" x="0" y="0" flags="0x204"/>
      <component glyphName="grave" x="80" y="377" flags="0x4"/>
    </TTGlyph>
    <TTGlyph name="X" xMin="-121" yMin="0" xMax="1110" yMax="1305">
      <contour>
        <pt x="856" y="0" on="1"/>
        <pt x="485" y="0" on="1"/>
        <pt x="510" y="117" on="1"/>
        <pt x="598" y="117" on="1"/>
        <pt x="483" y="545" on="1"/>
        <pt x="186" y="117" on="1"/>
        <pt x="274" y="117" on="1"/>
        <pt x="250" y="0" on="1"/>
        <pt x="-121" y="0" on="1"/>
        <pt x="-96" y="117" on="1"/>
        <pt x="31" y="117" on="1"/>
        <pt x="428" y="657" on="1"/>
        <pt x="262" y="1188" on="1"/>
        <pt x="154" y="1188" on="1"/>
        <pt x="178" y="1305" on="1"/>
        <pt x="551" y="1305" on="1"/>
        <pt x="526" y="1188" on="1"/>
        <pt x="418" y="1188" on="1"/>
        <pt x="530" y="770" on="1"/>
        <pt x="817" y="1188" on="1"/>
        <pt x="713" y="1188" on="1"/>
        <pt x="737" y="1305" on="1"/>
        <pt x="1110" y="1305" on="1"/>
        <pt x="1085" y="1188" on="1"/>
        <pt x="973" y="1188" on="1"/>
        <pt x="588" y="657" on="1"/>
        <pt x="754" y="117" on="1"/>
        <pt x="881" y="117" on="1"/>
      </contour>
    </TTGlyph>
    <TTGlyph name="Xi" xMin="-98" yMin="0" xMax="1110" yMax="1305">
      <contour>
        <pt x="-35" y="301" on="1"/>
        <pt x="86" y="301" on="1"/>
        <pt x="47" y="117" on="1"/>
        <pt x="737" y="117" on="1"/>
        <pt x="776" y="301" on="1"/>
        <pt x="897" y="301" on="1"/>
        <pt x="834" y="0" on="1"/>
        <pt x="-98" y="0" on="1"/>
      </contour>
      <contour>
        <pt x="965" y="1188" on="1"/>
        <pt x="274" y="1188" on="1"/>
        <pt x="233" y="1001" on="1"/>
        <pt x="113" y="1001" on="1"/>
        <pt x="178" y="1305" on="1"/>
        <pt x="1110" y="1305" on="1"/>
        <pt x="1044" y="1001" on="1"/>
        <pt x="924" y="1001" on="1"/>
      </contour>
      <contour>
        <pt x="281" y="711" on="1"/>
        <pt x="752" y="711" on="1"/>
        <pt x="727" y="594" on="1"/>
        <pt x="256" y="594" on="1"/>
      </contour>
    </TTGlyph>
    <TTGlyph name="Y" xMin="88" yMin="0" xMax="1130" yMax="1305">
      <contour>
        <pt x="1106" y="1188" on="1"/>
        <pt x="999" y="1188" on="1"/>
        <pt x="555" y="563" on="1"/>
        <pt x="461" y="117" on="1"/>
        <pt x="672" y="117" on="1"/>
        <pt x="647" y="0" on="1"/>
        <pt x="88" y="0" on="1"/>
        <pt x="113" y="117" on="1"/>
        <pt x="324" y="117" on="1"/>
        <pt x="418" y="563" on="1"/>
        <pt x="240" y="1188" on="1"/>
        <pt x="133" y="1188" on="1"/>
        <pt x="158" y="1305" on="1"/>
        <pt x="526" y="1305" on="1"/>
        <pt x="502" y="1188" on="1"/>
        <pt x="393" y="1188" on="1"/>
        <pt x="516" y="696" on="1"/>
        <pt x="846" y="1188" on="1"/>
        <pt x="737" y="1188" on="1"/>
        <pt x="762" y="1305" on="1"/>
        <pt x="1130" y="1305" on="1"/>
      </contour>
    </TTGlyph>
    <TTGlyph name="Yacute" xMin="88" yMin="0" xMax="1130" yMax="1735">
      <component glyphName="Y" x="0" y="0" flags="0x204"/>
      <component glyphName="acute" x="80" y="371" flags="0x4"/>
    </TTGlyph>
    <TTGlyph name="Ycircumflex" xMin="88" yMin="0" xMax="1130" yMax="1739">
      <component glyphName="Y" x="0" y="0" flags="0x204"/>
      <component glyphName="circumflex" x="80" y="371" flags="0x4"/>
    </TTGlyph>
    <TTGlyph name="Ydieresis" xMin="88" yMin="0" xMax="1130" yMax="1676">
      <component glyphName="Y" x="0" y="0" flags="0x200"/>
      <component glyphName="dieresis" x="80" y="371" flags="0x0"/>
    </TTGlyph>
    <TTGlyph name="Ygrave" xMin="88" yMin="0" xMax="1130" yMax="1741">
      <component glyphName="Y" x="0" y="0" flags="0x204"/>
      <component glyphName="grave" x="80" y="377" flags="0x4"/>
    </TTGlyph>
    <TTGlyph name="Z" xMin="-49" yMin="0" xMax="1044" yMax="1305">
      <contour>
        <pt x="788" y="0" on="1"/>
        <pt x="-49" y="0" on="1"/>
        <pt x="-25" y="117" on="1"/>
        <pt x="858" y="1188" on="1"/>
        <pt x="319" y="1188" on="1"/>
        <pt x="252" y="868" on="1"/>
        <pt x="135" y="868" on="1"/>
        <pt x="227" y="1305" on="1"/>
        <pt x="1044" y="1305" on="1"/>
        <pt x="1020" y="1188" on="1"/>
        <pt x="143" y="117" on="1"/>
        <pt x="696" y="117" on="1"/>
        <pt x="764" y="442" on="1"/>
        <pt x="881" y="442" on="1"/>
      </contour>
    </TTGlyph>
    <TTGlyph name="Zacute" xMin="-49" yMin="0" xMax="1044" yMax="1737">
      <component glyphName="Z" x="0" y="0" flags="0x204"/>
      <component glyphName="acute" x="80" y="373" flags="0x4"/>
    </TTGlyph>
    <TTGlyph name="Zcaron" xMin="-49" yMin="0" xMax="1044" yMax="1741">
      <component glyphName="Z" x="0" y="0" flags="0x204"/>
      <component glyphName="caron" x="80" y="373" flags="0x4"/>
    </TTGlyph>
    <TTGlyph name="Zdotaccent" xMin="-49" yMin="0" xMax="1044" yMax="1678">
      <component glyphName="Z" x="0" y="0" flags="0x204"/>
      <component glyphName="dotaccent" x="80" y="373" flags="0x4"/>
    </TTGlyph>
    <TTGlyph name="Zeta" xMin="-49" yMin="0" xMax="1044" yMax="1305">
      <contour>
        <pt x="788" y="0" on="1"/>
        <pt x="-49" y="0" on="1"/>
        <pt x="-25" y="117" on="1"/>
        <pt x="858" y="1188" on="1"/>
        <pt x="319" y="1188" on="1"/>
        <pt x="252" y="868" on="1"/>
        <pt x="135" y="868" on="1"/>
        <pt x="227" y="1305" on="1"/>
        <pt x="1044" y="1305" on="1"/>
        <pt x="1020" y="1188" on="1"/>
        <pt x="143" y="117" on="1"/>
        <pt x="696" y="117" on="1"/>
        <pt x="764" y="442" on="1"/>
        <pt x="881" y="442" on="1"/>
      </contour>
    </TTGlyph>
    <TTGlyph name="a" xMin="-76" yMin="-23" xMax="932" yMax="954">
      <contour>
        <pt x="-47" y="252" on="1"/>
        <pt x="-29" y="340" on="0"/>
        <pt x="84" y="459" on="0"/>
        <pt x="242" y="528" on="0"/>
        <pt x="434" y="559" on="0"/>
        <pt x="530" y="559" on="1"/>
        <pt x="567" y="559" on="0"/>
        <pt x="625" y="557" on="0"/>
        <pt x="678" y="553" on="0"/>
        <pt x="729" y="547" on="0"/>
        <pt x="762" y="543" on="1"/>
        <pt x="776" y="610" on="1"/>
        <pt x="791" y="678" on="0"/>
        <pt x="750" y="766" on="0"/>
        <pt x="674" y="817" on="0"/>
        <pt x="584" y="838" on="0"/>
        <pt x="551" y="838" on="1"/>
        <pt x="446" y="838" on="0"/>
        <pt x="260" y="782" on="0"/>
        <pt x="174" y="735" on="1"/>
        <pt x="133" y="838" on="1"/>
        <pt x="229" y="889" on="0"/>
        <pt x="453" y="954" on="0"/>
        <pt x="578" y="954" on="1"/>
        <pt x="653" y="954" on="0"/>
        <pt x="793" y="915" on="0"/>
        <pt x="891" y="834" on="0"/>
        <pt x="932" y="702" on="0"/>
        <pt x="913" y="610" on="1"/>
        <pt x="784" y="0" on="1"/>
        <pt x="647" y="0" on="1"/>
        <pt x="680" y="156" on="1"/>
        <pt x="633" y="111" on="0"/>
        <pt x="528" y="43" on="0"/>
        <pt x="420" y="0" on="0"/>
        <pt x="313" y="-23" on="0"/>
        <pt x="268" y="-23" on="1"/>
        <pt x="84" y="-23" on="0"/>
        <pt x="-76" y="119" on="0"/>
      </contour>
      <contour>
        <pt x="293" y="94" on="1"/>
        <pt x="379" y="94" on="0"/>
        <pt x="528" y="145" on="0"/>
        <pt x="639" y="221" on="0"/>
        <pt x="711" y="307" on="0"/>
        <pt x="719" y="342" on="1"/>
        <pt x="737" y="430" on="1"/>
        <pt x="672" y="440" on="0"/>
        <pt x="549" y="442" on="0"/>
        <pt x="504" y="442" on="1"/>
        <pt x="430" y="442" on="0"/>
        <pt x="289" y="422" on="0"/>
        <pt x="178" y="377" on="0"/>
        <pt x="100" y="305" on="0"/>
        <pt x="90" y="252" on="1"/>
        <pt x="76" y="193" on="0"/>
        <pt x="170" y="94" on="0"/>
      </contour>
    </TTGlyph>
    <TTGlyph name="aacute" xMin="-74" yMin="-23" xMax="934" yMax="1363">
      <component glyphName="a" x="2" y="0" flags="0x204"/>
      <component glyphName="acute" x="0" y="-1" flags="0x4"/>
    </TTGlyph>
    <TTGlyph name="abreve" xMin="-74" yMin="-23" xMax="934" yMax="1285">
      <component glyphName="a" x="2" y="0" flags="0x204"/>
      <component glyphName="breve" x="0" y="-1" flags="0x4"/>
    </TTGlyph>
    <TTGlyph name="acircumflex" xMin="-74" yMin="-23" xMax="934" yMax="1367">
      <component glyphName="a" x="2" y="0" flags="0x204"/>
      <component glyphName="circumflex" x="0" y="-1" flags="0x4"/>
    </TTGlyph>
    <TTGlyph name="acute" xMin="371" yMin="1012" xMax="879" yMax="1364">
      <contour>
        <pt x="879" y="1255" on="1"/>
        <pt x="395" y="1012" on="1"/>
        <pt x="371" y="1077" on="1"/>
        <pt x="836" y="1364" on="1"/>
      </contour>
    </TTGlyph>
    <TTGlyph name="adieresis" xMin="-74" yMin="-23" xMax="934" yMax="1305">
      <component glyphName="a" x="2" y="0" flags="0x204"/>
      <component glyphName="dieresis" x="0" y="0" flags="0x4"/>
    </TTGlyph>
    <TTGlyph name="ae" xMin="-104" yMin="-23" xMax="985" yMax="954">
      <contour>
        <pt x="385" y="170" on="1"/>
        <pt x="367" y="135" on="0"/>
        <pt x="309" y="68" on="0"/>
        <pt x="236" y="12" on="0"/>
        <pt x="150" y="-23" on="0"/>
        <pt x="100" y="-23" on="1"/>
        <pt x="-16" y="-23" on="0"/>
        <pt x="-104" y="135" on="0"/>
        <pt x="-82" y="254" on="1"/>
        <pt x="-66" y="334" on="0"/>
        <pt x="16" y="451" on="0"/>
        <pt x="125" y="524" on="0"/>
        <pt x="254" y="559" on="0"/>
        <pt x="317" y="559" on="1"/>
        <pt x="340" y="559" on="0"/>
        <pt x="385" y="557" on="0"/>
        <pt x="408" y="553" on="1"/>
        <pt x="428" y="649" on="1"/>
        <pt x="444" y="725" on="0"/>
        <pt x="399" y="840" on="0"/>
        <pt x="328" y="840" on="1"/>
        <pt x="287" y="840" on="0"/>
        <pt x="176" y="768" on="0"/>
        <pt x="129" y="709" on="1"/>
        <pt x="61" y="793" on="1"/>
        <pt x="96" y="836" on="0"/>
        <pt x="180" y="897" on="0"/>
        <pt x="258" y="936" on="0"/>
        <pt x="328" y="954" on="0"/>
        <pt x="352" y="954" on="1"/>
        <pt x="430" y="954" on="0"/>
        <pt x="526" y="885" on="0"/>
        <pt x="532" y="807" on="1"/>
        <pt x="578" y="885" on="0"/>
        <pt x="725" y="954" on="0"/>
        <pt x="795" y="954" on="1"/>
        <pt x="887" y="954" on="0"/>
        <pt x="969" y="842" on="0"/>
        <pt x="985" y="678" on="0"/>
        <pt x="961" y="492" on="0"/>
        <pt x="944" y="418" on="1"/>
        <pt x="516" y="418" on="1"/>
        <pt x="481" y="252" on="0"/>
        <pt x="526" y="104" on="0"/>
        <pt x="604" y="104" on="1"/>
        <pt x="651" y="104" on="0"/>
        <pt x="735" y="162" on="0"/>
        <pt x="768" y="227" on="1"/>
        <pt x="877" y="190" on="1"/>
        <pt x="819" y="82" on="0"/>
        <pt x="672" y="-23" on="0"/>
        <pt x="569" y="-23" on="1"/>
        <pt x="494" y="-23" on="0"/>
        <pt x="389" y="78" on="0"/>
      </contour>
      <contour>
        <pt x="821" y="539" on="1"/>
        <pt x="856" y="702" on="0"/>
        <pt x="823" y="840" on="0"/>
        <pt x="752" y="840" on="1"/>
        <pt x="686" y="840" on="0"/>
        <pt x="578" y="707" on="0"/>
        <pt x="541" y="539" on="1"/>
      </contour>
      <contour>
        <pt x="383" y="438" on="1"/>
        <pt x="371" y="440" on="0"/>
        <pt x="326" y="442" on="0"/>
        <pt x="303" y="442" on="1"/>
        <pt x="217" y="442" on="0"/>
        <pt x="74" y="346" on="0"/>
        <pt x="53" y="244" on="1"/>
        <pt x="41" y="190" on="0"/>
        <pt x="82" y="104" on="0"/>
        <pt x="141" y="104" on="1"/>
        <pt x="174" y="104" on="0"/>
        <pt x="244" y="135" on="0"/>
        <pt x="301" y="188" on="0"/>
        <pt x="344" y="260" on="0"/>
        <pt x="354" y="301" on="1"/>
      </contour>
    </TTGlyph>
    <TTGlyph name="aeacute" xMin="-104" yMin="-23" xMax="985" yMax="1366">
      <component glyphName="ae" x="0" y="0" flags="0x204"/>
      <component glyphName="acute" x="0" y="2" flags="0x4"/>
    </TTGlyph>
    <TTGlyph name="afii00208" xMin="-10" yMin="420" xMax="948" yMax="537">
      <contour>
        <pt x="922" y="420" on="1"/>
        <pt x="-10" y="420" on="1"/>
        <pt x="16" y="537" on="1"/>
        <pt x="948" y="537" on="1"/>
      </contour>
    </TTGlyph>
    <TTGlyph name="afii10017" xMin="-158" yMin="0" xMax="897" yMax="1305">
      <contour>
        <pt x="897" y="0" on="1"/>
        <pt x="750" y="0" on="1"/>
        <pt x="705" y="373" on="1"/>
        <pt x="188" y="373" on="1"/>
        <pt x="-10" y="0" on="1"/>
        <pt x="-158" y="0" on="1"/>
        <pt x="553" y="1305" on="1"/>
        <pt x="739" y="1305" on="1"/>
      </contour>
      <contour>
        <pt x="692" y="494" on="1"/>
        <pt x="616" y="1167" on="1"/>
        <pt x="254" y="494" on="1"/>
      </contour>
    </TTGlyph>
    <TTGlyph name="afii10018" xMin="-49" yMin="0" xMax="1061" yMax="1305">
      <contour>
        <pt x="772" y="369" on="1"/>
        <pt x="799" y="496" on="0"/>
        <pt x="657" y="629" on="0"/>
        <pt x="516" y="629" on="1"/>
        <pt x="221" y="629" on="1"/>
        <pt x="113" y="117" on="1"/>
        <pt x="408" y="117" on="1"/>
        <pt x="549" y="117" on="0"/>
        <pt x="745" y="244" on="0"/>
      </contour>
      <contour>
        <pt x="246" y="745" on="1"/>
        <pt x="541" y="745" on="1"/>
        <pt x="754" y="745" on="0"/>
        <pt x="948" y="557" on="0"/>
        <pt x="909" y="369" on="1"/>
        <pt x="868" y="182" on="0"/>
        <pt x="596" y="0" on="0"/>
        <pt x="381" y="0" on="1"/>
        <pt x="-49" y="0" on="1"/>
        <pt x="227" y="1305" on="1"/>
        <pt x="1061" y="1305" on="1"/>
        <pt x="1036" y="1188" on="1"/>
        <pt x="340" y="1188" on="1"/>
      </contour>
    </TTGlyph>
    <TTGlyph name="afii10019" xMin="-49" yMin="0" xMax="1014" yMax="1305">
      <contour>
        <pt x="909" y="373" on="1"/>
        <pt x="870" y="186" on="0"/>
        <pt x="590" y="0" on="0"/>
        <pt x="367" y="0" on="1"/>
        <pt x="-49" y="0" on="1"/>
        <pt x="227" y="1305" on="1"/>
        <pt x="621" y="1305" on="1"/>
        <pt x="702" y="1305" on="0"/>
        <pt x="854" y="1278" on="0"/>
        <pt x="963" y="1204" on="0"/>
        <pt x="1014" y="1073" on="0"/>
        <pt x="991" y="967" on="1"/>
        <pt x="948" y="764" on="0"/>
        <pt x="729" y="690" on="1"/>
        <pt x="961" y="614" on="0"/>
      </contour>
      <contour>
        <pt x="854" y="967" on="1"/>
        <pt x="868" y="1036" on="0"/>
        <pt x="829" y="1124" on="0"/>
        <pt x="750" y="1171" on="0"/>
        <pt x="645" y="1188" on="0"/>
        <pt x="596" y="1188" on="1"/>
        <pt x="340" y="1188" on="1"/>
        <pt x="246" y="745" on="1"/>
        <pt x="502" y="745" on="1"/>
        <pt x="557" y="745" on="0"/>
        <pt x="670" y="762" on="0"/>
        <pt x="766" y="811" on="0"/>
        <pt x="840" y="897" on="0"/>
      </contour>
      <contour>
        <pt x="772" y="373" on="1"/>
        <pt x="801" y="508" on="0"/>
        <pt x="653" y="631" on="0"/>
        <pt x="500" y="631" on="1"/>
        <pt x="221" y="631" on="1"/>
        <pt x="113" y="117" on="1"/>
        <pt x="391" y="117" on="1"/>
        <pt x="545" y="117" on="0"/>
        <pt x="745" y="246" on="0"/>
      </contour>
    </TTGlyph>
    <TTGlyph name="afii10020" xMin="-49" yMin="0" xMax="1110" yMax="1305">
      <contour>
        <pt x="227" y="1305" on="1"/>
        <pt x="1110" y="1305" on="1"/>
        <pt x="1085" y="1188" on="1"/>
        <pt x="340" y="1188" on="1"/>
        <pt x="88" y="0" on="1"/>
        <pt x="-49" y="0" on="1"/>
      </contour>
    </TTGlyph>
    <TTGlyph name="afii10021" xMin="-166" yMin="-319" xMax="924" yMax="1305">
      <contour>
        <pt x="-74" y="117" on="1"/>
        <pt x="-6" y="166" on="0"/>
        <pt x="104" y="279" on="0"/>
        <pt x="205" y="467" on="0"/>
        <pt x="297" y="758" on="0"/>
        <pt x="346" y="983" on="1"/>
        <pt x="414" y="1305" on="1"/>
        <pt x="924" y="1305" on="1"/>
        <pt x="672" y="117" on="1"/>
        <pt x="858" y="117" on="1"/>
        <pt x="764" y="-319" on="1"/>
        <pt x="641" y="-319" on="1"/>
        <pt x="711" y="0" on="1"/>
        <pt x="25" y="0" on="1"/>
        <pt x="-45" y="-319" on="1"/>
        <pt x="-166" y="-319" on="1"/>
      </contour>
      <contour>
        <pt x="483" y="983" on="1"/>
        <pt x="444" y="807" on="0"/>
        <pt x="365" y="537" on="0"/>
        <pt x="272" y="328" on="0"/>
        <pt x="160" y="174" on="0"/>
        <pt x="90" y="117" on="1"/>
        <pt x="535" y="117" on="1"/>
        <pt x="762" y="1188" on="1"/>
        <pt x="526" y="1188" on="1"/>
      </contour>
    </TTGlyph>
    <TTGlyph name="afii10022" xMin="-49" yMin="0" xMax="1061" yMax="1305">
      <contour>
        <pt x="784" y="0" on="1"/>
        <pt x="-49" y="0" on="1"/>
        <pt x="227" y="1305" on="1"/>
        <pt x="1061" y="1305" on="1"/>
        <pt x="1036" y="1188" on="1"/>
        <pt x="340" y="1188" on="1"/>
        <pt x="240" y="721" on="1"/>
        <pt x="754" y="721" on="1"/>
        <pt x="729" y="604" on="1"/>
        <pt x="215" y="604" on="1"/>
        <pt x="113" y="117" on="1"/>
        <pt x="809" y="117" on="1"/>
      </contour>
    </TTGlyph>
    <TTGlyph name="afii10023" xMin="-49" yMin="0" xMax="1061" yMax="1678">
      <component glyphName="afii10022" x="0" y="0" flags="0x204"/>
      <component glyphName="dieresis" x="80" y="373" flags="0x4"/>
    </TTGlyph>
    <TTGlyph name="afii10024" xMin="-162" yMin="0" xMax="1174" yMax="1305">
      <contour>
        <pt x="299" y="0" on="1"/>
        <pt x="408" y="518" on="1"/>
        <pt x="375" y="618" on="1"/>
        <pt x="-18" y="0" on="1"/>
        <pt x="-162" y="0" on="1"/>
        <pt x="313" y="737" on="1"/>
        <pt x="115" y="1305" on="1"/>
        <pt x="264" y="1305" on="1"/>
        <pt x="453" y="725" on="1"/>
        <pt x="575" y="1305" on="1"/>
        <pt x="713" y="1305" on="1"/>
        <pt x="590" y="725" on="1"/>
        <pt x="1024" y="1305" on="1"/>
        <pt x="1174" y="1305" on="1"/>
        <pt x="733" y="737" on="1"/>
        <pt x="897" y="0" on="1"/>
        <pt x="754" y="0" on="1"/>
        <pt x="623" y="618" on="1"/>
        <pt x="545" y="518" on="1"/>
        <pt x="436" y="0" on="1"/>
      </contour>
    </TTGlyph>
    <TTGlyph name="afii10025" xMin="-3" yMin="-23" xMax="1021" yMax="1327">
      <contour>
        <pt x="898" y="360" on="1"/>
        <pt x="880" y="274" on="0"/>
        <pt x="780" y="133" on="0"/>
        <pt x="642" y="33" on="0"/>
        <pt x="477" y="-23" on="0"/>
        <pt x="393" y="-23" on="1"/>
        <pt x="299" y="-23" on="0"/>
        <pt x="146" y="28" on="0"/>
        <pt x="43" y="130" on="0"/>
        <pt x="-3" y="280" on="0"/>
        <pt x="10" y="379" on="1"/>
        <pt x="146" y="397" on="1"/>
        <pt x="126" y="247" on="0"/>
        <pt x="203" y="170" on="1"/>
        <pt x="279" y="94" on="0"/>
        <pt x="418" y="94" on="1"/>
        <pt x="477" y="94" on="0"/>
        <pt x="589" y="134" on="0"/>
        <pt x="682" y="204" on="0"/>
        <pt x="748" y="302" on="0"/>
        <pt x="760" y="360" on="1"/>
        <pt x="777" y="440" on="0"/>
        <pt x="749" y="541" on="0"/>
        <pt x="664" y="598" on="0"/>
        <pt x="526" y="618" on="0"/>
        <pt x="434" y="618" on="1"/>
        <pt x="459" y="735" on="1"/>
        <pt x="526" y="735" on="0"/>
        <pt x="659" y="757" on="0"/>
        <pt x="770" y="811" on="0"/>
        <pt x="851" y="900" on="0"/>
        <pt x="865" y="967" on="1"/>
        <pt x="889" y="1077" on="0"/>
        <pt x="830" y="1143" on="1"/>
        <pt x="771" y="1210" on="0"/>
        <pt x="655" y="1210" on="1"/>
        <pt x="590" y="1210" on="0"/>
        <pt x="458" y="1160" on="0"/>
        <pt x="408" y="1119" on="1"/>
        <pt x="360" y="1081" on="0"/>
        <pt x="282" y="969" on="0"/>
        <pt x="266" y="893" on="1"/>
        <pt x="141" y="893" on="1"/>
        <pt x="228" y="1305" on="1"/>
        <pt x="345" y="1305" on="1"/>
        <pt x="313" y="1153" on="1"/>
        <pt x="347" y="1202" on="0"/>
        <pt x="435" y="1268" on="0"/>
        <pt x="532" y="1309" on="0"/>
        <pt x="632" y="1327" on="0"/>
        <pt x="680" y="1327" on="1"/>
        <pt x="764" y="1327" on="0"/>
        <pt x="900" y="1278" on="0"/>
        <pt x="987" y="1186" on="0"/>
        <pt x="1021" y="1052" on="0"/>
        <pt x="1002" y="967" on="1"/>
        <pt x="979" y="855" on="0"/>
        <pt x="816" y="709" on="0"/>
        <pt x="688" y="690" on="1"/>
        <pt x="754" y="680" on="0"/>
        <pt x="847" y="620" on="0"/>
        <pt x="899" y="531" on="0"/>
        <pt x="911" y="420" on="0"/>
      </contour>
    </TTGlyph>
    <TTGlyph name="afii10026" xMin="-49" yMin="0" xMax="1061" yMax="1305">
      <contour>
        <pt x="227" y="1305" on="1"/>
        <pt x="365" y="1305" on="1"/>
        <pt x="141" y="252" on="1"/>
        <pt x="868" y="1305" on="1"/>
        <pt x="1061" y="1305" on="1"/>
        <pt x="784" y="0" on="1"/>
        <pt x="647" y="0" on="1"/>
        <pt x="881" y="1104" on="1"/>
        <pt x="121" y="0" on="1"/>
        <pt x="-49" y="0" on="1"/>
      </contour>
    </TTGlyph>
    <TTGlyph name="afii10027" xMin="-49" yMin="0" xMax="1061" yMax="1657">
      <component glyphName="afii10026" x="0" y="0" flags="0x204"/>
      <component glyphName="breve" x="0" y="371" flags="0x4"/>
    </TTGlyph>
    <TTGlyph name="afii10028" xMin="-49" yMin="0" xMax="1104" yMax="1305">
      <contour>
        <pt x="827" y="0" on="1"/>
        <pt x="659" y="0" on="1"/>
        <pt x="360" y="639" on="1"/>
        <pt x="190" y="485" on="1"/>
        <pt x="88" y="0" on="1"/>
        <pt x="-49" y="0" on="1"/>
        <pt x="227" y="1305" on="1"/>
        <pt x="365" y="1305" on="1"/>
        <pt x="229" y="670" on="1"/>
        <pt x="924" y="1305" on="1"/>
        <pt x="1104" y="1305" on="1"/>
        <pt x="471" y="735" on="1"/>
      </contour>
    </TTGlyph>
    <TTGlyph name="afii10029" xMin="-121" yMin="-23" xMax="1061" yMax="1305">
      <contour>
        <pt x="1061" y="1305" on="1"/>
        <pt x="784" y="0" on="1"/>
        <pt x="647" y="0" on="1"/>
        <pt x="899" y="1188" on="1"/>
        <pt x="477" y="1188" on="1"/>
        <pt x="268" y="207" on="1"/>
        <pt x="256" y="152" on="0"/>
        <pt x="201" y="66" on="0"/>
        <pt x="127" y="8" on="0"/>
        <pt x="39" y="-23" on="0"/>
        <pt x="-6" y="-23" on="1"/>
        <pt x="-90" y="-23" on="0"/>
        <pt x="-121" y="2" on="1"/>
        <pt x="-74" y="111" on="1"/>
        <pt x="-61" y="102" on="0"/>
        <pt x="-29" y="94" on="0"/>
        <pt x="0" y="94" on="1"/>
        <pt x="106" y="94" on="0"/>
        <pt x="131" y="207" on="1"/>
        <pt x="365" y="1305" on="1"/>
      </contour>
    </TTGlyph>
    <TTGlyph name="afii10030" xMin="-49" yMin="0" xMax="1061" yMax="1305">
      <contour>
        <pt x="784" y="0" on="1"/>
        <pt x="647" y="0" on="1"/>
        <pt x="877" y="1087" on="1"/>
        <pt x="502" y="414" on="1"/>
        <pt x="403" y="414" on="1"/>
        <pt x="317" y="1087" on="1"/>
        <pt x="88" y="0" on="1"/>
        <pt x="-49" y="0" on="1"/>
        <pt x="227" y="1305" on="1"/>
        <pt x="406" y="1305" on="1"/>
        <pt x="498" y="623" on="1"/>
        <pt x="883" y="1305" on="1"/>
        <pt x="1061" y="1305" on="1"/>
      </contour>
    </TTGlyph>
    <TTGlyph name="afii10031" xMin="-49" yMin="0" xMax="1061" yMax="1305">
      <contour>
        <pt x="784" y="0" on="1"/>
        <pt x="647" y="0" on="1"/>
        <pt x="774" y="604" on="1"/>
        <pt x="215" y="604" on="1"/>
        <pt x="88" y="0" on="1"/>
        <pt x="-49" y="0" on="1"/>
        <pt x="227" y="1305" on="1"/>
        <pt x="365" y="1305" on="1"/>
        <pt x="240" y="721" on="1"/>
        <pt x="799" y="721" on="1"/>
        <pt x="924" y="1305" on="1"/>
        <pt x="1061" y="1305" on="1"/>
      </contour>
    </TTGlyph>
    <TTGlyph name="afii10032" xMin="-23" yMin="-23" xMax="1034" yMax="1327">
      <contour>
        <pt x="1006" y="651" on="1"/>
        <pt x="977" y="520" on="0"/>
        <pt x="872" y="276" on="0"/>
        <pt x="715" y="90" on="0"/>
        <pt x="500" y="-23" on="0"/>
        <pt x="362" y="-23" on="1"/>
        <pt x="225" y="-23" on="0"/>
        <pt x="59" y="90" on="0"/>
        <pt x="-20" y="276" on="0"/>
        <pt x="-23" y="520" on="0"/>
        <pt x="6" y="651" on="1"/>
        <pt x="35" y="782" on="0"/>
        <pt x="139" y="1026" on="0"/>
        <pt x="301" y="1214" on="0"/>
        <pt x="514" y="1327" on="0"/>
        <pt x="649" y="1327" on="1"/>
        <pt x="784" y="1327" on="0"/>
        <pt x="952" y="1214" on="0"/>
        <pt x="1030" y="1026" on="0"/>
        <pt x="1034" y="782" on="0"/>
      </contour>
      <contour>
        <pt x="868" y="651" on="1"/>
        <pt x="895" y="780" on="0"/>
        <pt x="891" y="987" on="0"/>
        <pt x="829" y="1133" on="0"/>
        <pt x="711" y="1210" on="0"/>
        <pt x="625" y="1210" on="1"/>
        <pt x="518" y="1210" on="0"/>
        <pt x="358" y="1110" on="0"/>
        <pt x="240" y="948" on="0"/>
        <pt x="164" y="750" on="0"/>
        <pt x="143" y="651" on="1"/>
        <pt x="123" y="553" on="0"/>
        <pt x="113" y="354" on="0"/>
        <pt x="164" y="195" on="0"/>
        <pt x="281" y="94" on="0"/>
        <pt x="387" y="94" on="1"/>
        <pt x="494" y="94" on="0"/>
        <pt x="655" y="195" on="0"/>
        <pt x="772" y="354" on="0"/>
        <pt x="848" y="553" on="0"/>
      </contour>
    </TTGlyph>
    <TTGlyph name="afii10033" xMin="-49" yMin="0" xMax="1061" yMax="1305">
      <contour>
        <pt x="784" y="0" on="1"/>
        <pt x="647" y="0" on="1"/>
        <pt x="899" y="1188" on="1"/>
        <pt x="340" y="1188" on="1"/>
        <pt x="88" y="0" on="1"/>
        <pt x="-49" y="0" on="1"/>
        <pt x="227" y="1305" on="1"/>
        <pt x="1061" y="1305" on="1"/>
      </contour>
    </TTGlyph>
    <TTGlyph name="afii10034" xMin="-49" yMin="0" xMax="1069" yMax="1305">
      <contour>
        <pt x="1028" y="932" on="1"/>
        <pt x="989" y="743" on="0"/>
        <pt x="715" y="559" on="0"/>
        <pt x="502" y="559" on="1"/>
        <pt x="207" y="559" on="1"/>
        <pt x="88" y="0" on="1"/>
        <pt x="-49" y="0" on="1"/>
        <pt x="227" y="1305" on="1"/>
        <pt x="657" y="1305" on="1"/>
        <pt x="872" y="1305" on="0"/>
        <pt x="1069" y="1118" on="0"/>
      </contour>
      <contour>
        <pt x="891" y="932" on="1"/>
        <pt x="920" y="1067" on="0"/>
        <pt x="776" y="1188" on="0"/>
        <pt x="635" y="1188" on="1"/>
        <pt x="340" y="1188" on="1"/>
        <pt x="231" y="676" on="1"/>
        <pt x="526" y="676" on="1"/>
        <pt x="668" y="676" on="0"/>
        <pt x="862" y="797" on="0"/>
      </contour>
    </TTGlyph>
    <TTGlyph name="afii10035" xMin="-10" yMin="-20" xMax="1110" yMax="1327">
      <contour>
        <pt x="913" y="342" on="1"/>
        <pt x="827" y="174" on="0"/>
        <pt x="553" y="-20" on="0"/>
        <pt x="377" y="-20" on="1"/>
        <pt x="240" y="-20" on="0"/>
        <pt x="74" y="90" on="0"/>
        <pt x="-8" y="276" on="0"/>
        <pt x="-10" y="520" on="0"/>
        <pt x="18" y="651" on="1"/>
        <pt x="47" y="782" on="0"/>
        <pt x="152" y="1026" on="0"/>
        <pt x="313" y="1214" on="0"/>
        <pt x="526" y="1327" on="0"/>
        <pt x="664" y="1327" on="1"/>
        <pt x="784" y="1327" on="0"/>
        <pt x="938" y="1241" on="0"/>
        <pt x="961" y="1153" on="1"/>
        <pt x="993" y="1305" on="1"/>
        <pt x="1110" y="1305" on="1"/>
        <pt x="1018" y="877" on="1"/>
        <pt x="901" y="877" on="1"/>
        <pt x="918" y="946" on="0"/>
        <pt x="889" y="1069" on="0"/>
        <pt x="819" y="1159" on="0"/>
        <pt x="707" y="1210" on="0"/>
        <pt x="639" y="1210" on="1"/>
        <pt x="532" y="1210" on="0"/>
        <pt x="373" y="1110" on="0"/>
        <pt x="254" y="948" on="0"/>
        <pt x="176" y="750" on="0"/>
        <pt x="156" y="651" on="1"/>
        <pt x="135" y="553" on="0"/>
        <pt x="127" y="354" on="0"/>
        <pt x="178" y="197" on="0"/>
        <pt x="295" y="96" on="0"/>
        <pt x="401" y="96" on="1"/>
        <pt x="645" y="96" on="0"/>
        <pt x="805" y="389" on="1"/>
      </contour>
    </TTGlyph>
    <TTGlyph name="afii10036" xMin="84" yMin="0" xMax="1110" yMax="1305">
      <contour>
        <pt x="1016" y="864" on="1"/>
        <pt x="899" y="864" on="1"/>
        <pt x="969" y="1188" on="1"/>
        <pt x="688" y="1188" on="1"/>
        <pt x="461" y="117" on="1"/>
        <pt x="672" y="117" on="1"/>
        <pt x="647" y="0" on="1"/>
        <pt x="88" y="0" on="1"/>
        <pt x="113" y="117" on="1"/>
        <pt x="324" y="117" on="1"/>
        <pt x="551" y="1188" on="1"/>
        <pt x="270" y="1188" on="1"/>
        <pt x="201" y="864" on="1"/>
        <pt x="84" y="864" on="1"/>
        <pt x="178" y="1305" on="1"/>
        <pt x="1110" y="1305" on="1"/>
      </contour>
    </TTGlyph>
    <TTGlyph name="afii10037" xMin="-98" yMin="-23" xMax="1139" yMax="1305">
      <contour>
        <pt x="1139" y="1305" on="1"/>
        <pt x="387" y="137" on="1"/>
        <pt x="328" y="39" on="0"/>
        <pt x="172" y="-23" on="0"/>
        <pt x="86" y="-23" on="1"/>
        <pt x="-10" y="-23" on="0"/>
        <pt x="-98" y="12" on="1"/>
        <pt x="-47" y="131" on="1"/>
        <pt x="-4" y="111" on="0"/>
        <pt x="82" y="94" on="0"/>
        <pt x="111" y="94" on="1"/>
        <pt x="178" y="94" on="0"/>
        <pt x="244" y="160" on="0"/>
        <pt x="272" y="205" on="1"/>
        <pt x="358" y="346" on="1"/>
        <pt x="147" y="1305" on="1"/>
        <pt x="309" y="1305" on="1"/>
        <pt x="471" y="489" on="1"/>
        <pt x="975" y="1305" on="1"/>
      </contour>
    </TTGlyph>
    <TTGlyph name="afii10038" xMin="-2" yMin="0" xMax="1018" yMax="1305">
      <contour>
        <pt x="997" y="655" on="1"/>
        <pt x="975" y="557" on="0"/>
        <pt x="879" y="389" on="0"/>
        <pt x="741" y="262" on="0"/>
        <pt x="567" y="182" on="0"/>
        <pt x="471" y="172" on="1"/>
        <pt x="436" y="0" on="1"/>
        <pt x="299" y="0" on="1"/>
        <pt x="336" y="174" on="1"/>
        <pt x="244" y="184" on="0"/>
        <pt x="106" y="264" on="0"/>
        <pt x="23" y="389" on="0"/>
        <pt x="-2" y="557" on="0"/>
        <pt x="20" y="655" on="1"/>
        <pt x="41" y="754" on="0"/>
        <pt x="135" y="922" on="0"/>
        <pt x="274" y="1051" on="0"/>
        <pt x="444" y="1130" on="0"/>
        <pt x="541" y="1143" on="1"/>
        <pt x="575" y="1305" on="1"/>
        <pt x="713" y="1305" on="1"/>
        <pt x="678" y="1143" on="1"/>
        <pt x="770" y="1133" on="0"/>
        <pt x="909" y="1051" on="0"/>
        <pt x="991" y="924" on="0"/>
        <pt x="1018" y="754" on="0"/>
      </contour>
      <contour>
        <pt x="860" y="655" on="1"/>
        <pt x="874" y="725" on="0"/>
        <pt x="862" y="850" on="0"/>
        <pt x="811" y="948" on="0"/>
        <pt x="719" y="1012" on="0"/>
        <pt x="653" y="1024" on="1"/>
        <pt x="498" y="293" on="1"/>
        <pt x="637" y="315" on="0"/>
        <pt x="829" y="514" on="0"/>
      </contour>
      <contour>
        <pt x="158" y="655" on="1"/>
        <pt x="127" y="514" on="0"/>
        <pt x="229" y="315" on="0"/>
        <pt x="360" y="293" on="1"/>
        <pt x="516" y="1024" on="1"/>
        <pt x="446" y="1012" on="0"/>
        <pt x="328" y="946" on="0"/>
        <pt x="236" y="850" on="0"/>
        <pt x="172" y="725" on="0"/>
      </contour>
    </TTGlyph>
    <TTGlyph name="afii10039" xMin="-121" yMin="0" xMax="1110" yMax="1305">
      <contour>
        <pt x="856" y="0" on="1"/>
        <pt x="485" y="0" on="1"/>
        <pt x="510" y="117" on="1"/>
        <pt x="598" y="117" on="1"/>
        <pt x="483" y="545" on="1"/>
        <pt x="186" y="117" on="1"/>
        <pt x="274" y="117" on="1"/>
        <pt x="250" y="0" on="1"/>
        <pt x="-121" y="0" on="1"/>
        <pt x="-96" y="117" on="1"/>
        <pt x="31" y="117" on="1"/>
        <pt x="428" y="657" on="1"/>
        <pt x="262" y="1188" on="1"/>
        <pt x="154" y="1188" on="1"/>
        <pt x="178" y="1305" on="1"/>
        <pt x="551" y="1305" on="1"/>
        <pt x="526" y="1188" on="1"/>
        <pt x="418" y="1188" on="1"/>
        <pt x="530" y="770" on="1"/>
        <pt x="817" y="1188" on="1"/>
        <pt x="713" y="1188" on="1"/>
        <pt x="737" y="1305" on="1"/>
        <pt x="1110" y="1305" on="1"/>
        <pt x="1085" y="1188" on="1"/>
        <pt x="973" y="1188" on="1"/>
        <pt x="588" y="657" on="1"/>
        <pt x="754" y="117" on="1"/>
        <pt x="881" y="117" on="1"/>
      </contour>
    </TTGlyph>
    <TTGlyph name="afii10040" xMin="-49" yMin="-319" xMax="1061" yMax="1305">
      <contour>
        <pt x="981" y="117" on="1"/>
        <pt x="887" y="-319" on="1"/>
        <pt x="764" y="-319" on="1"/>
        <pt x="834" y="0" on="1"/>
        <pt x="-49" y="0" on="1"/>
        <pt x="227" y="1305" on="1"/>
        <pt x="365" y="1305" on="1"/>
        <pt x="113" y="117" on="1"/>
        <pt x="672" y="117" on="1"/>
        <pt x="924" y="1305" on="1"/>
        <pt x="1061" y="1305" on="1"/>
        <pt x="809" y="117" on="1"/>
      </contour>
    </TTGlyph>
    <TTGlyph name="afii10041" xMin="25" yMin="0" xMax="1061" yMax="1305">
      <contour>
        <pt x="227" y="1305" on="1"/>
        <pt x="365" y="1305" on="1"/>
        <pt x="242" y="729" on="1"/>
        <pt x="215" y="604" on="0"/>
        <pt x="295" y="467" on="0"/>
        <pt x="416" y="467" on="1"/>
        <pt x="492" y="467" on="0"/>
        <pt x="629" y="537" on="0"/>
        <pt x="739" y="653" on="0"/>
        <pt x="817" y="805" on="0"/>
        <pt x="836" y="887" on="1"/>
        <pt x="924" y="1305" on="1"/>
        <pt x="1061" y="1305" on="1"/>
        <pt x="784" y="0" on="1"/>
        <pt x="647" y="0" on="1"/>
        <pt x="774" y="606" on="1"/>
        <pt x="623" y="350" on="0"/>
        <pt x="369" y="350" on="1"/>
        <pt x="25" y="350" on="0"/>
        <pt x="104" y="729" on="1"/>
      </contour>
    </TTGlyph>
    <TTGlyph name="afii10042" xMin="-98" yMin="0" xMax="1110" yMax="1305">
      <contour>
        <pt x="575" y="1305" on="1"/>
        <pt x="713" y="1305" on="1"/>
        <pt x="461" y="117" on="1"/>
        <pt x="721" y="117" on="1"/>
        <pt x="973" y="1305" on="1"/>
        <pt x="1110" y="1305" on="1"/>
        <pt x="834" y="0" on="1"/>
        <pt x="-98" y="0" on="1"/>
        <pt x="178" y="1305" on="1"/>
        <pt x="315" y="1305" on="1"/>
        <pt x="63" y="117" on="1"/>
        <pt x="324" y="117" on="1"/>
      </contour>
    </TTGlyph>
    <TTGlyph name="afii10043" xMin="-98" yMin="-319" xMax="1110" yMax="1305">
      <contour>
        <pt x="-98" y="0" on="1"/>
        <pt x="178" y="1305" on="1"/>
        <pt x="315" y="1305" on="1"/>
        <pt x="63" y="117" on="1"/>
        <pt x="324" y="117" on="1"/>
        <pt x="575" y="1305" on="1"/>
        <pt x="713" y="1305" on="1"/>
        <pt x="461" y="117" on="1"/>
        <pt x="721" y="117" on="1"/>
        <pt x="973" y="1305" on="1"/>
        <pt x="1110" y="1305" on="1"/>
        <pt x="858" y="117" on="1"/>
        <pt x="981" y="117" on="1"/>
        <pt x="887" y="-319" on="1"/>
        <pt x="764" y="-319" on="1"/>
        <pt x="834" y="0" on="1"/>
      </contour>
    </TTGlyph>
    <TTGlyph name="afii10044" xMin="137" yMin="0" xMax="948" yMax="1305">
      <contour>
        <pt x="178" y="1305" on="1"/>
        <pt x="551" y="1305" on="1"/>
        <pt x="432" y="745" on="1"/>
        <pt x="610" y="745" on="1"/>
        <pt x="791" y="745" on="0"/>
        <pt x="948" y="557" on="0"/>
        <pt x="909" y="369" on="1"/>
        <pt x="868" y="182" on="0"/>
        <pt x="633" y="0" on="0"/>
        <pt x="451" y="0" on="1"/>
        <pt x="137" y="0" on="1"/>
        <pt x="389" y="1188" on="1"/>
        <pt x="154" y="1188" on="1"/>
      </contour>
      <contour>
        <pt x="772" y="369" on="1"/>
        <pt x="799" y="496" on="0"/>
        <pt x="698" y="629" on="0"/>
        <pt x="588" y="629" on="1"/>
        <pt x="408" y="629" on="1"/>
        <pt x="299" y="117" on="1"/>
        <pt x="479" y="117" on="1"/>
        <pt x="590" y="117" on="0"/>
        <pt x="745" y="244" on="0"/>
      </contour>
    </TTGlyph>
    <TTGlyph name="afii10045" xMin="-98" yMin="0" xMax="1110" yMax="1305">
      <contour>
        <pt x="178" y="1305" on="1"/>
        <pt x="315" y="1305" on="1"/>
        <pt x="197" y="745" on="1"/>
        <pt x="332" y="745" on="1"/>
        <pt x="494" y="745" on="0"/>
        <pt x="631" y="557" on="0"/>
        <pt x="592" y="369" on="1"/>
        <pt x="551" y="182" on="0"/>
        <pt x="336" y="0" on="0"/>
        <pt x="172" y="0" on="1"/>
        <pt x="-98" y="0" on="1"/>
      </contour>
      <contour>
        <pt x="455" y="369" on="1"/>
        <pt x="481" y="496" on="0"/>
        <pt x="401" y="629" on="0"/>
        <pt x="309" y="629" on="1"/>
        <pt x="172" y="629" on="1"/>
        <pt x="63" y="117" on="1"/>
        <pt x="201" y="117" on="1"/>
        <pt x="293" y="117" on="0"/>
        <pt x="428" y="244" on="0"/>
      </contour>
      <contour>
        <pt x="973" y="1305" on="1"/>
        <pt x="1110" y="1305" on="1"/>
        <pt x="834" y="0" on="1"/>
        <pt x="696" y="0" on="1"/>
      </contour>
    </TTGlyph>
    <TTGlyph name="afii10046" xMin="-49" yMin="0" xMax="948" yMax="1305">
      <contour>
        <pt x="772" y="369" on="1"/>
        <pt x="799" y="496" on="0"/>
        <pt x="657" y="629" on="0"/>
        <pt x="516" y="629" on="1"/>
        <pt x="221" y="629" on="1"/>
        <pt x="113" y="117" on="1"/>
        <pt x="408" y="117" on="1"/>
        <pt x="549" y="117" on="0"/>
        <pt x="745" y="244" on="0"/>
      </contour>
      <contour>
        <pt x="246" y="745" on="1"/>
        <pt x="541" y="745" on="1"/>
        <pt x="754" y="745" on="0"/>
        <pt x="948" y="557" on="0"/>
        <pt x="909" y="369" on="1"/>
        <pt x="868" y="182" on="0"/>
        <pt x="596" y="0" on="0"/>
        <pt x="381" y="0" on="1"/>
        <pt x="-49" y="0" on="1"/>
        <pt x="227" y="1305" on="1"/>
        <pt x="365" y="1305" on="1"/>
      </contour>
    </TTGlyph>
    <TTGlyph name="afii10047" xMin="-34" yMin="-23" xMax="1019" yMax="1327">
      <contour>
        <pt x="95" y="389" on="1"/>
        <pt x="128" y="94" on="0"/>
        <pt x="372" y="94" on="1"/>
        <pt x="425" y="94" on="0"/>
        <pt x="518" y="121" on="0"/>
        <pt x="599" y="169" on="0"/>
        <pt x="668" y="235" on="0"/>
        <pt x="698" y="274" on="1"/>
        <pt x="751" y="345" on="0"/>
        <pt x="822" y="516" on="0"/>
        <pt x="843" y="604" on="1"/>
        <pt x="262" y="604" on="1"/>
        <pt x="287" y="721" on="1"/>
        <pt x="868" y="721" on="1"/>
        <pt x="882" y="812" on="0"/>
        <pt x="877" y="988" on="0"/>
        <pt x="822" y="1126" on="0"/>
        <pt x="706" y="1210" on="0"/>
        <pt x="610" y="1210" on="1"/>
        <pt x="541" y="1210" on="0"/>
        <pt x="408" y="1159" on="0"/>
        <pt x="299" y="1069" on="0"/>
        <pt x="220" y="947" on="0"/>
        <pt x="205" y="877" on="1"/>
        <pt x="88" y="877" on="1"/>
        <pt x="179" y="1305" on="1"/>
        <pt x="296" y="1305" on="1"/>
        <pt x="264" y="1153" on="1"/>
        <pt x="324" y="1241" on="0"/>
        <pt x="514" y="1327" on="0"/>
        <pt x="635" y="1327" on="1"/>
        <pt x="772" y="1327" on="0"/>
        <pt x="938" y="1214" on="0"/>
        <pt x="1017" y="1026" on="0"/>
        <pt x="1019" y="782" on="0"/>
        <pt x="991" y="651" on="1"/>
        <pt x="972" y="563" on="0"/>
        <pt x="914" y="396" on="0"/>
        <pt x="832" y="246" on="0"/>
        <pt x="726" y="120" on="0"/>
        <pt x="595" y="29" on="0"/>
        <pt x="439" y="-23" on="0"/>
        <pt x="348" y="-23" on="1"/>
        <pt x="172" y="-23" on="0"/>
        <pt x="76" y="75" on="1"/>
        <pt x="-18" y="175" on="0"/>
        <pt x="-34" y="342" on="1"/>
      </contour>
    </TTGlyph>
    <TTGlyph name="afii10048" xMin="-49" yMin="-23" xMax="1118" yMax="1327">
      <contour>
        <pt x="227" y="1305" on="1"/>
        <pt x="365" y="1305" on="1"/>
        <pt x="238" y="711" on="1"/>
        <pt x="410" y="711" on="1"/>
        <pt x="553" y="1327" on="0"/>
        <pt x="829" y="1327" on="1"/>
        <pt x="1118" y="1327" on="0"/>
        <pt x="975" y="651" on="1"/>
        <pt x="831" y="-23" on="0"/>
        <pt x="543" y="-23" on="1"/>
        <pt x="266" y="-23" on="0"/>
        <pt x="385" y="594" on="1"/>
        <pt x="213" y="594" on="1"/>
        <pt x="88" y="0" on="1"/>
        <pt x="-49" y="0" on="1"/>
      </contour>
      <contour>
        <pt x="567" y="94" on="1"/>
        <pt x="614" y="94" on="0"/>
        <pt x="692" y="176" on="0"/>
        <pt x="756" y="324" on="0"/>
        <pt x="811" y="528" on="0"/>
        <pt x="838" y="651" on="1"/>
        <pt x="864" y="774" on="0"/>
        <pt x="895" y="981" on="0"/>
        <pt x="895" y="1128" on="0"/>
        <pt x="852" y="1210" on="0"/>
        <pt x="805" y="1210" on="1"/>
        <pt x="758" y="1210" on="0"/>
        <pt x="682" y="1128" on="0"/>
        <pt x="616" y="981" on="0"/>
        <pt x="561" y="774" on="0"/>
        <pt x="535" y="651" on="1"/>
        <pt x="508" y="528" on="0"/>
        <pt x="477" y="324" on="0"/>
        <pt x="479" y="176" on="0"/>
        <pt x="520" y="94" on="0"/>
      </contour>
    </TTGlyph>
    <TTGlyph name="afii10049" xMin="-111" yMin="0" xMax="1061" yMax="1305">
      <contour>
        <pt x="401" y="565" on="1"/>
        <pt x="322" y="571" on="0"/>
        <pt x="195" y="627" on="0"/>
        <pt x="113" y="719" on="0"/>
        <pt x="84" y="850" on="0"/>
        <pt x="100" y="932" on="1"/>
        <pt x="141" y="1118" on="0"/>
        <pt x="416" y="1305" on="0"/>
        <pt x="631" y="1305" on="1"/>
        <pt x="1061" y="1305" on="1"/>
        <pt x="784" y="0" on="1"/>
        <pt x="647" y="0" on="1"/>
        <pt x="766" y="559" on="1"/>
        <pt x="563" y="559" on="1"/>
        <pt x="63" y="0" on="1"/>
        <pt x="-111" y="0" on="1"/>
      </contour>
      <contour>
        <pt x="242" y="932" on="1"/>
        <pt x="213" y="797" on="0"/>
        <pt x="354" y="676" on="0"/>
        <pt x="498" y="676" on="1"/>
        <pt x="791" y="676" on="1"/>
        <pt x="899" y="1188" on="1"/>
        <pt x="606" y="1188" on="1"/>
        <pt x="463" y="1188" on="0"/>
        <pt x="270" y="1065" on="0"/>
      </contour>
    </TTGlyph>
    <TTGlyph name="afii10050" xMin="-49" yMin="0" xMax="1149" yMax="1491">
      <contour>
        <pt x="1032" y="1491" on="1"/>
        <pt x="1149" y="1491" on="1"/>
        <pt x="1085" y="1188" on="1"/>
        <pt x="340" y="1188" on="1"/>
        <pt x="88" y="0" on="1"/>
        <pt x="-49" y="0" on="1"/>
        <pt x="227" y="1305" on="1"/>
        <pt x="993" y="1305" on="1"/>
      </contour>
    </TTGlyph>
    <TTGlyph name="afii10051" xMin="-49" yMin="-23" xMax="987" yMax="1305">
      <contour>
        <pt x="41" y="1305" on="1"/>
        <pt x="551" y="1305" on="1"/>
        <pt x="526" y="1188" on="1"/>
        <pt x="340" y="1188" on="1"/>
        <pt x="236" y="698" on="1"/>
        <pt x="389" y="954" on="0"/>
        <pt x="643" y="954" on="1"/>
        <pt x="987" y="954" on="0"/>
        <pt x="905" y="575" on="1"/>
        <pt x="827" y="207" on="1"/>
        <pt x="815" y="152" on="0"/>
        <pt x="760" y="66" on="0"/>
        <pt x="686" y="8" on="0"/>
        <pt x="598" y="-23" on="0"/>
        <pt x="553" y="-23" on="1"/>
        <pt x="469" y="-23" on="0"/>
        <pt x="436" y="2" on="1"/>
        <pt x="485" y="111" on="1"/>
        <pt x="498" y="102" on="0"/>
        <pt x="530" y="94" on="0"/>
        <pt x="559" y="94" on="1"/>
        <pt x="666" y="94" on="0"/>
        <pt x="690" y="207" on="1"/>
        <pt x="768" y="575" on="1"/>
        <pt x="795" y="700" on="0"/>
        <pt x="715" y="838" on="0"/>
        <pt x="594" y="838" on="1"/>
        <pt x="518" y="838" on="0"/>
        <pt x="381" y="768" on="0"/>
        <pt x="270" y="651" on="0"/>
        <pt x="193" y="500" on="0"/>
        <pt x="176" y="418" on="1"/>
        <pt x="88" y="0" on="1"/>
        <pt x="-49" y="0" on="1"/>
        <pt x="203" y="1188" on="1"/>
        <pt x="16" y="1188" on="1"/>
      </contour>
    </TTGlyph>
    <TTGlyph name="afii10052" xMin="-49" yMin="0" xMax="1110" yMax="1737">
      <component glyphName="afii10020" x="0" y="0" flags="0x204"/>
      <component glyphName="acute" x="80" y="373" flags="0x4"/>
    </TTGlyph>
    <TTGlyph name="afii10053" xMin="-13" yMin="-23" xMax="1109" yMax="1327">
      <contour>
        <pt x="912" y="342" on="1"/>
        <pt x="826" y="175" on="0"/>
        <pt x="688" y="75" on="1"/>
        <pt x="552" y="-23" on="0"/>
        <pt x="376" y="-23" on="1"/>
        <pt x="285" y="-23" on="0"/>
        <pt x="151" y="29" on="0"/>
        <pt x="58" y="120" on="0"/>
        <pt x="6" y="246" on="0"/>
        <pt x="-13" y="396" on="0"/>
        <pt x="-1" y="563" on="0"/>
        <pt x="18" y="651" on="1"/>
        <pt x="46" y="782" on="0"/>
        <pt x="152" y="1026" on="0"/>
        <pt x="311" y="1214" on="0"/>
        <pt x="526" y="1327" on="0"/>
        <pt x="663" y="1327" on="1"/>
        <pt x="784" y="1327" on="0"/>
        <pt x="936" y="1241" on="0"/>
        <pt x="960" y="1153" on="1"/>
        <pt x="992" y="1305" on="1"/>
        <pt x="1109" y="1305" on="1"/>
        <pt x="1018" y="877" on="1"/>
        <pt x="901" y="877" on="1"/>
        <pt x="916" y="947" on="0"/>
        <pt x="889" y="1069" on="0"/>
        <pt x="818" y="1159" on="0"/>
        <pt x="707" y="1210" on="0"/>
        <pt x="638" y="1210" on="1"/>
        <pt x="542" y="1210" on="0"/>
        <pt x="390" y="1126" on="0"/>
        <pt x="276" y="988" on="0"/>
        <pt x="195" y="812" on="0"/>
        <pt x="171" y="721" on="1"/>
        <pt x="753" y="721" on="1"/>
        <pt x="728" y="604" on="1"/>
        <pt x="146" y="604" on="1"/>
        <pt x="130" y="516" on="0"/>
        <pt x="129" y="345" on="0"/>
        <pt x="152" y="274" on="1"/>
        <pt x="164" y="235" on="0"/>
        <pt x="205" y="169" on="0"/>
        <pt x="266" y="121" on="0"/>
        <pt x="347" y="94" on="0"/>
        <pt x="400" y="94" on="1"/>
        <pt x="644" y="94" on="0"/>
        <pt x="803" y="389" on="1"/>
      </contour>
    </TTGlyph>
    <TTGlyph name="afii10054" xMin="-74" yMin="-23" xMax="1044" yMax="1327">
      <contour>
        <pt x="872" y="340" on="1"/>
        <pt x="854" y="258" on="0"/>
        <pt x="758" y="125" on="0"/>
        <pt x="623" y="29" on="0"/>
        <pt x="465" y="-23" on="0"/>
        <pt x="385" y="-23" on="1"/>
        <pt x="274" y="-23" on="0"/>
        <pt x="109" y="59" on="0"/>
        <pt x="72" y="139" on="1"/>
        <pt x="43" y="0" on="1"/>
        <pt x="-74" y="0" on="1"/>
        <pt x="10" y="397" on="1"/>
        <pt x="127" y="397" on="1"/>
        <pt x="113" y="330" on="0"/>
        <pt x="150" y="219" on="0"/>
        <pt x="229" y="139" on="0"/>
        <pt x="344" y="94" on="0"/>
        <pt x="410" y="94" on="1"/>
        <pt x="467" y="94" on="0"/>
        <pt x="573" y="127" on="0"/>
        <pt x="659" y="188" on="0"/>
        <pt x="721" y="276" on="0"/>
        <pt x="733" y="332" on="1"/>
        <pt x="748" y="395" on="0"/>
        <pt x="711" y="485" on="0"/>
        <pt x="631" y="549" on="0"/>
        <pt x="524" y="594" on="0"/>
        <pt x="469" y="616" on="1"/>
        <pt x="403" y="641" on="0"/>
        <pt x="274" y="696" on="0"/>
        <pt x="178" y="780" on="0"/>
        <pt x="135" y="901" on="0"/>
        <pt x="154" y="991" on="1"/>
        <pt x="172" y="1071" on="0"/>
        <pt x="266" y="1196" on="0"/>
        <pt x="395" y="1282" on="0"/>
        <pt x="549" y="1327" on="0"/>
        <pt x="627" y="1327" on="1"/>
        <pt x="721" y="1327" on="0"/>
        <pt x="866" y="1249" on="0"/>
        <pt x="895" y="1169" on="1"/>
        <pt x="924" y="1305" on="1"/>
        <pt x="1044" y="1305" on="1"/>
        <pt x="965" y="932" on="1"/>
        <pt x="844" y="932" on="1"/>
        <pt x="856" y="991" on="0"/>
        <pt x="829" y="1094" on="0"/>
        <pt x="762" y="1167" on="0"/>
        <pt x="662" y="1210" on="0"/>
        <pt x="602" y="1210" on="1"/>
        <pt x="549" y="1210" on="0"/>
        <pt x="449" y="1186" on="0"/>
        <pt x="365" y="1133" on="0"/>
        <pt x="303" y="1049" on="0"/>
        <pt x="291" y="991" on="1"/>
        <pt x="281" y="940" on="0"/>
        <pt x="317" y="868" on="0"/>
        <pt x="391" y="813" on="0"/>
        <pt x="494" y="768" on="0"/>
        <pt x="549" y="745" on="1"/>
        <pt x="616" y="719" on="0"/>
        <pt x="750" y="655" on="0"/>
        <pt x="846" y="565" on="0"/>
        <pt x="893" y="434" on="0"/>
      </contour>
    </TTGlyph>
    <TTGlyph name="afii10055" xMin="88" yMin="0" xMax="924" yMax="1305">
      <contour>
        <pt x="647" y="0" on="1"/>
        <pt x="88" y="0" on="1"/>
        <pt x="113" y="117" on="1"/>
        <pt x="324" y="117" on="1"/>
        <pt x="551" y="1188" on="1"/>
        <pt x="340" y="1188" on="1"/>
        <pt x="365" y="1305" on="1"/>
        <pt x="924" y="1305" on="1"/>
        <pt x="899" y="1188" on="1"/>
        <pt x="688" y="1188" on="1"/>
        <pt x="461" y="117" on="1"/>
        <pt x="672" y="117" on="1"/>
      </contour>
    </TTGlyph>
    <TTGlyph name="afii10056" xMin="88" yMin="0" xMax="1004" yMax="1676">
      <component glyphName="I" x="0" y="0" flags="0x204"/>
      <component glyphName="dieresis" x="80" y="371" flags="0x4"/>
    </TTGlyph>
    <TTGlyph name="afii10057" xMin="-29" yMin="-23" xMax="1061" yMax="1305">
      <contour>
        <pt x="889" y="498" on="1"/>
        <pt x="836" y="250" on="0"/>
        <pt x="567" y="-23" on="0"/>
        <pt x="350" y="-23" on="1"/>
        <pt x="176" y="-23" on="0"/>
        <pt x="-20" y="160" on="0"/>
        <pt x="-29" y="342" on="1"/>
        <pt x="100" y="387" on="1"/>
        <pt x="109" y="225" on="0"/>
        <pt x="250" y="94" on="0"/>
        <pt x="375" y="94" on="1"/>
        <pt x="467" y="94" on="0"/>
        <pt x="598" y="168" on="0"/>
        <pt x="684" y="283" on="0"/>
        <pt x="737" y="426" on="0"/>
        <pt x="752" y="498" on="1"/>
        <pt x="924" y="1305" on="1"/>
        <pt x="1061" y="1305" on="1"/>
      </contour>
    </TTGlyph>
    <TTGlyph name="afii10058" xMin="-238" yMin="-23" xMax="942" yMax="1305">
      <contour>
        <pt x="766" y="369" on="1"/>
        <pt x="793" y="496" on="0"/>
        <pt x="713" y="629" on="0"/>
        <pt x="621" y="629" on="1"/>
        <pt x="545" y="629" on="1"/>
        <pt x="436" y="117" on="1"/>
        <pt x="512" y="117" on="1"/>
        <pt x="604" y="117" on="0"/>
        <pt x="739" y="244" on="0"/>
      </contour>
      <contour>
        <pt x="688" y="1305" on="1"/>
        <pt x="569" y="745" on="1"/>
        <pt x="643" y="745" on="1"/>
        <pt x="805" y="745" on="0"/>
        <pt x="942" y="557" on="0"/>
        <pt x="903" y="369" on="1"/>
        <pt x="862" y="182" on="0"/>
        <pt x="647" y="0" on="0"/>
        <pt x="483" y="0" on="1"/>
        <pt x="274" y="0" on="1"/>
        <pt x="526" y="1188" on="1"/>
        <pt x="340" y="1188" on="1"/>
        <pt x="131" y="207" on="1"/>
        <pt x="119" y="152" on="0"/>
        <pt x="68" y="66" on="0"/>
        <pt x="-2" y="8" on="0"/>
        <pt x="-84" y="-23" on="0"/>
        <pt x="-125" y="-23" on="1"/>
        <pt x="-166" y="-23" on="0"/>
        <pt x="-217" y="-14" on="0"/>
        <pt x="-238" y="-4" on="1"/>
        <pt x="-188" y="111" on="1"/>
        <pt x="-178" y="102" on="0"/>
        <pt x="-147" y="94" on="0"/>
        <pt x="-123" y="94" on="1"/>
        <pt x="-31" y="94" on="0"/>
        <pt x="-6" y="207" on="1"/>
        <pt x="227" y="1305" on="1"/>
      </contour>
    </TTGlyph>
    <TTGlyph name="afii10059" xMin="-49" yMin="0" xMax="942" yMax="1305">
      <contour>
        <pt x="766" y="369" on="1"/>
        <pt x="793" y="496" on="0"/>
        <pt x="713" y="629" on="0"/>
        <pt x="621" y="629" on="1"/>
        <pt x="545" y="629" on="1"/>
        <pt x="436" y="117" on="1"/>
        <pt x="512" y="117" on="1"/>
        <pt x="604" y="117" on="0"/>
        <pt x="739" y="244" on="0"/>
      </contour>
      <contour>
        <pt x="-49" y="0" on="1"/>
        <pt x="227" y="1305" on="1"/>
        <pt x="365" y="1305" on="1"/>
        <pt x="246" y="745" on="1"/>
        <pt x="432" y="745" on="1"/>
        <pt x="551" y="1305" on="1"/>
        <pt x="688" y="1305" on="1"/>
        <pt x="569" y="745" on="1"/>
        <pt x="643" y="745" on="1"/>
        <pt x="805" y="745" on="0"/>
        <pt x="942" y="557" on="0"/>
        <pt x="903" y="369" on="1"/>
        <pt x="862" y="182" on="0"/>
        <pt x="647" y="0" on="0"/>
        <pt x="483" y="0" on="1"/>
        <pt x="274" y="0" on="1"/>
        <pt x="408" y="629" on="1"/>
        <pt x="221" y="629" on="1"/>
        <pt x="88" y="0" on="1"/>
      </contour>
    </TTGlyph>
    <TTGlyph name="afii10060" xMin="-49" yMin="0" xMax="987" yMax="1305">
      <contour>
        <pt x="41" y="1305" on="1"/>
        <pt x="551" y="1305" on="1"/>
        <pt x="526" y="1188" on="1"/>
        <pt x="340" y="1188" on="1"/>
        <pt x="236" y="698" on="1"/>
        <pt x="389" y="954" on="0"/>
        <pt x="643" y="954" on="1"/>
        <pt x="987" y="954" on="0"/>
        <pt x="905" y="575" on="1"/>
        <pt x="784" y="0" on="1"/>
        <pt x="647" y="0" on="1"/>
        <pt x="768" y="575" on="1"/>
        <pt x="795" y="700" on="0"/>
        <pt x="715" y="838" on="0"/>
        <pt x="594" y="838" on="1"/>
        <pt x="518" y="838" on="0"/>
        <pt x="381" y="768" on="0"/>
        <pt x="270" y="651" on="0"/>
        <pt x="193" y="500" on="0"/>
        <pt x="176" y="418" on="1"/>
        <pt x="88" y="0" on="1"/>
        <pt x="-49" y="0" on="1"/>
        <pt x="203" y="1188" on="1"/>
        <pt x="16" y="1188" on="1"/>
      </contour>
    </TTGlyph>
    <TTGlyph name="afii10061" xMin="-49" yMin="0" xMax="1104" yMax="1737">
      <component glyphName="afii10028" x="0" y="0" flags="0x204"/>
      <component glyphName="acute" x="80" y="373" flags="0x4"/>
    </TTGlyph>
    <TTGlyph name="afii10062" xMin="-98" yMin="-23" xMax="1139" yMax="1659">
      <component glyphName="afii10037" x="0" y="0" flags="0x204"/>
      <component glyphName="breve" x="80" y="373" flags="0x4"/>
    </TTGlyph>
    <TTGlyph name="afii10065" xMin="-76" yMin="-23" xMax="932" yMax="954">
      <contour>
        <pt x="-47" y="252" on="1"/>
        <pt x="-29" y="340" on="0"/>
        <pt x="84" y="459" on="0"/>
        <pt x="242" y="528" on="0"/>
        <pt x="434" y="559" on="0"/>
        <pt x="530" y="559" on="1"/>
        <pt x="567" y="559" on="0"/>
        <pt x="625" y="557" on="0"/>
        <pt x="678" y="553" on="0"/>
        <pt x="729" y="547" on="0"/>
        <pt x="762" y="543" on="1"/>
        <pt x="776" y="610" on="1"/>
        <pt x="791" y="678" on="0"/>
        <pt x="750" y="766" on="0"/>
        <pt x="674" y="817" on="0"/>
        <pt x="584" y="838" on="0"/>
        <pt x="551" y="838" on="1"/>
        <pt x="446" y="838" on="0"/>
        <pt x="260" y="782" on="0"/>
        <pt x="174" y="735" on="1"/>
        <pt x="133" y="838" on="1"/>
        <pt x="229" y="889" on="0"/>
        <pt x="453" y="954" on="0"/>
        <pt x="578" y="954" on="1"/>
        <pt x="653" y="954" on="0"/>
        <pt x="793" y="915" on="0"/>
        <pt x="891" y="834" on="0"/>
        <pt x="932" y="702" on="0"/>
        <pt x="913" y="610" on="1"/>
        <pt x="784" y="0" on="1"/>
        <pt x="647" y="0" on="1"/>
        <pt x="680" y="156" on="1"/>
        <pt x="633" y="111" on="0"/>
        <pt x="528" y="43" on="0"/>
        <pt x="420" y="0" on="0"/>
        <pt x="313" y="-23" on="0"/>
        <pt x="268" y="-23" on="1"/>
        <pt x="84" y="-23" on="0"/>
        <pt x="-76" y="119" on="0"/>
      </contour>
      <contour>
        <pt x="293" y="94" on="1"/>
        <pt x="379" y="94" on="0"/>
        <pt x="528" y="145" on="0"/>
        <pt x="639" y="221" on="0"/>
        <pt x="711" y="307" on="0"/>
        <pt x="719" y="342" on="1"/>
        <pt x="737" y="430" on="1"/>
        <pt x="672" y="440" on="0"/>
        <pt x="549" y="442" on="0"/>
        <pt x="504" y="442" on="1"/>
        <pt x="430" y="442" on="0"/>
        <pt x="289" y="422" on="0"/>
        <pt x="178" y="377" on="0"/>
        <pt x="100" y="305" on="0"/>
        <pt x="90" y="252" on="1"/>
        <pt x="76" y="193" on="0"/>
        <pt x="170" y="94" on="0"/>
      </contour>
    </TTGlyph>
    <TTGlyph name="afii10066" xMin="-35" yMin="-23" xMax="1040" yMax="1327">
      <contour>
        <pt x="145" y="444" on="1"/>
        <pt x="111" y="285" on="0"/>
        <pt x="242" y="94" on="0"/>
        <pt x="393" y="94" on="1"/>
        <pt x="463" y="94" on="0"/>
        <pt x="592" y="143" on="0"/>
        <pt x="698" y="236" on="0"/>
        <pt x="772" y="365" on="0"/>
        <pt x="791" y="444" on="1"/>
        <pt x="823" y="604" on="0"/>
        <pt x="696" y="795" on="0"/>
        <pt x="543" y="795" on="1"/>
        <pt x="377" y="795" on="0"/>
        <pt x="178" y="604" on="0"/>
      </contour>
      <contour>
        <pt x="39" y="651" on="1"/>
        <pt x="72" y="801" on="0"/>
        <pt x="186" y="1049" on="0"/>
        <pt x="340" y="1227" on="0"/>
        <pt x="518" y="1327" on="0"/>
        <pt x="614" y="1327" on="1"/>
        <pt x="659" y="1327" on="0"/>
        <pt x="717" y="1309" on="0"/>
        <pt x="762" y="1284" on="0"/>
        <pt x="803" y="1266" on="0"/>
        <pt x="834" y="1266" on="1"/>
        <pt x="874" y="1266" on="0"/>
        <pt x="938" y="1294" on="0"/>
        <pt x="985" y="1327" on="1"/>
        <pt x="1040" y="1245" on="1"/>
        <pt x="987" y="1204" on="0"/>
        <pt x="860" y="1149" on="0"/>
        <pt x="809" y="1149" on="1"/>
        <pt x="770" y="1149" on="0"/>
        <pt x="717" y="1167" on="0"/>
        <pt x="672" y="1192" on="0"/>
        <pt x="625" y="1210" on="0"/>
        <pt x="590" y="1210" on="1"/>
        <pt x="528" y="1210" on="0"/>
        <pt x="408" y="1143" on="0"/>
        <pt x="301" y="1016" on="0"/>
        <pt x="217" y="836" on="0"/>
        <pt x="195" y="723" on="1"/>
        <pt x="227" y="768" on="0"/>
        <pt x="313" y="838" on="0"/>
        <pt x="414" y="887" on="0"/>
        <pt x="518" y="911" on="0"/>
        <pt x="567" y="911" on="1"/>
        <pt x="666" y="911" on="0"/>
        <pt x="821" y="852" on="0"/>
        <pt x="920" y="735" on="0"/>
        <pt x="952" y="561" on="0"/>
        <pt x="928" y="444" on="1"/>
        <pt x="905" y="346" on="0"/>
        <pt x="801" y="174" on="0"/>
        <pt x="651" y="49" on="0"/>
        <pt x="467" y="-23" on="0"/>
        <pt x="369" y="-23" on="1"/>
        <pt x="133" y="-23" on="0"/>
        <pt x="-35" y="305" on="0"/>
      </contour>
    </TTGlyph>
    <TTGlyph name="afii10067" xMin="-49" yMin="0" xMax="948" yMax="932">
      <contour>
        <pt x="887" y="266" on="1"/>
        <pt x="858" y="131" on="0"/>
        <pt x="633" y="0" on="0"/>
        <pt x="446" y="0" on="1"/>
        <pt x="-49" y="0" on="1"/>
        <pt x="147" y="932" on="1"/>
        <pt x="612" y="932" on="1"/>
        <pt x="680" y="932" on="0"/>
        <pt x="809" y="911" on="0"/>
        <pt x="903" y="858" on="0"/>
        <pt x="948" y="764" on="0"/>
        <pt x="932" y="688" on="1"/>
        <pt x="915" y="616" on="0"/>
        <pt x="825" y="518" on="0"/>
        <pt x="719" y="492" on="1"/>
        <pt x="838" y="463" on="0"/>
        <pt x="905" y="350" on="0"/>
      </contour>
      <contour>
        <pt x="793" y="680" on="1"/>
        <pt x="803" y="723" on="0"/>
        <pt x="768" y="776" on="0"/>
        <pt x="707" y="805" on="0"/>
        <pt x="627" y="815" on="0"/>
        <pt x="588" y="815" on="1"/>
        <pt x="260" y="815" on="1"/>
        <pt x="203" y="547" on="1"/>
        <pt x="530" y="547" on="1"/>
        <pt x="571" y="547" on="0"/>
        <pt x="657" y="557" on="0"/>
        <pt x="733" y="588" on="0"/>
        <pt x="784" y="639" on="0"/>
      </contour>
      <contour>
        <pt x="752" y="272" on="1"/>
        <pt x="768" y="354" on="0"/>
        <pt x="651" y="430" on="0"/>
        <pt x="535" y="430" on="1"/>
        <pt x="178" y="430" on="1"/>
        <pt x="113" y="117" on="1"/>
        <pt x="469" y="117" on="1"/>
        <pt x="586" y="117" on="0"/>
        <pt x="735" y="195" on="0"/>
      </contour>
    </TTGlyph>
    <TTGlyph name="afii10068" xMin="-49" yMin="0" xMax="1030" yMax="932">
      <contour>
        <pt x="147" y="932" on="1"/>
        <pt x="1030" y="932" on="1"/>
        <pt x="1006" y="815" on="1"/>
        <pt x="260" y="815" on="1"/>
        <pt x="88" y="0" on="1"/>
        <pt x="-49" y="0" on="1"/>
      </contour>
    </TTGlyph>
    <TTGlyph name="afii10069" xMin="-166" yMin="-319" xMax="858" yMax="932">
      <contour>
        <pt x="-74" y="117" on="1"/>
        <pt x="-25" y="127" on="0"/>
        <pt x="80" y="215" on="0"/>
        <pt x="176" y="371" on="0"/>
        <pt x="262" y="594" on="0"/>
        <pt x="293" y="739" on="1"/>
        <pt x="334" y="932" on="1"/>
        <pt x="844" y="932" on="1"/>
        <pt x="672" y="117" on="1"/>
        <pt x="858" y="117" on="1"/>
        <pt x="764" y="-319" on="1"/>
        <pt x="641" y="-319" on="1"/>
        <pt x="711" y="0" on="1"/>
        <pt x="25" y="0" on="1"/>
        <pt x="-45" y="-319" on="1"/>
        <pt x="-166" y="-319" on="1"/>
      </contour>
      <contour>
        <pt x="430" y="739" on="1"/>
        <pt x="406" y="623" on="0"/>
        <pt x="330" y="420" on="0"/>
        <pt x="242" y="260" on="0"/>
        <pt x="152" y="145" on="0"/>
        <pt x="113" y="117" on="1"/>
        <pt x="535" y="117" on="1"/>
        <pt x="682" y="815" on="1"/>
        <pt x="446" y="815" on="1"/>
      </contour>
    </TTGlyph>
    <TTGlyph name="afii10070" xMin="-29" yMin="-23" xMax="956" yMax="954">
      <contour>
        <pt x="127" y="418" on="1"/>
        <pt x="111" y="270" on="0"/>
        <pt x="258" y="94" on="0"/>
        <pt x="408" y="94" on="1"/>
        <pt x="512" y="94" on="0"/>
        <pt x="694" y="180" on="0"/>
        <pt x="750" y="244" on="1"/>
        <pt x="831" y="178" on="1"/>
        <pt x="741" y="80" on="0"/>
        <pt x="524" y="-23" on="0"/>
        <pt x="383" y="-23" on="1"/>
        <pt x="274" y="-23" on="0"/>
        <pt x="111" y="49" on="0"/>
        <pt x="6" y="178" on="0"/>
        <pt x="-29" y="356" on="0"/>
        <pt x="-4" y="465" on="1"/>
        <pt x="18" y="571" on="0"/>
        <pt x="121" y="750" on="0"/>
        <pt x="272" y="881" on="0"/>
        <pt x="465" y="954" on="0"/>
        <pt x="573" y="954" on="1"/>
        <pt x="692" y="954" on="0"/>
        <pt x="852" y="874" on="0"/>
        <pt x="942" y="733" on="0"/>
        <pt x="956" y="537" on="0"/>
        <pt x="932" y="418" on="1"/>
      </contour>
      <contour>
        <pt x="811" y="535" on="1"/>
        <pt x="821" y="688" on="0"/>
        <pt x="676" y="838" on="0"/>
        <pt x="547" y="838" on="1"/>
        <pt x="481" y="838" on="0"/>
        <pt x="360" y="795" on="0"/>
        <pt x="258" y="715" on="0"/>
        <pt x="176" y="602" on="0"/>
        <pt x="154" y="535" on="1"/>
      </contour>
    </TTGlyph>
    <TTGlyph name="afii10071" xMin="-29" yMin="-23" xMax="956" yMax="1305">
      <component glyphName="afii10070" x="0" y="0" flags="0x204"/>
      <component glyphName="dieresis" x="0" y="0" flags="0x4"/>
    </TTGlyph>
    <TTGlyph name="afii10072" xMin="-115" yMin="0" xMax="1047" yMax="932">
      <contour>
        <pt x="283" y="524" on="1"/>
        <pt x="82" y="932" on="1"/>
        <pt x="236" y="932" on="1"/>
        <pt x="412" y="539" on="1"/>
        <pt x="496" y="932" on="1"/>
        <pt x="633" y="932" on="1"/>
        <pt x="549" y="539" on="1"/>
        <pt x="893" y="932" on="1"/>
        <pt x="1047" y="932" on="1"/>
        <pt x="674" y="524" on="1"/>
        <pt x="850" y="0" on="1"/>
        <pt x="702" y="0" on="1"/>
        <pt x="573" y="418" on="1"/>
        <pt x="508" y="346" on="1"/>
        <pt x="436" y="0" on="1"/>
        <pt x="299" y="0" on="1"/>
        <pt x="371" y="346" on="1"/>
        <pt x="338" y="418" on="1"/>
        <pt x="33" y="0" on="1"/>
        <pt x="-115" y="0" on="1"/>
      </contour>
    </TTGlyph>
    <TTGlyph name="afii10073" xMin="-63" yMin="-23" xMax="940" yMax="954">
      <contour>
        <pt x="928" y="676" on="1"/>
        <pt x="913" y="608" on="0"/>
        <pt x="793" y="489" on="0"/>
        <pt x="692" y="473" on="1"/>
        <pt x="780" y="455" on="0"/>
        <pt x="866" y="336" on="0"/>
        <pt x="852" y="264" on="1"/>
        <pt x="838" y="197" on="0"/>
        <pt x="743" y="90" on="0"/>
        <pt x="602" y="16" on="0"/>
        <pt x="424" y="-23" on="0"/>
        <pt x="324" y="-23" on="1"/>
        <pt x="164" y="-23" on="0"/>
        <pt x="-23" y="76" on="0"/>
        <pt x="-63" y="176" on="1"/>
        <pt x="47" y="242" on="1"/>
        <pt x="78" y="170" on="0"/>
        <pt x="225" y="94" on="0"/>
        <pt x="348" y="94" on="1"/>
        <pt x="496" y="94" on="0"/>
        <pt x="698" y="184" on="0"/>
        <pt x="715" y="264" on="1"/>
        <pt x="721" y="291" on="0"/>
        <pt x="696" y="346" on="0"/>
        <pt x="639" y="389" on="0"/>
        <pt x="545" y="416" on="0"/>
        <pt x="477" y="416" on="1"/>
        <pt x="320" y="416" on="1"/>
        <pt x="345" y="532" on="1"/>
        <pt x="502" y="532" on="1"/>
        <pt x="633" y="532" on="0"/>
        <pt x="778" y="625" on="0"/>
        <pt x="791" y="676" on="1"/>
        <pt x="805" y="750" on="0"/>
        <pt x="659" y="838" on="0"/>
        <pt x="518" y="838" on="1"/>
        <pt x="399" y="838" on="0"/>
        <pt x="229" y="754" on="0"/>
        <pt x="172" y="684" on="1"/>
        <pt x="86" y="754" on="1"/>
        <pt x="168" y="854" on="0"/>
        <pt x="391" y="954" on="0"/>
        <pt x="545" y="954" on="1"/>
        <pt x="641" y="954" on="0"/>
        <pt x="795" y="915" on="0"/>
        <pt x="897" y="844" on="0"/>
        <pt x="940" y="739" on="0"/>
      </contour>
    </TTGlyph>
    <TTGlyph name="afii10074" xMin="-49" yMin="0" xMax="981" yMax="932">
      <contour>
        <pt x="147" y="932" on="1"/>
        <pt x="285" y="932" on="1"/>
        <pt x="125" y="180" on="1"/>
        <pt x="788" y="932" on="1"/>
        <pt x="981" y="932" on="1"/>
        <pt x="784" y="0" on="1"/>
        <pt x="647" y="0" on="1"/>
        <pt x="813" y="786" on="1"/>
        <pt x="121" y="0" on="1"/>
        <pt x="-49" y="0" on="1"/>
      </contour>
    </TTGlyph>
    <TTGlyph name="afii10075" xMin="-49" yMin="0" xMax="981" yMax="1286">
      <component glyphName="afii10074" x="0" y="0" flags="0x204"/>
      <component glyphName="breve" x="0" y="0" flags="0x4"/>
    </TTGlyph>
    <TTGlyph name="afii10076" xMin="-49" yMin="0" xMax="1012" yMax="932">
      <contour>
        <pt x="831" y="0" on="1"/>
        <pt x="637" y="0" on="1"/>
        <pt x="344" y="418" on="1"/>
        <pt x="143" y="264" on="1"/>
        <pt x="88" y="0" on="1"/>
        <pt x="-49" y="0" on="1"/>
        <pt x="147" y="932" on="1"/>
        <pt x="285" y="932" on="1"/>
        <pt x="178" y="430" on="1"/>
        <pt x="815" y="932" on="1"/>
        <pt x="1012" y="932" on="1"/>
        <pt x="455" y="504" on="1"/>
      </contour>
    </TTGlyph>
    <TTGlyph name="afii10077" xMin="-121" yMin="-23" xMax="981" yMax="932">
      <contour>
        <pt x="981" y="932" on="1"/>
        <pt x="784" y="0" on="1"/>
        <pt x="647" y="0" on="1"/>
        <pt x="819" y="815" on="1"/>
        <pt x="397" y="815" on="1"/>
        <pt x="268" y="207" on="1"/>
        <pt x="256" y="152" on="0"/>
        <pt x="201" y="66" on="0"/>
        <pt x="127" y="8" on="0"/>
        <pt x="39" y="-23" on="0"/>
        <pt x="-6" y="-23" on="1"/>
        <pt x="-90" y="-23" on="0"/>
        <pt x="-121" y="2" on="1"/>
        <pt x="-74" y="111" on="1"/>
        <pt x="-61" y="102" on="0"/>
        <pt x="-29" y="94" on="0"/>
        <pt x="0" y="94" on="1"/>
        <pt x="106" y="94" on="0"/>
        <pt x="131" y="207" on="1"/>
        <pt x="285" y="932" on="1"/>
      </contour>
    </TTGlyph>
    <TTGlyph name="afii10078" xMin="-49" yMin="0" xMax="981" yMax="932">
      <contour>
        <pt x="784" y="0" on="1"/>
        <pt x="647" y="0" on="1"/>
        <pt x="803" y="739" on="1"/>
        <pt x="471" y="256" on="1"/>
        <pt x="373" y="256" on="1"/>
        <pt x="244" y="739" on="1"/>
        <pt x="88" y="0" on="1"/>
        <pt x="-49" y="0" on="1"/>
        <pt x="147" y="932" on="1"/>
        <pt x="326" y="932" on="1"/>
        <pt x="463" y="446" on="1"/>
        <pt x="803" y="932" on="1"/>
        <pt x="981" y="932" on="1"/>
      </contour>
    </TTGlyph>
    <TTGlyph name="afii10079" xMin="-49" yMin="0" xMax="981" yMax="932">
      <contour>
        <pt x="784" y="0" on="1"/>
        <pt x="647" y="0" on="1"/>
        <pt x="735" y="418" on="1"/>
        <pt x="176" y="418" on="1"/>
        <pt x="88" y="0" on="1"/>
        <pt x="-49" y="0" on="1"/>
        <pt x="147" y="932" on="1"/>
        <pt x="285" y="932" on="1"/>
        <pt x="201" y="535" on="1"/>
        <pt x="760" y="535" on="1"/>
        <pt x="844" y="932" on="1"/>
        <pt x="981" y="932" on="1"/>
      </contour>
    </TTGlyph>
    <TTGlyph name="afii10080" xMin="-45" yMin="-23" xMax="979" yMax="954">
      <contour>
        <pt x="956" y="463" on="1"/>
        <pt x="932" y="354" on="0"/>
        <pt x="825" y="176" on="0"/>
        <pt x="670" y="49" on="0"/>
        <pt x="473" y="-23" on="0"/>
        <pt x="362" y="-23" on="1"/>
        <pt x="254" y="-23" on="0"/>
        <pt x="90" y="49" on="0"/>
        <pt x="-12" y="176" on="0"/>
        <pt x="-45" y="354" on="0"/>
        <pt x="-20" y="463" on="1"/>
        <pt x="2" y="569" on="0"/>
        <pt x="111" y="752" on="0"/>
        <pt x="266" y="881" on="0"/>
        <pt x="463" y="954" on="0"/>
        <pt x="571" y="954" on="1"/>
        <pt x="682" y="954" on="0"/>
        <pt x="846" y="881" on="0"/>
        <pt x="948" y="752" on="0"/>
        <pt x="979" y="569" on="0"/>
      </contour>
      <contour>
        <pt x="819" y="463" on="1"/>
        <pt x="836" y="543" on="0"/>
        <pt x="817" y="678" on="0"/>
        <pt x="745" y="780" on="0"/>
        <pt x="627" y="838" on="0"/>
        <pt x="545" y="838" on="1"/>
        <pt x="463" y="838" on="0"/>
        <pt x="319" y="780" on="0"/>
        <pt x="209" y="678" on="0"/>
        <pt x="133" y="543" on="0"/>
        <pt x="117" y="463" on="1"/>
        <pt x="98" y="383" on="0"/>
        <pt x="117" y="248" on="0"/>
        <pt x="186" y="150" on="0"/>
        <pt x="305" y="94" on="0"/>
        <pt x="387" y="94" on="1"/>
        <pt x="469" y="94" on="0"/>
        <pt x="612" y="150" on="0"/>
        <pt x="725" y="248" on="0"/>
        <pt x="801" y="383" on="0"/>
      </contour>
    </TTGlyph>
    <TTGlyph name="afii10081" xMin="-49" yMin="0" xMax="981" yMax="932">
      <contour>
        <pt x="784" y="0" on="1"/>
        <pt x="647" y="0" on="1"/>
        <pt x="819" y="815" on="1"/>
        <pt x="260" y="815" on="1"/>
        <pt x="88" y="0" on="1"/>
        <pt x="-49" y="0" on="1"/>
        <pt x="147" y="932" on="1"/>
        <pt x="981" y="932" on="1"/>
      </contour>
    </TTGlyph>
    <TTGlyph name="afii10082" xMin="-127" yMin="-373" xMax="954" yMax="954">
      <contour>
        <pt x="932" y="465" on="1"/>
        <pt x="907" y="356" on="0"/>
        <pt x="803" y="178" on="0"/>
        <pt x="653" y="49" on="0"/>
        <pt x="463" y="-23" on="0"/>
        <pt x="354" y="-23" on="1"/>
        <pt x="281" y="-23" on="0"/>
        <pt x="154" y="31" on="0"/>
        <pt x="104" y="84" on="1"/>
        <pt x="8" y="-373" on="1"/>
        <pt x="-127" y="-373" on="1"/>
        <pt x="147" y="932" on="1"/>
        <pt x="285" y="932" on="1"/>
        <pt x="266" y="846" on="1"/>
        <pt x="418" y="954" on="0"/>
        <pt x="563" y="954" on="1"/>
        <pt x="672" y="954" on="0"/>
        <pt x="829" y="883" on="0"/>
        <pt x="926" y="752" on="0"/>
        <pt x="954" y="571" on="0"/>
      </contour>
      <contour>
        <pt x="795" y="465" on="1"/>
        <pt x="811" y="543" on="0"/>
        <pt x="797" y="680" on="0"/>
        <pt x="731" y="780" on="0"/>
        <pt x="618" y="838" on="0"/>
        <pt x="537" y="838" on="1"/>
        <pt x="459" y="838" on="0"/>
        <pt x="311" y="780" on="0"/>
        <pt x="240" y="715" on="1"/>
        <pt x="133" y="215" on="1"/>
        <pt x="178" y="150" on="0"/>
        <pt x="301" y="94" on="0"/>
        <pt x="379" y="94" on="1"/>
        <pt x="461" y="94" on="0"/>
        <pt x="598" y="152" on="0"/>
        <pt x="707" y="252" on="0"/>
        <pt x="778" y="387" on="0"/>
      </contour>
    </TTGlyph>
    <TTGlyph name="afii10083" xMin="-25" yMin="-23" xMax="987" yMax="954">
      <contour>
        <pt x="836" y="176" on="1"/>
        <pt x="756" y="84" on="0"/>
        <pt x="528" y="-23" on="0"/>
        <pt x="387" y="-23" on="1"/>
        <pt x="279" y="-23" on="0"/>
        <pt x="113" y="49" on="0"/>
        <pt x="10" y="178" on="0"/>
        <pt x="-25" y="356" on="0"/>
        <pt x="0" y="465" on="1"/>
        <pt x="23" y="571" on="0"/>
        <pt x="127" y="752" on="0"/>
        <pt x="276" y="881" on="0"/>
        <pt x="469" y="954" on="0"/>
        <pt x="578" y="954" on="1"/>
        <pt x="621" y="954" on="0"/>
        <pt x="705" y="934" on="0"/>
        <pt x="776" y="893" on="0"/>
        <pt x="827" y="836" on="0"/>
        <pt x="836" y="797" on="1"/>
        <pt x="864" y="932" on="1"/>
        <pt x="987" y="932" on="1"/>
        <pt x="909" y="559" on="1"/>
        <pt x="786" y="559" on="1"/>
        <pt x="799" y="621" on="0"/>
        <pt x="776" y="723" on="0"/>
        <pt x="713" y="797" on="0"/>
        <pt x="612" y="838" on="0"/>
        <pt x="551" y="838" on="1"/>
        <pt x="467" y="838" on="0"/>
        <pt x="330" y="780" on="0"/>
        <pt x="225" y="680" on="0"/>
        <pt x="154" y="545" on="0"/>
        <pt x="137" y="465" on="1"/>
        <pt x="119" y="385" on="0"/>
        <pt x="139" y="250" on="0"/>
        <pt x="211" y="152" on="0"/>
        <pt x="330" y="94" on="0"/>
        <pt x="412" y="94" on="1"/>
        <pt x="516" y="94" on="0"/>
        <pt x="696" y="174" on="0"/>
        <pt x="754" y="242" on="1"/>
      </contour>
    </TTGlyph>
    <TTGlyph name="afii10084" xMin="6" yMin="0" xMax="1030" yMax="932">
      <contour>
        <pt x="938" y="492" on="1"/>
        <pt x="821" y="492" on="1"/>
        <pt x="889" y="815" on="1"/>
        <pt x="608" y="815" on="1"/>
        <pt x="461" y="117" on="1"/>
        <pt x="672" y="117" on="1"/>
        <pt x="647" y="0" on="1"/>
        <pt x="88" y="0" on="1"/>
        <pt x="113" y="117" on="1"/>
        <pt x="324" y="117" on="1"/>
        <pt x="471" y="815" on="1"/>
        <pt x="190" y="815" on="1"/>
        <pt x="123" y="492" on="1"/>
        <pt x="6" y="492" on="1"/>
        <pt x="98" y="932" on="1"/>
        <pt x="1030" y="932" on="1"/>
      </contour>
    </TTGlyph>
    <TTGlyph name="afii10085" xMin="-176" yMin="-395" xMax="1059" yMax="932">
      <contour>
        <pt x="1059" y="932" on="1"/>
        <pt x="307" y="-236" on="1"/>
        <pt x="248" y="-334" on="0"/>
        <pt x="92" y="-395" on="0"/>
        <pt x="6" y="-395" on="1"/>
        <pt x="-90" y="-395" on="0"/>
        <pt x="-176" y="-360" on="1"/>
        <pt x="-125" y="-242" on="1"/>
        <pt x="-84" y="-262" on="0"/>
        <pt x="4" y="-279" on="0"/>
        <pt x="33" y="-279" on="1"/>
        <pt x="100" y="-279" on="0"/>
        <pt x="164" y="-213" on="0"/>
        <pt x="193" y="-168" on="1"/>
        <pt x="281" y="-27" on="1"/>
        <pt x="68" y="932" on="1"/>
        <pt x="229" y="932" on="1"/>
        <pt x="393" y="117" on="1"/>
        <pt x="895" y="932" on="1"/>
      </contour>
    </TTGlyph>
    <TTGlyph name="afii10086" xMin="-80" yMin="-373" xMax="1010" yMax="1305">
      <contour>
        <pt x="457" y="743" on="1"/>
        <pt x="418" y="838" on="0"/>
        <pt x="334" y="838" on="1"/>
        <pt x="260" y="838" on="0"/>
        <pt x="152" y="666" on="0"/>
        <pt x="109" y="465" on="1"/>
        <pt x="66" y="264" on="0"/>
        <pt x="102" y="94" on="0"/>
        <pt x="176" y="94" on="1"/>
        <pt x="260" y="94" on="0"/>
        <pt x="338" y="188" on="1"/>
      </contour>
      <contour>
        <pt x="311" y="63" on="1"/>
        <pt x="240" y="-23" on="0"/>
        <pt x="152" y="-23" on="1"/>
        <pt x="8" y="-23" on="0"/>
        <pt x="-80" y="229" on="0"/>
        <pt x="-29" y="465" on="1"/>
        <pt x="20" y="700" on="0"/>
        <pt x="217" y="954" on="0"/>
        <pt x="360" y="954" on="1"/>
        <pt x="449" y="954" on="0"/>
        <pt x="483" y="868" on="1"/>
        <pt x="575" y="1305" on="1"/>
        <pt x="713" y="1305" on="1"/>
        <pt x="621" y="868" on="1"/>
        <pt x="692" y="954" on="0"/>
        <pt x="780" y="954" on="1"/>
        <pt x="924" y="954" on="0"/>
        <pt x="1010" y="700" on="0"/>
        <pt x="961" y="465" on="1"/>
        <pt x="909" y="229" on="0"/>
        <pt x="715" y="-23" on="0"/>
        <pt x="571" y="-23" on="1"/>
        <pt x="483" y="-23" on="0"/>
        <pt x="449" y="63" on="1"/>
        <pt x="356" y="-373" on="1"/>
        <pt x="219" y="-373" on="1"/>
      </contour>
      <contour>
        <pt x="475" y="188" on="1"/>
        <pt x="512" y="94" on="0"/>
        <pt x="596" y="94" on="1"/>
        <pt x="670" y="94" on="0"/>
        <pt x="780" y="264" on="0"/>
        <pt x="823" y="465" on="1"/>
        <pt x="866" y="666" on="0"/>
        <pt x="827" y="838" on="0"/>
        <pt x="754" y="838" on="1"/>
        <pt x="670" y="838" on="0"/>
        <pt x="594" y="743" on="1"/>
      </contour>
    </TTGlyph>
    <TTGlyph name="afii10087" xMin="-119" yMin="0" xMax="1030" yMax="932">
      <contour>
        <pt x="856" y="0" on="1"/>
        <pt x="471" y="0" on="1"/>
        <pt x="496" y="121" on="1"/>
        <pt x="578" y="121" on="1"/>
        <pt x="451" y="391" on="1"/>
        <pt x="211" y="121" on="1"/>
        <pt x="287" y="121" on="1"/>
        <pt x="262" y="0" on="1"/>
        <pt x="-119" y="0" on="1"/>
        <pt x="-94" y="121" on="1"/>
        <pt x="51" y="121" on="1"/>
        <pt x="383" y="473" on="1"/>
        <pt x="207" y="809" on="1"/>
        <pt x="72" y="809" on="1"/>
        <pt x="98" y="932" on="1"/>
        <pt x="481" y="932" on="1"/>
        <pt x="455" y="809" on="1"/>
        <pt x="369" y="809" on="1"/>
        <pt x="485" y="555" on="1"/>
        <pt x="711" y="809" on="1"/>
        <pt x="616" y="809" on="1"/>
        <pt x="643" y="932" on="1"/>
        <pt x="1030" y="932" on="1"/>
        <pt x="1004" y="809" on="1"/>
        <pt x="872" y="809" on="1"/>
        <pt x="557" y="473" on="1"/>
        <pt x="737" y="121" on="1"/>
        <pt x="881" y="121" on="1"/>
      </contour>
    </TTGlyph>
    <TTGlyph name="afii10088" xMin="-49" yMin="-319" xMax="981" yMax="932">
      <contour>
        <pt x="981" y="121" on="1"/>
        <pt x="887" y="-319" on="1"/>
        <pt x="764" y="-319" on="1"/>
        <pt x="834" y="0" on="1"/>
        <pt x="-49" y="0" on="1"/>
        <pt x="147" y="932" on="1"/>
        <pt x="285" y="932" on="1"/>
        <pt x="113" y="117" on="1"/>
        <pt x="672" y="117" on="1"/>
        <pt x="844" y="932" on="1"/>
        <pt x="981" y="932" on="1"/>
        <pt x="809" y="121" on="1"/>
      </contour>
    </TTGlyph>
    <TTGlyph name="afii10089" xMin="4" yMin="0" xMax="981" yMax="932">
      <contour>
        <pt x="147" y="932" on="1"/>
        <pt x="285" y="932" on="1"/>
        <pt x="221" y="635" on="1"/>
        <pt x="195" y="510" on="0"/>
        <pt x="274" y="373" on="0"/>
        <pt x="395" y="373" on="1"/>
        <pt x="471" y="373" on="0"/>
        <pt x="608" y="442" on="0"/>
        <pt x="721" y="559" on="0"/>
        <pt x="797" y="711" on="0"/>
        <pt x="815" y="793" on="1"/>
        <pt x="844" y="932" on="1"/>
        <pt x="981" y="932" on="1"/>
        <pt x="784" y="0" on="1"/>
        <pt x="647" y="0" on="1"/>
        <pt x="756" y="512" on="1"/>
        <pt x="602" y="256" on="0"/>
        <pt x="348" y="256" on="1"/>
        <pt x="4" y="256" on="0"/>
        <pt x="84" y="635" on="1"/>
      </contour>
    </TTGlyph>
    <TTGlyph name="afii10090" xMin="-98" yMin="0" xMax="1030" yMax="932">
      <contour>
        <pt x="496" y="932" on="1"/>
        <pt x="633" y="932" on="1"/>
        <pt x="461" y="117" on="1"/>
        <pt x="721" y="117" on="1"/>
        <pt x="893" y="932" on="1"/>
        <pt x="1030" y="932" on="1"/>
        <pt x="834" y="0" on="1"/>
        <pt x="-98" y="0" on="1"/>
        <pt x="98" y="932" on="1"/>
        <pt x="236" y="932" on="1"/>
        <pt x="63" y="117" on="1"/>
        <pt x="324" y="117" on="1"/>
      </contour>
    </TTGlyph>
    <TTGlyph name="afii10091" xMin="-98" yMin="-319" xMax="1030" yMax="932">
      <contour>
        <pt x="-98" y="0" on="1"/>
        <pt x="98" y="932" on="1"/>
        <pt x="236" y="932" on="1"/>
        <pt x="63" y="117" on="1"/>
        <pt x="324" y="117" on="1"/>
        <pt x="496" y="932" on="1"/>
        <pt x="633" y="932" on="1"/>
        <pt x="461" y="117" on="1"/>
        <pt x="721" y="117" on="1"/>
        <pt x="893" y="932" on="1"/>
        <pt x="1030" y="932" on="1"/>
        <pt x="858" y="121" on="1"/>
        <pt x="981" y="121" on="1"/>
        <pt x="887" y="-319" on="1"/>
        <pt x="764" y="-319" on="1"/>
        <pt x="834" y="0" on="1"/>
      </contour>
    </TTGlyph>
    <TTGlyph name="afii10092" xMin="74" yMin="0" xMax="922" yMax="932">
      <contour>
        <pt x="98" y="932" on="1"/>
        <pt x="471" y="932" on="1"/>
        <pt x="393" y="559" on="1"/>
        <pt x="614" y="559" on="1"/>
        <pt x="776" y="559" on="0"/>
        <pt x="922" y="426" on="0"/>
        <pt x="891" y="281" on="1"/>
        <pt x="860" y="135" on="0"/>
        <pt x="657" y="0" on="0"/>
        <pt x="498" y="0" on="1"/>
        <pt x="137" y="0" on="1"/>
        <pt x="309" y="815" on="1"/>
        <pt x="74" y="815" on="1"/>
      </contour>
      <contour>
        <pt x="754" y="281" on="1"/>
        <pt x="770" y="358" on="0"/>
        <pt x="682" y="442" on="0"/>
        <pt x="590" y="442" on="1"/>
        <pt x="367" y="442" on="1"/>
        <pt x="299" y="117" on="1"/>
        <pt x="522" y="117" on="1"/>
        <pt x="614" y="117" on="0"/>
        <pt x="737" y="203" on="0"/>
      </contour>
    </TTGlyph>
    <TTGlyph name="afii10093" xMin="-98" yMin="0" xMax="1030" yMax="932">
      <contour>
        <pt x="893" y="932" on="1"/>
        <pt x="1030" y="932" on="1"/>
        <pt x="834" y="0" on="1"/>
        <pt x="696" y="0" on="1"/>
      </contour>
      <contour>
        <pt x="158" y="559" on="1"/>
        <pt x="317" y="559" on="1"/>
        <pt x="471" y="559" on="0"/>
        <pt x="604" y="426" on="0"/>
        <pt x="573" y="281" on="1"/>
        <pt x="543" y="135" on="0"/>
        <pt x="352" y="0" on="0"/>
        <pt x="201" y="0" on="1"/>
        <pt x="-98" y="0" on="1"/>
        <pt x="98" y="932" on="1"/>
        <pt x="236" y="932" on="1"/>
      </contour>
      <contour>
        <pt x="436" y="281" on="1"/>
        <pt x="453" y="358" on="0"/>
        <pt x="377" y="442" on="0"/>
        <pt x="293" y="442" on="1"/>
        <pt x="131" y="442" on="1"/>
        <pt x="63" y="117" on="1"/>
        <pt x="225" y="117" on="1"/>
        <pt x="309" y="117" on="0"/>
        <pt x="420" y="203" on="0"/>
      </contour>
    </TTGlyph>
    <TTGlyph name="afii10094" xMin="-49" yMin="0" xMax="922" yMax="932">
      <contour>
        <pt x="207" y="559" on="1"/>
        <pt x="563" y="559" on="1"/>
        <pt x="750" y="559" on="0"/>
        <pt x="922" y="426" on="0"/>
        <pt x="891" y="281" on="1"/>
        <pt x="860" y="135" on="0"/>
        <pt x="633" y="0" on="0"/>
        <pt x="446" y="0" on="1"/>
        <pt x="-49" y="0" on="1"/>
        <pt x="147" y="932" on="1"/>
        <pt x="285" y="932" on="1"/>
      </contour>
      <contour>
        <pt x="754" y="281" on="1"/>
        <pt x="770" y="358" on="0"/>
        <pt x="653" y="442" on="0"/>
        <pt x="537" y="442" on="1"/>
        <pt x="180" y="442" on="1"/>
        <pt x="113" y="117" on="1"/>
        <pt x="469" y="117" on="1"/>
        <pt x="586" y="117" on="0"/>
        <pt x="737" y="203" on="0"/>
      </contour>
    </TTGlyph>
    <TTGlyph name="afii10095" xMin="-27" yMin="-23" xMax="954" yMax="954">
      <contour>
        <pt x="293" y="535" on="1"/>
        <pt x="803" y="535" on="1"/>
        <pt x="811" y="668" on="0"/>
        <pt x="666" y="838" on="0"/>
        <pt x="518" y="838" on="1"/>
        <pt x="414" y="838" on="0"/>
        <pt x="236" y="756" on="0"/>
        <pt x="178" y="688" on="1"/>
        <pt x="96" y="754" on="1"/>
        <pt x="174" y="846" on="0"/>
        <pt x="403" y="954" on="0"/>
        <pt x="545" y="954" on="1"/>
        <pt x="653" y="954" on="0"/>
        <pt x="819" y="883" on="0"/>
        <pt x="922" y="754" on="0"/>
        <pt x="954" y="573" on="0"/>
        <pt x="932" y="465" on="1"/>
        <pt x="907" y="356" on="0"/>
        <pt x="799" y="178" on="0"/>
        <pt x="643" y="49" on="0"/>
        <pt x="444" y="-23" on="0"/>
        <pt x="336" y="-23" on="1"/>
        <pt x="195" y="-23" on="0"/>
        <pt x="12" y="84" on="0"/>
        <pt x="-27" y="176" on="1"/>
        <pt x="84" y="242" on="1"/>
        <pt x="113" y="174" on="0"/>
        <pt x="256" y="94" on="0"/>
        <pt x="360" y="94" on="1"/>
        <pt x="514" y="94" on="0"/>
        <pt x="737" y="276" on="0"/>
        <pt x="782" y="418" on="1"/>
        <pt x="268" y="418" on="1"/>
      </contour>
    </TTGlyph>
    <TTGlyph name="afii10096" xMin="-49" yMin="-23" xMax="1036" yMax="954">
      <contour>
        <pt x="147" y="932" on="1"/>
        <pt x="285" y="932" on="1"/>
        <pt x="199" y="524" on="1"/>
        <pt x="387" y="524" on="1"/>
        <pt x="498" y="954" on="0"/>
        <pt x="758" y="954" on="1"/>
        <pt x="1036" y="954" on="0"/>
        <pt x="932" y="465" on="1"/>
        <pt x="827" y="-23" on="0"/>
        <pt x="549" y="-23" on="1"/>
        <pt x="285" y="-23" on="0"/>
        <pt x="362" y="408" on="1"/>
        <pt x="174" y="408" on="1"/>
        <pt x="88" y="0" on="1"/>
        <pt x="-49" y="0" on="1"/>
      </contour>
      <contour>
        <pt x="573" y="88" on="1"/>
        <pt x="715" y="88" on="0"/>
        <pt x="795" y="465" on="1"/>
        <pt x="874" y="840" on="0"/>
        <pt x="733" y="840" on="1"/>
        <pt x="592" y="840" on="0"/>
        <pt x="512" y="465" on="1"/>
        <pt x="432" y="88" on="0"/>
      </contour>
    </TTGlyph>
    <TTGlyph name="afii10097" xMin="-111" yMin="0" xMax="981" yMax="932">
      <contour>
        <pt x="326" y="373" on="1"/>
        <pt x="162" y="381" on="0"/>
        <pt x="12" y="514" on="0"/>
        <pt x="41" y="651" on="1"/>
        <pt x="72" y="797" on="0"/>
        <pt x="299" y="932" on="0"/>
        <pt x="485" y="932" on="1"/>
        <pt x="981" y="932" on="1"/>
        <pt x="784" y="0" on="1"/>
        <pt x="647" y="0" on="1"/>
        <pt x="725" y="373" on="1"/>
        <pt x="502" y="373" on="1"/>
        <pt x="84" y="0" on="1"/>
        <pt x="-111" y="0" on="1"/>
      </contour>
      <contour>
        <pt x="178" y="651" on="1"/>
        <pt x="162" y="573" on="0"/>
        <pt x="276" y="489" on="0"/>
        <pt x="393" y="489" on="1"/>
        <pt x="750" y="489" on="1"/>
        <pt x="819" y="815" on="1"/>
        <pt x="463" y="815" on="1"/>
        <pt x="346" y="815" on="0"/>
        <pt x="195" y="729" on="0"/>
      </contour>
    </TTGlyph>
    <TTGlyph name="afii10098" xMin="-49" yMin="0" xMax="1071" yMax="1118">
      <contour>
        <pt x="954" y="1118" on="1"/>
        <pt x="1071" y="1118" on="1"/>
        <pt x="1006" y="815" on="1"/>
        <pt x="260" y="815" on="1"/>
        <pt x="88" y="0" on="1"/>
        <pt x="-49" y="0" on="1"/>
        <pt x="147" y="932" on="1"/>
        <pt x="913" y="932" on="1"/>
      </contour>
    </TTGlyph>
    <TTGlyph name="afii10099" xMin="-49" yMin="-395" xMax="987" yMax="1305">
      <contour>
        <pt x="27" y="1118" on="1"/>
        <pt x="188" y="1118" on="1"/>
        <pt x="227" y="1305" on="1"/>
        <pt x="365" y="1305" on="1"/>
        <pt x="326" y="1118" on="1"/>
        <pt x="512" y="1118" on="1"/>
        <pt x="485" y="1001" on="1"/>
        <pt x="299" y="1001" on="1"/>
        <pt x="236" y="698" on="1"/>
        <pt x="389" y="954" on="0"/>
        <pt x="643" y="954" on="1"/>
        <pt x="987" y="954" on="0"/>
        <pt x="905" y="575" on="1"/>
        <pt x="748" y="-166" on="1"/>
        <pt x="737" y="-221" on="0"/>
        <pt x="682" y="-307" on="0"/>
        <pt x="608" y="-365" on="0"/>
        <pt x="518" y="-395" on="0"/>
        <pt x="473" y="-395" on="1"/>
        <pt x="389" y="-395" on="0"/>
        <pt x="356" y="-371" on="1"/>
        <pt x="406" y="-262" on="1"/>
        <pt x="418" y="-270" on="0"/>
        <pt x="453" y="-279" on="0"/>
        <pt x="481" y="-279" on="1"/>
        <pt x="588" y="-279" on="0"/>
        <pt x="610" y="-166" on="1"/>
        <pt x="768" y="575" on="1"/>
        <pt x="795" y="700" on="0"/>
        <pt x="715" y="838" on="0"/>
        <pt x="594" y="838" on="1"/>
        <pt x="518" y="838" on="0"/>
        <pt x="381" y="768" on="0"/>
        <pt x="270" y="651" on="0"/>
        <pt x="193" y="500" on="0"/>
        <pt x="176" y="418" on="1"/>
        <pt x="88" y="0" on="1"/>
        <pt x="-49" y="0" on="1"/>
        <pt x="162" y="1001" on="1"/>
        <pt x="0" y="1001" on="1"/>
      </contour>
    </TTGlyph>
    <TTGlyph name="afii10100" xMin="-49" yMin="0" xMax="1030" yMax="1364">
      <component glyphName="afii10068" x="0" y="0" flags="0x204"/>
      <component glyphName="acute" x="0" y="0" flags="0x4"/>
    </TTGlyph>
</ttFont>
